<svg xmlns="http://www.w3.org/2000/svg" width="96" height="40" viewBox="0 0 96 40"><g fill-rule="evenodd" clip-rule="evenodd" fill="#000333"><path d="M85.998 15.504a3.973 3.973 0 0 0-.113-1.048c-.287-1.079-.954-1.814-1.989-2.219-.463-.182-.951-.191-1.439-.191-3.028.002-6.057.002-9.085-.001-.962-.001-1.794.31-2.449 1.027-.566.62-.822 1.359-.82 2.204.009 3.144.006 6.288.001 9.432-.001.472.089.916.275 1.349.458 1.072 1.615 1.844 2.783 1.843 1.627 0 7.988-.007 9.542.003.503.003.98-.076 1.437-.286a3.025 3.025 0 0 0 1.49-1.444c.265-.537.374-1.104.371-1.711-.017-2.987-.012-5.973-.004-8.958zm-5.882 5.735c-.298-.004-.597-.002-.895-.001-.218.001-.296.085-.292.296.004.226.005.45.001.675-.004.244.065.317.311.313.146-.003.292-.008.438-.013.145-.004.209.058.202.21-.009.188-.005.377.002.565.005.138-.048.208-.189.201-.152-.007-.304-.016-.456-.021-.236-.009-.315.082-.311.314.013.59.02 1.181.023 1.771.001.143-.083.2-.227.195a12.404 12.404 0 0 0-.747-.004c-.18.006-.247-.048-.247-.225v-2.503h-.004v-2.538c0-.115.058-.186.177-.186l2.21-.001c.113 0 .167.057.167.169 0 .207-.003.414 0 .621.004.12-.049.163-.163.162zm4.026 3.379c-.004.636-.592 1.199-1.202 1.22-.312.011-.621.05-.926-.114-.464-.25-.665-.635-.695-1.136-.005-.085-.001-.171-.003-.256-.006-.192.032-.233.231-.235.183-.002.366-.002.548 0 .201.001.228.039.227.236-.001.106.016.218.049.318.058.175.206.213.37.192.168-.021.275-.135.281-.291.015-.432.013-.864.004-1.297a.328.328 0 0 0-.263-.315c-.08-.017-.202.059-.274.125-.115.106-.222.144-.378.102-.175-.047-.359-.065-.54-.09-.121-.017-.163-.074-.156-.196.044-.778.086-1.557.122-2.335.011-.233.025-.258.265-.258h1.042v-.002h1.079c.187.001.233.056.173.235-.075.226-.066.498-.301.642a.795.795 0 0 1-.348.122c-.248.017-.499-.003-.749-.004-.206 0-.272.063-.283.271-.011.2-.022.401-.022.603 0 .072.031.145.048.218.07-.025.147-.038.208-.078.416-.273.91-.271 1.247.084a.897.897 0 0 1 .249.631c-.002.536.001 1.072-.003 1.608zM67.795 14.833c-.257-1.09-.919-1.885-1.872-2.457-.702-.422-1.482-.582-2.275-.673-.336-.039-.687.039-1.03.074a4.488 4.488 0 0 0-1.859.61c-1.302.772-1.984 1.933-2 3.433-.029 2.674-.01 5.35-.004 8.024 0 .315.018.634.062.946.118.84.48 1.567 1.082 2.167.431.431.924.78 1.51.964.48.15.969.282 1.463.373.463.086.928.019 1.394-.077.683-.14 1.327-.351 1.905-.748 1.131-.776 1.728-1.854 1.753-3.219.027-1.413.014-6.922-.001-8.262a5.337 5.337 0 0 0-.128-1.155zm-3.597 9.444c0 .417-.207.719-.563.826-.381.114-.799-.011-1.001-.336a.934.934 0 0 1-.124-.464c-.007-2.772-.004-5.545-.004-8.318 0-.098.008-.195-.002-.292-.052-.502.417-.85.852-.849.493 0 .841.341.842.841v8.592zM10 12.013v15.973h3.854v-6.521h2.61v-2.982s-2.565-.013-2.61-.047V15.03c.032-.023 3.854-.035 3.854-.035v-2.982H10zM25.322 16.384v1.607h3.232s-.009-1.9-.008-2.047c.003-.852-.16-1.662-.604-2.396-.737-1.219-1.913-1.697-3.249-1.867-.444-.057-.89-.003-1.339.088-.702.142-1.363.356-1.96.758-1.229.826-1.843 2.018-1.869 3.46-.046 2.516-.009 5.033-.015 7.551a6.19 6.19 0 0 0 .13 1.378 4.127 4.127 0 0 0 2.809 3.078c.461.146.941.248 1.42.315.57.081 1.144.016 1.693-.161.38-.122.771-.249 1.111-.451 1.256-.749 1.804-1.916 1.857-3.34.009-.235.024-2.314.024-2.314h-3.232s.003 1.942.002 2.11c-.003.403-.165.728-.55.893-.667.285-1.501-.036-1.485-.9.026-1.377.008-6.959.007-8.373 0-.332.129-.596.416-.764.769-.449 1.614.034 1.615.919l-.001.457h-.004zM53.687 16.384v1.607h3.232s-.009-1.9-.008-2.047c.003-.852-.16-1.662-.604-2.396-.737-1.219-1.913-1.697-3.249-1.867-.444-.057-.89-.003-1.339.088-.702.142-1.363.356-1.96.758-1.229.826-1.843 2.018-1.869 3.46-.046 2.516-.009 5.033-.015 7.551a6.19 6.19 0 0 0 .13 1.378 4.127 4.127 0 0 0 2.809 3.078c.461.146.941.248 1.42.315.57.081 1.144.016 1.693-.161.38-.122.771-.249 1.111-.451 1.256-.749 1.804-1.916 1.857-3.34.009-.235.024-2.314.024-2.314h-3.232s.003 1.942.002 2.11c-.003.403-.165.728-.55.893-.667.285-1.501-.036-1.485-.9.026-1.377.008-6.959.007-8.373 0-.332.129-.596.416-.764.769-.449 1.614.034 1.615.919l-.001.457h-.004zM30.502 12.045h3.68v15.94h-3.68zM42.605 19.104c0 .184.007.367.012.552v.209c-.007.038-.044.077-.068.116-.015-.015-.026-.03-.042-.043l-2.883-7.893h-3.218v15.94h3.218v-7.72c.004-.046.048-.092.074-.138.042.036.106.064.125.111l2.939 7.746h3.074v-15.94h-3.218l-.013 7.06z"/></g></svg>