<svg xmlns="http://www.w3.org/2000/svg" width="96" height="40" viewBox="0 0 96 40"><path fill="#000333" d="M31.048 23.169l-.329 4.643H18.5v-.777c.178-.017.432-.036.766-.08.335-.033.569-.078.699-.136.222-.105.381-.233.479-.425.099-.182.149-.421.149-.707V14.498c0-.248-.04-.471-.125-.666-.084-.194-.253-.34-.503-.462a3.849 3.849 0 0 0-.709-.255 4.172 4.172 0 0 0-.755-.149v-.779h6.601v.779a4.756 4.756 0 0 0-.798.107 6.332 6.332 0 0 0-.714.176c-.248.093-.418.243-.51.451a1.71 1.71 0 0 0-.138.683v10.501c0 .489.023.861.07 1.136.05.263.162.467.339.619.168.131.418.218.754.255.333.048.803.061 1.405.061.27 0 .554-.008.845-.014.295-.02.575-.056.838-.094.258-.044.494-.102.713-.187.215-.069.375-.174.479-.29.299-.338.649-.848 1.049-1.532.402-.687.68-1.241.836-1.669h.778zM47.973 14.07c-.629 0-1.137.133-1.545.398a3.44 3.44 0 0 0-1.099 1.183c-.298.52-.525 1.157-.679 1.896-.159.771-.24 1.605-.24 2.47 0 .957.086 1.827.255 2.584.156.71.409 1.341.74 1.871.298.484.646.839 1.065 1.088.411.248.899.367 1.503.367.561 0 1.047-.125 1.484-.373a3.077 3.077 0 0 0 1.083-1.091c.345-.565.59-1.194.748-1.896.165-.753.249-1.613.249-2.55 0-.971-.095-1.87-.279-2.659-.175-.752-.427-1.389-.752-1.893a3.11 3.11 0 0 0-1.08-1.044c-.413-.234-.892-.351-1.453-.351z"/><path fill="#000333" d="M54.902 16.634c-.387-1.011-.927-1.88-1.617-2.597a7.025 7.025 0 0 0-2.382-1.646 7.488 7.488 0 0 0-2.93-.586c-.998 0-1.955.194-2.869.57a7.157 7.157 0 0 0-2.41 1.661 7.865 7.865 0 0 0-1.642 2.582c-.395.99-.593 2.129-.593 3.398 0 1.164.187 2.25.565 3.266.379 1.01.899 1.877 1.561 2.596a6.932 6.932 0 0 0 2.375 1.697 7.39 7.39 0 0 0 3.011.618 7.437 7.437 0 0 0 2.888-.572 7.25 7.25 0 0 0 2.379-1.636c.707-.715 1.256-1.578 1.654-2.588.396-1.01.593-2.145.593-3.381.001-1.238-.193-2.356-.583-3.382zm-2.363 6.218a7.236 7.236 0 0 1-.896 2.264 4.217 4.217 0 0 1-1.545 1.543 4.136 4.136 0 0 1-2.125.555c-.838 0-1.558-.185-2.159-.553-.602-.352-1.103-.867-1.498-1.504-.413-.668-.711-1.425-.905-2.275-.189-.851-.286-1.81-.286-2.863 0-.959.089-1.867.271-2.734.181-.87.451-1.626.818-2.268a4.725 4.725 0 0 1 1.512-1.618c.619-.402 1.368-.612 2.247-.612.788 0 1.484.177 2.093.523a4.493 4.493 0 0 1 1.522 1.466c.404.631.711 1.394.921 2.29.208.891.314 1.873.314 2.953-.001 1.044-.096 1.981-.284 2.833zM71.269 28.194a6.65 6.65 0 0 1-2.681-.56 6.798 6.798 0 0 1-2.274-1.579c-.651-.692-1.173-1.532-1.562-2.53-.389-1.001-.582-2.117-.582-3.378 0-1.244.188-2.374.572-3.399.381-1.013.907-1.894 1.585-2.624a6.965 6.965 0 0 1 2.367-1.69 7.203 7.203 0 0 1 2.914-.587c.773 0 1.471.09 2.094.283a7.494 7.494 0 0 1 1.783.807l.449-.75h.885l.096 5.573h-.901a12.86 12.86 0 0 0-.529-1.764c-.236-.638-.51-1.178-.826-1.615a3.95 3.95 0 0 0-1.254-1.182 3.297 3.297 0 0 0-1.662-.426c-.711 0-1.374.168-1.985.476a4.589 4.589 0 0 0-1.591 1.405c-.425.592-.762 1.345-1.001 2.265-.245.921-.365 1.952-.365 3.081 0 1.005.127 1.918.38 2.749.253.84.617 1.569 1.085 2.202a5.261 5.261 0 0 0 1.668 1.47c.639.349 1.358.522 2.149.522.593 0 1.14-.089 1.641-.283a4.102 4.102 0 0 0 1.299-.741c.365-.319.689-.688.966-1.1.283-.411.509-.862.686-1.34l.824.396c-.63 1.55-1.468 2.657-2.511 3.314-1.042.675-2.282 1.005-3.719 1.005z"/></svg>