<svg xmlns="http://www.w3.org/2000/svg" width="96" height="40" viewBox="0 0 96 40"><g fill="#000333"><path d="M18.501 33.671h-2.627L13.041 6.329h2.586l1.56 20.773 2.012-20.773h2.34l-3.038 27.342zM27.206 33.671V6.329h2.504v27.342h-2.504zM41.328 33.671l-.411-5.542h-2.709l-.575 5.542h-2.258l3.08-27.342h2.586l2.874 27.342h-2.587zm-1.601-20.65l-1.272 12.687h2.258l-.986-12.687zM52.824 34c-2.217 0-3.818-1.684-3.818-4.311v-6.898h2.381v7.145c0 .943.37 1.561 1.354 1.561.986 0 1.355-.617 1.355-1.561V6.329h2.463v23.36C56.561 32.316 55.042 34 52.824 34zM62.884 33.671V6.329h6.651v2.34h-4.188v9.771h3.038v2.342h-3.038v10.551h4.188v2.339h-6.651zM78.895 34c-2.545 0-4.064-1.889-4.064-4.639v-3.695h2.381v3.818c0 1.354.656 2.381 1.601 2.381 1.272 0 1.766-.862 1.766-2.381 0-2.752-.944-5.297-2.422-8.376-1.314-2.71-3.121-6.856-3.121-9.688 0-3.162 1.231-5.42 4.147-5.42 2.257 0 3.695 1.889 3.695 4.682v3.982h-2.34v-3.9c0-1.643-.493-2.424-1.396-2.424-1.068 0-1.725.698-1.725 2.176 0 3.203.986 5.338 2.668 8.869 1.561 3.325 2.874 6.486 2.874 9.36 0 4.27-2.421 5.255-4.064 5.255z"/></g></svg>