<svg xmlns="http://www.w3.org/2000/svg" width="86.001" height="16.457" viewBox="0 0 86.001 16.457"><g fill="#FFF"><path d="M28.542 2.185V0h.244v1.963h1.079v.222h-1.323zM31.706 2.185l-.188-.556h-.901l-.19.556h-.25L30.935 0h.269l.759 2.185h-.257zM31.203.689c-.046-.143-.112-.34-.134-.43a6.22 6.22 0 0 1-.137.436l-.24.713h.752l-.241-.719zM34.511 2.185l-.188-.556h-.901l-.19.556h-.25L33.74 0h.269l.758 2.185h-.256zM34.009.689c-.047-.143-.113-.34-.135-.43a6.22 6.22 0 0 1-.137.436l-.241.713h.753l-.24-.719zM36.067 2.185H35.8L35.057 0h.255l.488 1.496c.043.131.111.352.133.43.022-.078.098-.308.139-.437L36.561 0h.249l-.743 2.185zM37.226 2.185V0h1.319v.223h-1.077v.686h.625v.223h-.625v.832h1.124v.222h-1.366zM40.364 2.185L39.409.689a4.136 4.136 0 0 1-.156-.273v1.769h-.234V0h.237l.946 1.523c.047.074.127.219.155.275V0h.234v2.185h-.227zM41.88.223v1.962h-.243V.223h-.644V0h1.529v.223h-.642zM43.696 2.219c-.521 0-.79-.314-.79-.92V0h.243v1.293c0 .471.182.705.558.705.379 0 .528-.229.528-.699V0h.242v1.293c.001.605-.257.926-.781.926zM46.026 1.237l.48.948h-.281l-.468-.929h-.519v.929h-.243V0h.864c.385 0 .681.197.681.619.001.34-.202.551-.514.618zM45.852.223h-.612v.815h.581c.323 0 .478-.136.478-.411-.001-.268-.157-.404-.447-.404zM48.394 2.185l-.187-.556h-.901l-.19.556h-.25L47.624 0h.268l.758 2.185h-.256zM47.892.689a9.378 9.378 0 0 1-.134-.43 5.805 5.805 0 0 1-.138.436l-.24.713h.752l-.24-.719zM50.328 2.185h-.533V0h.577c.574 0 .996.328.996 1.078 0 .792-.456 1.107-1.04 1.107zm.025-1.962h-.314v1.74h.322c.471 0 .764-.25.764-.876-.001-.56-.269-.864-.772-.864zM51.811 2.185V0h1.319v.223h-1.076v.686h.625v.223h-.625v.832h1.123v.222h-1.366zM54.337 2.185V0h.244v1.963h1.08v.222h-1.324zM57.499 2.185l-.188-.556h-.902l-.19.556h-.249L56.728 0h.269l.758 2.185h-.256zM56.996.689c-.047-.143-.112-.34-.134-.43a6.919 6.919 0 0 1-.138.436l-.241.713h.753l-.24-.719z"/><g><path d="M6.786 16.154c-.035 0-.035-.283 0-.283h1.331c.069 0 .106-.018.106-.07V9.75H3.858v6.051c0 .053.035.07.107.07h1.33c.036 0 .036.283 0 .283H.027c-.036 0-.036-.283 0-.283h1.508c.053 0 .089-.018.089-.07V3.932c0-.053-.036-.07-.089-.07H.027c-.036 0-.036-.285 0-.285h5.269c.036 0 .036.285 0 .285h-1.33c-.072 0-.107.018-.107.07v5.535h4.365V3.932c0-.053-.037-.07-.106-.07H6.786c-.035 0-.035-.285 0-.285h5.27c.035 0 .035.285 0 .285h-1.49c-.071 0-.107.018-.107.07v11.869c0 .053.036.07.107.07h1.49c.035 0 .035.283 0 .283h-5.27zM14.043 16.154c-.036 0-.036-.283 0-.283h1.508c.052 0 .089-.018.089-.07V3.932c0-.053-.037-.07-.089-.07h-1.508c-.036 0-.036-.285 0-.285h5.446c.035 0 .035.285 0 .285h-1.508c-.071 0-.107.018-.107.07v11.869c0 .053.036.07.107.07h1.508c.035 0 .035.283 0 .283h-5.446zM25.769 16.457c-1.259 0-2.146-.729-2.803-.729-.496 0-.887.355-.939.677-.018.052-.266.052-.266 0v-4.188c0-.035.266-.035.266 0 0 1.438 1.508 3.975 3.725 3.975 1.97 0 2.928-1.189 2.928-2.342 0-1.721-1.064-2.111-3.689-3.105-1.615-.604-2.875-1.489-2.875-3.602 0-2.182 1.526-3.867 3.265-3.867 1.047 0 1.349.479 2.129.479.515 0 .675-.231.71-.427 0-.053.248-.053.248 0v3.211c0 .035-.248.035-.248 0 0-1.686-1.33-2.98-2.82-2.98-1.367 0-2.272.959-2.272 2.184 0 1.258.958 1.986 3.104 2.785 2.201.814 3.603 1.648 3.603 3.814-.003 1.808-1.369 4.115-4.066 4.115zM41.416 7.729c0-2.058-1.081-3.867-3.565-3.867h-.195c-.07 0-.105.018-.105.07v11.869c0 .053.035.07.105.07h1.49c.036 0 .036.283 0 .283h-5.41c-.035 0-.035-.283 0-.283h1.49c.07 0 .106-.018.106-.07V3.932c0-.053-.036-.07-.106-.07h-.196c-2.483 0-3.494 1.809-3.494 3.867 0 .035-.249.035-.249 0V3.631c0-.018.018-.055.054-.055H41.63c.035 0 .035.037.035.055v4.098c0 .035-.249.035-.249 0z"/></g><g><path d="M49.366 3.188c4.025 0 6.066 3.193 6.066 6.635s-2.041 6.635-6.066 6.635c-4.028 0-6.068-3.193-6.068-6.635s2.04-6.635 6.068-6.635zm0 11.85c3.086 0 4.381-2.661 4.381-5.216 0-2.554-1.295-5.217-4.381-5.217-3.088 0-4.383 2.663-4.383 5.217 0 2.555 1.295 5.216 4.383 5.216zM57.988 3.489h5.96c2.378 0 3.851 1.294 3.851 3.317 0 1.525-.675 2.785-2.2 3.211v.035c1.473.283 1.774 1.365 1.898 2.607.105 1.242.035 2.625.745 3.494h-1.88c-.48-.514-.249-1.879-.463-3.121-.213-1.242-.479-2.289-2.11-2.289h-4.116v5.41h-1.685V3.489zm5.199 5.835c1.578 0 2.927-.408 2.927-2.252 0-1.242-.675-2.164-2.253-2.164h-4.188v4.416h3.514zM70.708 3.489h1.686v12.665h-1.686V3.489zM79.188 3.489h1.863L86 16.154h-1.863l-1.384-3.812h-5.358l-1.418 3.812h-1.738l4.949-12.665zm-1.259 7.433h4.293L80.11 5.014h-.035l-2.146 5.908z"/></g></g></svg>