<svg xmlns="http://www.w3.org/2000/svg" width="166" height="24" viewBox="0 0 166 24"><path fill="#211915" d="M55.277 20.324h6.145v-.8h-1.318c-.047 0-.168-.025-.33-.071a1.706 1.706 0 0 1-.541-.211c-.188-.189-.26-.425-.26-.872V4.597l5.297 15.728h1.743l5.368-15.751v14.1a.708.708 0 0 1-.282.568c-.141.117-.495.236-.825.283h-1.367v.8h8.69v-.8h-1.298c-.773 0-1.223-.447-1.223-1.155V5.349c0-.516.048-.682.308-.846.142-.14.494-.26.87-.305H77.62v-.85h-7.064l-4.12 12.009-4.002-12.009h-7.133v.85h1.295c.705 0 1.177.446 1.177 1.151V17.9l.023.47c0 .683-.518 1.155-1.225 1.155h-1.294v.799zM77.937 4.126h1.343c.047 0 .186.047.329.095.213.047.399.118.517.21.188.165.26.33.26.612v10.759c0 1.933.518 3.038 1.743 3.722 1.104.682 2.896 1.084 4.614 1.084 1.951 0 3.885-.566 4.851-1.367a3.677 3.677 0 0 0 1.082-1.86c.188-.637.282-1.437.282-2.284V5.303c0-.707.494-1.177 1.25-1.177h1.314v-.778H89.33v.778h1.321c.658 0 1.105.495 1.105 1.177v9.913c0 2.684-1.105 3.79-3.884 3.79-1.838 0-3.203-.636-3.628-1.742-.138-.353-.188-.826-.188-1.836V5.303c0-.683.472-1.177 1.2-1.177h1.295v-.778h-8.616v.778h.002zM95.858 20.324h6.239v-.8h-1.342c-.021 0-.164-.025-.352-.047-.214-.071-.423-.143-.566-.236-.209-.189-.282-.377-.282-.872V6.787l8.641 13.537h2.614V5.021c0-.354.281-.635.799-.778.143-.022.305-.07.331-.07h1.316v-.825h-6.074v.825h1.296c.729 0 1.199.471 1.199 1.176v10.502l-8.004-12.503h-5.791v.85h1.296c.705 0 1.198.446 1.198 1.151v13.02c0 .683-.518 1.155-1.222 1.155h-1.297v.8h.001z"/><path fill-rule="evenodd" clip-rule="evenodd" fill="#211915" d="M113.709 20.324h9.137c4.734 0 8.146-3.65 8.146-8.711 0-2.919-1.343-5.509-3.625-6.992-1.367-.871-2.85-1.272-4.779-1.272h-8.878v.825h1.321c.705 0 1.177.448 1.177 1.176v13.02c0 .447-.096.708-.308.896-.14.093-.52.212-.847.306H113.709v.752zm6.146-1.837V5.115c0-.799.188-1.013.917-1.013h2.168c1.201 0 2.354.59 2.966 1.53.424.684.73 1.601.918 2.944.117.94.186 2.331.186 3.342 0 5.251-1.363 7.675-4.329 7.675h-1.882c-.708.001-.944-.258-.944-1.106zM132.559 11.847c0 5.205 3.177 8.711 7.909 8.711 4.733 0 7.937-3.506 7.937-8.711 0-2.447-.73-4.589-2.145-6.237-1.411-1.672-3.296-2.496-5.792-2.496-2.497 0-4.308.801-5.815 2.496-1.364 1.577-2.094 3.79-2.094 6.237zm4.402-4.918c.47-1.861 1.671-2.827 3.507-2.827 1.837 0 3.016.965 3.532 2.827.33 1.2.424 2.472.424 4.918 0 2.427-.094 3.674-.424 4.897-.494 1.838-1.695 2.827-3.532 2.827-1.836 0-3.013-.989-3.507-2.827-.353-1.198-.471-2.448-.471-4.897 0-2.472.118-3.694.471-4.918z"/><path fill="#211915" d="M2.539 20.324h15.257l.471-5.461h-.897c-.353 3.037-2.282 4.708-5.483 4.708H9.531c-.637 0-.895-.306-.895-.989v-7.109h1.225c1.248 0 2.353.281 2.85.728.492.47.847 1.341.847 2.142 0 .142 0 .309-.022.473h.871V7.4l-.871-.026v.189c0 2.047-1.295 3.156-3.674 3.156H8.637V4.927c0-.635.189-.825.778-.825h2.353c1.861 0 2.824.284 3.839 1.131.754.612 1.341 1.531 1.481 2.354.048.212.072.495.095.848h.989l-.399-5.087H2.539v.825h1.318c.683 0 1.154.424 1.154 1.154V18.393c0 .684-.472 1.131-1.178 1.131H2.539v.8zM18.514 4.173h1.298c.729 0 1.198.448 1.198 1.176v12.998c0 .47-.092.706-.283.895-.164.117-.516.236-.846.283h-1.367v.8H33.09l.354-6.686h-.967c-.564 3.767-2.379 5.933-5.063 5.933h-1.883c-.637 0-.921-.306-.921-1.013V5.349c0-.706.473-1.176 1.181-1.176h1.317v-.825h-8.595v.825h.001z"/><g fill="#FFD7F5"><path d="M53.375 15.87a9.68 9.68 0 0 0 .956-3.784h-9.11v3.86h8.113l.041-.076zM44.2 6.966h-8.045a9.618 9.618 0 0 0-1.184 4.103H44.2V6.966zM45.221 6.966v4.103h9.105a9.658 9.658 0 0 0-1.182-4.103h-7.923zM44.2 12.086h-9.235a9.707 9.707 0 0 0 .998 3.86H44.2v-3.86zM44.2 16.965h-7.652a9.69 9.69 0 0 0 7.652 4.36v-4.36zM45.221 5.946h7.274a9.679 9.679 0 0 0-7.274-3.982v3.982zM45.221 16.965v4.352a9.685 9.685 0 0 0 7.529-4.352h-7.529zM44.2 5.946V1.957a9.684 9.684 0 0 0-7.397 3.989H44.2z"/></g><path fill="#EA47A8" d="M48.507 4.709s-3.337-2.876-6.667.202c0 0-1.166-4.256 3.305-4.267 4.146-.006 3.362 4.065 3.362 4.065z"/><path fill="#FF8BA3" d="M41.84 4.912a4.946 4.946 0 0 1-.131-1.569c.043-.524.196-1.052.496-1.491.149-.22.336-.415.549-.574a2.83 2.83 0 0 1 .696-.382c.498-.19 1.029-.264 1.558-.277.529-.01 1.063.038 1.569.202.504.16.975.454 1.308.871.337.414.533.923.622 1.443a4.723 4.723 0 0 1 0 1.576c.041-.26.056-.523.052-.787s-.027-.525-.076-.783c-.097-.517-.297-1.018-.632-1.422a2.635 2.635 0 0 0-.583-.517A2.9 2.9 0 0 0 46.56.87c-.499-.161-1.028-.207-1.552-.193-.521.011-1.048.082-1.538.268a2.806 2.806 0 0 0-.687.373 2.373 2.373 0 0 0-.54.56c-.304.428-.456.948-.506 1.468a4.811 4.811 0 0 0 .103 1.566z"/><path fill="#ED6BB2" d="M46.546 14.514s2.614-4.834 2.727-5.181c.125-.382.8-1.999-.04-4.851-.835-2.852-1.96-3.312-1.96-3.312 1.841 1.223.709 3.579-.132 5.047-.156.275-.319.547-.486.817-.742 1.207-7.488 13.282-7.488 13.282l1.981 3.065 5.398-8.867z"/><path fill="#E6E6E6" d="M45.045 9.841c-.617 1.095-1.348 2.389-2.077 3.689.354.661.611 1.134.611 1.134l1.438 2.362 1.529-2.511.593-1.104c-.741-1.264-1.473-2.517-2.094-3.57z"/><path fill="#F275B3" d="M43.729 14.514s-2.614-4.834-2.728-5.181c-.125-.382-.799-1.999.038-4.851.835-2.852 1.962-3.312 1.962-3.312-1.841 1.223-.708 3.579.133 5.047.157.275.32.547.486.817.743 1.207 7.662 13.047 7.662 13.047l-2.153 3.301-5.4-8.868z"/></svg>