<svg xmlns="http://www.w3.org/2000/svg" width="165" height="49.822" viewBox="0 0 165 49.822"><path fill-rule="evenodd" clip-rule="evenodd" fill="#0C5170" d="M28.929-.089c.777.215 1.16.839 1.529 1.48 1.123 1.95 1.969 4.011 2.428 6.219.083.398.205.551.633.573 3.858.196 7.669.76 11.444 1.563.82.175 1.608.497 2.393.817L33.268 9.098l.971 13.468c5.739.467 11.585.662 17.32 1.861.003 0 .04-.162.061-.247.298.713.244.886-.49.965-1.217.131-2.442.242-3.665.263-3.836.063-7.673.08-11.51.113-.484.004-.968 0-1.408 0L33.05 36.563c4.075.414 8.275.385 12.367 1.38-1.556-.073-3.11-.168-4.666-.213a466.985 466.985 0 0 0-7.759-.159c-.177-.002-.475.201-.519.364-.927 3.414-2.093 6.74-3.56 9.96-.025.054-.003.129-.003.195 6.373-.024 13.878-2.696 18.489-8.815-.115.293-.166.637-.354.87-3.831 4.749-8.55 8.096-14.67 9.102-1.819.299-3.681.339-5.522.497-1.013-.604-2.069-.037-3.105-.104-5.018-.32-9.597-1.879-13.726-4.756-2.085-1.454-3.657-3.385-5.123-5.586.58-.23 1.101-.439 1.638-.655l-.803-1.408c.267.067.538.207.8.191 3.247-.197 6.491-.471 9.741-.617 4.609-.207 9.222-.346 13.834-.461.672-.017.893-.251.986-.848.333-2.142.761-4.27 1.02-6.418.197-1.634.194-3.292.28-4.944-.247-.063-.371-.118-.498-.124a59.334 59.334 0 0 0-1.738-.059c-5.066-.097-10.128.025-15.168.535-4.076.412-8.134.995-12.2 1.497-.377.047-.566.212-.503.615.198 1.256.332 2.525.596 3.767.526 2.47 1.545 4.746 2.871 6.888-.693-.151-1.438-.193-2.062-.49-.478-.228-.961-.709-1.172-1.196a32.149 32.149 0 0 1-2.255-7.973c-.123-.818.131-1.21.911-1.453l1.084-.338-.109-1.211c10.044-1.486 20.085-2.117 30.291-2.047-.059-1.145-.082-2.253-.179-3.354a547.738 547.738 0 0 0-.772-8.081c-.207-2.011-.226-2.019-2.259-2.092-7.706-.279-15.374.124-22.996 1.326-.395.062-.791.109-1.219.167.714-.586 8.873-1.849 12.813-2.127 4.338-.307 8.673-.529 13.142-.243-.225-3.039-1.46-5.537-3.338-7.789l.489-.443c.269-.002.537-.002.805-.002zm1.732 37.72c-7.953.078-15.705.425-23.449 1.025.007.13-.007.185.014.213.106.144.216.285.333.418 2.04 2.327 4.406 4.229 7.166 5.646 3.692 1.895 7.523 3.248 11.73 3.304.575.008.884-.104 1.047-.7.225-.815.578-1.595.833-2.404.771-2.446 1.521-4.898 2.326-7.502zM165 39.024c-1.023.203-1.652-.188-2.189-1.117-.984-1.7-2.126-3.31-3.204-4.954a2.104 2.104 0 0 0-.581-.623v6.638h-1.441v-9.669c1.133-.254 1.244-.214 1.855.715 1.276 1.942 2.549 3.887 3.98 5.814v-6.615H165v9.811zM80.357 49.911v-5.466c.529-.241.812-.079 1.068.324.701 1.108 1.434 2.194 2.272 3.257v-3.574c.574-.237.839-.157.83.487-.027 1.657-.015 3.314-.018 4.972h-.804l-2.321-3.736-.224.082v3.654h-.803zM121.205 49.911v-5.514c.904 0 1.746-.062 2.573.02.702.068 1.201.555 1.283 1.264.098.834.107 1.686.075 2.527-.034.883-.629 1.377-1.387 1.703h-2.544zm.926-4.857v4.108c.332 0 .616.009.9-.002.887-.036 1.23-.32 1.298-1.194.049-.642.026-1.293-.021-1.936-.044-.602-.45-.909-1.02-.969-.369-.039-.746-.007-1.157-.007zM56.919 49.911c.02-1.318.049-2.635.058-3.953.01-1.635.002-1.635 1.662-1.632.156 0 .312-.007.468.005.991.074 1.606.553 1.728 1.546.099.811.052 1.648 0 2.47-.053.844-.666 1.26-1.37 1.564h-2.546zm.919-.772c.464 0 .842.025 1.216-.006.524-.042.914-.34.955-.863.061-.771.1-1.561-.017-2.317-.05-.322-.468-.714-.804-.834-.403-.146-.897-.034-1.35-.034v4.054zM144.509 49.911v-5.535c.907 0 1.749-.052 2.581.016.693.056 1.102.544 1.25 1.217.148.67-.127 1.271-.726 1.658-.091.059-.187.111-.327.195l1.239 2.449h-.938c-.348-.694-.707-1.383-1.041-2.084-.227-.477-.641-.344-.98-.281-.12.021-.248.363-.258.565-.029.599-.002 1.199.003 1.8h-.803zm.818-3.086c.54 0 1.009.041 1.468-.011.479-.056.764-.396.76-.875s-.293-.816-.772-.867c-.474-.052-.957-.011-1.455-.011l-.001 1.764zM104.732 49.911v-5.614c.919.041 1.766.016 2.591.135.755.109 1.225.714 1.27 1.519.043.759.025 1.521.005 2.281-.024.877-.622 1.324-1.321 1.68l-2.545-.001zm.825-.746c.318 0 .562.003.805-.001 1.063-.016 1.452-.393 1.477-1.451.011-.468.018-.939-.007-1.408-.042-.815-.461-1.227-1.26-1.259-.326-.013-.652-.002-1.015-.002v4.121zM91.474 49.911v-5.614c.919.041 1.765.016 2.591.135.755.109 1.224.714 1.27 1.519.042.759.024 1.521.004 2.281-.023.877-.621 1.324-1.32 1.68l-2.545-.001zm.792-4.867c0 1.318-.004 2.544.008 3.769.002.107.086.266.176.312.912.462 2.062-.196 2.119-1.219.03-.558.031-1.12-.003-1.677-.047-.74-.469-1.142-1.195-1.182-.332-.017-.665-.003-1.105-.003zM114.911 49.911v-5.536h3.55v.666h-2.627v1.646h2.225l.038.771h-2.263v1.687h2.621l.071.766h-3.615zM139.018 49.911c-1.014-.467-1.431-1.259-1.33-2.368.044-.486-.008-.981.015-1.472.046-1.011.782-1.73 1.801-1.786 1.098-.06 1.909.527 2.065 1.55.08.525.076 1.065.097 1.599.041 1.077-.282 1.965-1.308 2.478l-1.34-.001zm1.818-2.798c-.021-.389-.006-.797-.074-1.188-.096-.542-.447-.866-1.008-.901-.573-.035-1.088.189-1.152.775-.094.854-.091 1.73-.011 2.586.055.592.572.85 1.129.821.561-.028.962-.355 1.049-.944.055-.374.046-.758.067-1.149zM63.75 49.911v-5.578c1.132 0 2.195-.018 3.256.024.128.005.243.335.47.67h-2.857v1.65h2.236l.042.774h-2.182c-.071.111-.111.146-.116.186-.173 1.527-.173 1.527 1.32 1.527.178 0 .36.024.534-.005.6-.102.936.1.914.751l-3.617.001z"/><path fill-rule="evenodd" clip-rule="evenodd" fill="#0C5170" d="M0 22.625c.139-.741.22-1.499.429-2.22a70.309 70.309 0 0 1 1.827-5.52c-.642 3.174-.459 6.36-.317 9.578-.84-.131-1.406-.621-1.939-1.165v-.673zM154.42 49.911c.623-1.714 1.238-3.431 1.883-5.136.069-.183.295-.384.478-.418.128-.024.391.187.45.347.642 1.729 1.255 3.47 1.877 5.207h-.804c-.433-1.136-.433-1.136-1.649-1.136h-.066c-1.063.001-1.08.016-1.23 1.136h-.939zm1.522-1.93h1.705l-.786-2.228-.151.027-.768 2.201zM97.634 49.911c.621-1.737 1.233-3.477 1.875-5.207.06-.159.322-.371.45-.347.183.034.409.235.479.418.645 1.705 1.26 3.422 1.884 5.136h-.938c-.149-1.114-.173-1.135-1.232-1.136-1.282 0-1.282 0-1.714 1.136h-.804zm2.342-4.373L99.118 48h1.707l-.849-2.462zM74.732 49.911c-1.043-.492-1.389-1.335-1.323-2.456.059-1 .012-2.007.012-3.023.545-.213.81-.118.792.515-.028.982-.035 1.967.003 2.949.04 1.029.802 1.571 1.654 1.225.558-.226.72-.694.724-1.242.007-.984.023-1.968-.004-2.95-.017-.587.225-.708.777-.513 0 1.325.045 2.66-.018 3.99-.037.766-.655 1.17-1.279 1.506l-1.338-.001zM132.991 49.911v-4.826l-1.54-.07v-.682c1.183 0 2.358-.017 3.531.023.126.005.241.342.46.675h-1.647v4.88h-.804zM161.518 49.911v-5.473c.597-.231.834-.097.821.516-.026 1.204.009 2.408-.016 3.611-.01.472.159.635.619.605.685-.045 1.372-.047 2.058-.066v.807h-3.482zM151.205 49.911v-5.537l.804-.046v5.583h-.804zM128.036 49.911v-5.537l.803-.046v5.583h-.803zM87.589 49.911v-5.537l.804-.046v5.583h-.804zM137.069 15.293c1.367-.086 1.371-.088 1.905 1.047.685 1.455 1.36 2.914 2.042 4.37.094.199.2.391.357.697.244-.517.443-.932.637-1.351.57-1.237 1.138-2.476 1.708-3.712.549-1.189.55-1.189 1.926-1.023v9.793h-1.4v-6.225l-.138-.04c-.089.132-.196.256-.265.399-.536 1.129-1.065 2.262-1.598 3.393-.176.375-.266.765-.862.756-.565-.009-.701-.337-.886-.729-.542-1.151-1.101-2.294-1.657-3.438-.063-.132-.159-.248-.352-.544v6.42h-1.418l.001-9.813zM86.245 32.767v6.212h-1.396v-9.656c1.108-.337 1.4-.218 1.859.763l2.432 5.203c.146-.255.252-.413.33-.583.683-1.481 1.358-2.966 2.04-4.446.54-1.174.543-1.173 1.904-.995v9.727h-1.375v-6.243c-.057-.012-.113-.022-.17-.035-.268.553-.538 1.104-.801 1.658-.354.746-.701 1.496-1.054 2.244-.158.334-.253.657-.778.659-.535.002-.731-.247-.923-.658-.537-1.155-1.099-2.299-1.654-3.445-.073-.151-.168-.294-.253-.44-.053.011-.107.022-.161.035zM105.26 29.275c.861-.213 1.402-.013 1.867.762 1.07 1.78 2.258 3.49 3.399 5.229.142.216.296.423.589.595v-6.593h1.414v9.651c-1.064.28-1.224.226-1.775-.617-1.177-1.795-2.352-3.592-3.528-5.387-.141-.215-.292-.423-.585-.593v6.652h-1.381v-9.699zM95.624 25.118h-1.418v-9.939c1.641.095 3.287.083 4.897.321 1.085.16 1.788 1.226 1.859 2.28.094 1.414-.377 2.282-1.542 2.844-.099.047-.196.098-.369.186l2.234 4.336c-.562 0-1.039.03-1.508-.019-.142-.015-.302-.227-.383-.384-.532-1.033-1.08-2.061-1.551-3.123-.229-.517-.533-.703-1.071-.644-.352.039-.71.007-1.149.007l.001 4.135zm.03-8.528v3.134c.791 0 1.524.024 2.256-.006 1.001-.04 1.6-.611 1.625-1.498.026-.898-.524-1.537-1.507-1.618-.769-.062-1.548-.012-2.374-.012zM115.915 15.367c1.436 0 2.843-.104 4.228.029 1.511.146 2.524 1.257 2.624 2.77.088 1.334.09 2.684 0 4.018-.11 1.661-1.159 2.739-2.885 2.904-1.299.124-2.618.024-3.967.024v-9.745zm1.416 4.838v2.885c0 .022.003.045 0 .066-.087.573.18.754.722.702.397-.038.802.006 1.202-.013 1.278-.062 2.03-.771 2.093-2.058.051-1.047.046-2.101.005-3.149-.047-1.201-.708-1.898-1.896-2.037-.507-.06-1.025-.004-1.535-.045-.493-.04-.606.188-.597.631.021 1.005.006 2.011.006 3.018zM56.82 25.095v-9.844c1.612.106 3.241-.242 4.82.282 1.317.437 1.954 1.489 2.031 2.807.077 1.312.083 2.645-.066 3.947-.194 1.701-1.077 2.602-2.753 2.78-1.315.14-2.658.028-4.032.028zm1.465-8.581v7.337c.318 0 .582.002.846 0 .401-.004.805.02 1.202-.023.993-.108 1.726-.635 1.791-1.516.101-1.373.095-2.761.02-4.136-.044-.81-.617-1.354-1.419-1.481-.784-.125-1.586-.124-2.44-.181zM154.887 20.188c-.064.844-.047 1.705-.209 2.53-.327 1.676-1.837 2.608-3.825 2.46-1.583-.118-2.885-1.353-2.965-2.932a41.043 41.043 0 0 1-.004-4.015c.086-1.786 1.536-3.009 3.449-3.007 1.911.002 3.329 1.223 3.454 3.014.046.646.008 1.296.008 1.944l.092.006zm-1.47.059c-.045-.718-.027-1.418-.146-2.095-.19-1.083-.975-1.667-2.035-1.627-1.034.039-1.832.722-1.895 1.8a31.58 31.58 0 0 0 .007 3.818c.066 1.042.861 1.706 1.867 1.75 1.081.047 1.853-.515 2.048-1.602.121-.677.108-1.377.154-2.044zM155.424 34.122c-.065.845-.051 1.705-.215 2.53-.31 1.556-1.867 2.587-3.58 2.475-1.729-.113-3.11-1.333-3.198-2.946a38.887 38.887 0 0 1-.005-4.083c.088-1.74 1.562-2.985 3.414-2.991 1.899-.006 3.355 1.229 3.484 2.998.048.668.008 1.342.008 2.014l.092.003zm-5.677.054c.074.736.084 1.526.248 2.284.182.839 1.055 1.396 1.922 1.366.901-.032 1.771-.604 1.833-1.466.106-1.485.119-2.988.006-4.473-.071-.92-.938-1.476-1.876-1.481-.944-.007-1.722.531-1.908 1.456-.149.74-.153 1.509-.225 2.314zM82.696 34.159c-.059.823-.032 1.664-.195 2.466-.325 1.599-1.897 2.636-3.629 2.501-1.753-.137-3.094-1.381-3.171-3.049a40.03 40.03 0 0 1 .002-3.95c.092-1.778 1.564-3.022 3.456-3.021 1.891.002 3.329 1.254 3.445 3.036.043.669.007 1.342.007 2.013l.085.004zm-1.44-.056l-.097-.003c0-.604.007-1.208-.005-1.812-.003-.153-.058-.307-.1-.458-.241-.863-.974-1.416-1.882-1.424-.912-.009-1.818.521-1.887 1.381a29.3 29.3 0 0 0-.008 4.599c.069.89 1.016 1.465 1.914 1.44.922-.025 1.698-.607 1.868-1.524.133-.72.136-1.466.197-2.199zM113.768 20.21c-.058.844-.021 1.709-.193 2.53-.354 1.688-1.838 2.584-3.841 2.435-1.548-.115-2.875-1.388-2.953-2.951a38.523 38.523 0 0 1 .001-4.021c.099-1.781 1.562-2.988 3.478-2.979 1.911.01 3.314 1.242 3.423 3.038.039.646.007 1.296.007 1.944l.078.004zm-1.421.013a4.421 4.421 0 0 1-.115-.005c0-.626.005-1.251-.005-1.877-.002-.131-.055-.262-.09-.391-.248-.897-.982-1.438-1.938-1.429-.928.009-1.78.536-1.848 1.419a29.913 29.913 0 0 0-.006 4.53c.067.896.899 1.41 1.84 1.424.974.013 1.747-.5 1.932-1.412.15-.738.158-1.505.23-2.259zM85.953 15.293h6.15v1.27h-4.661v2.953h3.963v1.271h-3.953v3.061h4.657v1.248h-6.156v-9.803zM96.377 5.6v1.31c-1.119 0-2.206.031-3.29-.013-.592-.024-.788.167-.747.759.048.71.011 1.427.011 2.245h4.716v1.26h-6.145V1.44h6.139v1.264h-4.665V5.6h3.981zM71.395 19.531c.026.253.041.427.063.599.067.507-.104.724-.659.7-.979-.042-1.962-.013-2.943-.009-.149 0-.299.025-.482.042v2.959h4.731v1.281h-6.163v-9.795h6.169v1.232h-4.715v2.991h3.999zM62.267 6.917h-3.988v3.005h4.752v1.224h-6.173V1.465h6.143v1.23h-4.732v2.92h3.05c1.14.001 1.146.008.948 1.302zM95.787 29.248h1.455v.829c0 1.812-.018 3.624.006 5.436.021 1.717 1.262 2.681 2.77 2.192.876-.283 1.373-1.009 1.379-2.07.011-1.856.003-3.713.003-5.569v-.798h1.345c.014.019.065.053.065.087.007 2.282.087 4.566-.012 6.842-.073 1.688-1.555 2.881-3.349 2.933-1.824.053-3.251-1.017-3.554-2.69a7.436 7.436 0 0 1-.104-1.267c-.009-1.964-.004-3.925-.004-5.925zM82.911 1.456c0 1.061-.009 2.085.002 3.11.013 1.208-.013 2.42.082 3.623.096 1.215.938 1.879 2.132 1.826 1.134-.05 1.925-.868 1.937-2.064.019-1.904.006-3.808.006-5.711v-.782h1.441v.779c0 1.881.004 3.763-.001 5.645-.005 1.921-1.265 3.294-3.135 3.427-2.064.146-3.682-.962-3.808-2.899-.149-2.292-.035-4.601-.035-6.953l1.379-.001zM114.083 11.133c-.106.035-.148.057-.191.061-1.255.101-1.295.112-1.656-1.091-.201-.67-.521-.92-1.224-.859-.819.07-1.649.035-2.474.008-.398-.013-.639.106-.716.51-.021.109-.065.213-.101.319-.435 1.291-.46 1.305-1.904 1.042.485-1.325.968-2.64 1.447-3.956.642-1.761 1.292-3.52 1.912-5.289.137-.39.349-.508.733-.48.351.026.659-.035.828.442 1.066 3.008 2.172 6.001 3.263 9 .031.082.048.167.083.293zm-2.575-3.159l-1.437-4.189a8.372 8.372 0 0 0-.158.01l-1.458 4.18 3.053-.001zM78.77 21.251v3.854h-1.42v-9.706c1.558 0 3.119-.129 4.648.038 1.392.152 2.296 1.585 2.179 3.018-.134 1.64-1.266 2.726-2.946 2.79-.778.031-1.557.006-2.461.006zm1.363-1.283c.485-.046.982-.042 1.454-.15.617-.141 1.001-.57 1.085-1.215.088-.678 0-1.327-.649-1.705-.969-.565-2.039-.296-3.073-.303l-.19 1.868c-.002.022 0 .044 0 .067.025 1.611-.219 1.373 1.373 1.438zM134.736 38.954c-.056.03-.074.049-.095.051-1.336.134-1.369.144-1.753-1.154-.189-.641-.482-.906-1.172-.85-.82.067-1.65.03-2.475.011-.388-.01-.65.081-.72.507-.024.152-.101.295-.151.443-.42 1.211-.47 1.238-1.888.986.568-1.559 1.132-3.108 1.698-4.656.567-1.552 1.157-3.097 1.693-4.659.151-.441.431-.437.773-.432.313.005.587-.023.735.389 1.093 3.048 2.213 6.087 3.321 9.129.026.061.022.131.034.235zm-2.563-3.182l-1.434-4.212-.149.018-1.459 4.194h3.042zM70.718 2.471l-.676.627c-.921-.191-1.72-.435-2.533-.5-.676-.053-1.25.287-1.521.982-.287.737-.048 1.436.685 1.715.533.203 1.116.293 1.684.386 1.962.32 2.742 1.084 2.744 2.728.002 1.587-.952 2.576-2.767 2.869-1.595.257-3.18-.212-4.165-1.262l.992-.858c.727.628 1.632.934 2.653.852.242-.02.488-.053.721-.121.821-.238 1.192-.767 1.134-1.582-.049-.702-.499-1.144-1.318-1.28-.593-.098-1.194-.154-1.78-.281-1.341-.292-2.037-1.099-2.118-2.4-.079-1.258.615-2.342 1.784-2.788 1.543-.589 3.556-.198 4.481.913zM134.695 16.286c-.082.108-.132.178-.186.245-.198.242-.398.482-.613.743-.904-.708-1.817-.973-2.838-.726-.764.184-1.182.681-1.205 1.403-.023.739.276 1.147 1.106 1.371.534.144 1.095.189 1.641.296 1.674.33 2.431 1.125 2.473 2.584.043 1.478-.785 2.572-2.363 2.874-1.496.286-2.983.221-4.263-.804-.122-.097-.264-.169-.331-.211l.905-1.111c.912.859 1.939 1.037 3.046.92.941-.099 1.537-.638 1.579-1.436.042-.806-.417-1.312-1.39-1.499-.481-.092-.97-.144-1.454-.219-1.431-.223-2.274-1.056-2.356-2.32-.103-1.571.59-2.663 2.058-3.018 1.506-.364 2.953-.236 4.191.908zM73.999 36.161c-.2 1.794-1.632 3.006-3.507 2.968-1.832-.036-3.282-1.311-3.368-3.053a40.842 40.842 0 0 1-.003-3.881c.08-1.748 1.487-3.043 3.255-3.089 1.979-.052 3.363 1.058 3.612 2.896-.997.266-1.229.178-1.696-.606-.447-.749-1.124-1.062-1.977-.98-.822.079-1.562.605-1.622 1.441a32.458 32.458 0 0 0 .002 4.53c.058.847.769 1.287 1.58 1.407.813.12 1.494-.166 1.961-.869.618-.93.631-.941 1.763-.764zM125.622 36.145c-.151 1.683-1.454 2.883-3.195 2.982-1.742.099-3.424-.989-3.576-2.565a25.612 25.612 0 0 1 .007-4.945c.151-1.524 1.716-2.534 3.477-2.511 1.627.021 3.004 1.131 3.269 2.639.015.084.001.173.001.251-1.012.266-1.174.202-1.702-.647a1.99 1.99 0 0 0-2.073-.914c-.846.165-1.515.749-1.562 1.611a37.235 37.235 0 0 0 .001 4.146c.049.866.692 1.413 1.576 1.596.771.16 1.721-.135 2.005-.871.362-.943.984-.903 1.772-.772zM79.651 4.291h-1.382c-.28-.753-.664-1.404-1.531-1.617-1.129-.278-2.299.328-2.408 1.484-.136 1.434-.098 2.895-.005 4.336.054.835.751 1.392 1.577 1.5.843.111 1.66-.11 1.989-.904.378-.912.981-.849 1.774-.727-.119 1.109-.649 1.95-1.583 2.48-2.175 1.233-5.363.059-5.344-2.957.007-1.141-.033-2.283.019-3.422.082-1.821 1.517-3.132 3.41-3.18 1.832-.046 3.29 1.181 3.484 3.007zM142.726 32.033c-1.114.188-1.162.167-1.71-.706a1.983 1.983 0 0 0-2.079-.893c-.823.164-1.479.725-1.533 1.558-.089 1.332-.12 2.678-.03 4.007.073 1.083.767 1.694 1.733 1.817.914.117 1.713-.395 2.135-1.369l.14-.326h1.388c-.133 1.182-.688 2.052-1.688 2.581-2.117 1.119-5.225.021-5.241-2.996-.008-1.382-.034-2.78.154-4.144.218-1.568 1.903-2.593 3.717-2.453 1.618.125 2.891 1.338 3.014 2.924zM55.605 29.254c1.515-.139 1.515-.139 2.112 1.111.478 1.002.958 2.001 1.512 3.156l1.181-2.454c.126-.261.251-.522.375-.784.582-1.227.582-1.227 2.037-1.004-.098.214-.181.409-.276.598-.757 1.494-1.535 2.977-2.262 4.484a3.296 3.296 0 0 0-.298 1.272c-.042 1.092-.014 2.187-.014 3.339h-1.454c0-.9-.04-1.81.012-2.714.05-.883-.178-1.649-.598-2.42-.808-1.484-1.536-3.011-2.327-4.584zM99.151 11.157V1.463h1.387v8.454H104.326c1.126 0 1.146.024.933 1.24h-6.108zM104.536 25.118h-1.354v-9.821h1.354v9.821zM125.018 15.295h1.354v9.821h-1.354v-9.821zM116.465 38.998h-1.35v-9.732h1.35v9.732zM144.815 29.239h1.355v9.747h-1.355v-9.747zM153.613 26.12c-.436.635-.828 1.308-1.33 1.885-.18.206-.625.181-.949.262a91.492 91.492 0 0 1-.127-.157c.304-.651.506-1.389.953-1.918.234-.278.896-.192 1.365-.271l.088.199z"/></svg>