<?xml version="1.0" encoding="utf-8"?>
<!-- Generator: Adobe Illustrator 16.0.0, SVG Export Plug-In . SVG Version: 6.00 Build 0)  -->
<!DOCTYPE svg PUBLIC "-//W3C//DTD SVG 1.1//EN" "http://www.w3.org/Graphics/SVG/1.1/DTD/svg11.dtd">
<svg version="1.1" id="Capa_1" xmlns="http://www.w3.org/2000/svg" xmlns:xlink="http://www.w3.org/1999/xlink" x="0px" y="0px"
	 width="308px" height="102.667px" viewBox="0 0 308 102.667" enable-background="new 0 0 308 102.667" xml:space="preserve">
<g>
	<path d="M14.422,56.402v42.196H2.05V3.137h24.484c6.251,0,11.46,5.21,11.46,11.461v30.345c0,6.251-5.209,11.46-11.46,11.46H14.422z
		 M14.422,15.119v29.302h8.205c1.693,0,2.996-1.302,2.996-2.995V18.114c0-1.693-1.302-2.996-2.996-2.996H14.422z"/>
	<path d="M80.45,3.137h15.237l12.242,95.462H95.297L92.822,77.5h-9.897l-2.344,21.098H68.208L80.45,3.137z M84.227,66.04h7.293
		l-3.516-31.647h-0.261L84.227,66.04z"/>
	<path d="M152.078,56.402v42.196h-12.373V3.137h24.484c6.251,0,11.461,5.21,11.461,11.461v30.345c0,6.251-5.209,11.46-11.461,11.46
		H152.078z M152.078,15.119v29.302h8.205c1.693,0,2.995-1.302,2.995-2.995V18.114c0-1.693-1.302-2.996-2.995-2.996H152.078z"/>
	<path d="M211.073,3.137h31.256v11.982h-18.884v29.824h17.582v11.981h-17.582v29.693h18.884v11.981h-31.256V3.137z"/>
	<path d="M276.449,3.137h12.372v83.48h17.581v11.981h-29.953V3.137z"/>
</g>
</svg>
