<svg xmlns="http://www.w3.org/2000/svg" height="20" viewBox="0 0 78 20" width="78"><path d="M58.678 10.894l4.199-.003c.705 0 1.283-.578 1.283-1.284v-.496c0-.707-.578-1.285-1.283-1.285h-4.199c-4.045 0-4.521 3.347-4.523 4.733v2.685c.002 1.385.479 4.734 4.523 4.734l4.199-.003c.705 0 1.283-.578 1.283-1.283v-.496c0-.707-.578-1.283-1.283-1.283l-4.199-.004c-.293 0-1.098-.003-1.098-1.486h3.764c.705 0 1.283-.579 1.283-1.284v-.495c0-.707-.578-1.286-1.283-1.286l-3.764-.002c0-1.463.805-1.462 1.098-1.462M32.061 16.377c-.96 0-2.266 0-2.266-1.092 0-1.091 1.301-1.091 2.266-1.091v2.183zm3.064-8.824c0-.707-.578-1.284-1.285-1.284h-.495c-.707 0-1.284.578-1.284 1.284v3.34s-4.984-.538-4.984 4.275c0 2.274 1.021 4.811 4.038 4.811h2.604c.773 0 1.407-.634 1.407-1.406l-.001-11.02zM44.947 13.476a23.856 23.856 0 0 0-.207-2.532c-.209-1.568-1.305-3.119-3.959-3.119-2.656 0-3.198 1.611-3.697 2.635-.499 1.026-.421 3.603-.421 3.603s0 3.161.002 3.19c.019.406.241.762.563.97.205.14.452.22.718.22h.495c.223 0 .435-.058.617-.159.397-.204.67-.615.67-1.091v-.284h2.156v1.779c0 .706.578 1.284 1.283 1.284h.496c.707 0 1.283-.579 1.283-1.284.001 0 .003-5.197.001-5.212m-5.22.426c0-1.758 0-3.015 1.078-3.015 1.076 0 1.074 1.172 1.074 3.015h-2.152zM52.869 6.271h-6.635c-.705 0-1.283.578-1.283 1.285v.494c0 .707.578 1.285 1.283 1.285l1.785.002.002 9.352a1.29 1.29 0 0 0 1.285 1.285h.494c.705 0 1.283-.579 1.283-1.285l.004-9.352 1.783-.002a1.29 1.29 0 0 0 1.285-1.285v-.495a1.29 1.29 0 0 0-1.286-1.284M21.323 15.298v-.006l-.001-4.648c0-.707-.579-1.284-1.285-1.284h-.495c-.706 0-1.284.578-1.284 1.284l-.002 4.181s.023 1.867-1.122 1.867c0 0-1.127.141-1.127-2.041 0-.143-.001-5.538-.006-5.577a1.289 1.289 0 0 0-1.044-1.227 1.387 1.387 0 0 0-.336-.042h-.297a1.37 1.37 0 0 0-.328.04 1.289 1.289 0 0 0-1.056 1.264v.007 5.577s-.5 5.18 3.996 5.284c4.496.107 4.387-4.126 4.387-4.679M11.4 15.4c0-.707-.579-.951-1.285-.951h-.494c-.634 0-1.165.197-1.267.75-.02.064-.018.133-.017.177v.103c-.011.357-.125 1.144-.918 1.144-.973 0-1.261-.702-1.261-2.573 0-1.912.109-2.973 1.151-2.973.838 0 1.026.555 1.026.907l.002.42c0 .707.578.952 1.285.952h.495c.706 0 1.285-.245 1.285-.952l.002-1.432c0-1.709-1.225-2.866-3.406-3.103 0 0 1-1.183 1.998-2.05 1-.868.815-1.262.368-1.867-.447-.603-1.105-.577-1.972.158-.868.736-2.42 2.13-3.366 3.892 0 0 .132-1.605 1.525-3.76 0 0 .613-1.119-.389-1.706-.617-.361-1.136-.266-1.557.364-.42.631-1.603 2.683-1.813 4.18L2.45 4.873c-.072-.477-.639-1.057-1.393-.921-.58.106-1.053.788-.947 1.394.14.791 1.71 10.152 3.34 12.619.609.922 1.045 2.017 3.935 2.017 1.181 0 3.49-.131 3.951-3.364.034-.239.065-.893.065-.893l.002-.204-.003-.121M24.637 10.893h-.495c-.706 0-1.284.579-1.284 1.284v6.518c0 .705.578 1.283 1.284 1.283h.495c.707 0 1.285-.579 1.285-1.283v-6.518a1.29 1.29 0 0 0-1.285-1.284" fill="#4273B5"/><path d="M28.036 3.205h-2.124V1.092a.937.937 0 0 0-.934-.934h-1.201a.936.936 0 0 0-.934.934v2.113H20.72a.936.936 0 0 0-.934.934v1.2c0 .513.42.934.934.934h2.123v2.134c0 .513.42.934.934.934h1.201c.514 0 .934-.42.934-.934V6.273h2.124a.937.937 0 0 0 .934-.934v-1.2a.936.936 0 0 0-.934-.934M65.693 19.979v-1.62c0-.951.254-1.818 1.428-1.818 1.197 0 1.445.939 1.445 1.83v.632h1.586v.977h-4.459zm2.116-1.644c0-.608-.236-.837-.662-.837-.416 0-.65.223-.65.837v.667h1.313v-.667zM65.693 14.997h4.459v.965h-4.459zM69.283 14.257h-2.342v-.97H69c.289 0 .445-.108.445-.379 0-.26-.139-.481-.322-.698h-2.182v-.97h3.211v.97h-.502c.248.192.566.547.566 1.107.001.549-.269.94-.933.94M69.723 10.739l-.541-.385c.252-.289.414-.723.414-1.115 0-.301-.102-.511-.313-.511-.223 0-.307.168-.385.608-.109.607-.254 1.259-1.006 1.259-.645 0-1.018-.53-1.018-1.247 0-.656.168-1.054.451-1.41l.547.379c-.223.325-.348.644-.348.945 0 .277.109.433.283.433.191 0 .27-.175.344-.572.107-.631.252-1.3.982-1.3.775 0 1.082.674 1.082 1.415.002.706-.213 1.177-.492 1.501" fill="#E7B02F"/></svg>