<svg xmlns="http://www.w3.org/2000/svg" width="79" height="26" viewBox="0 0 79 26"><path fill="#211915" d="M22.098 24.561h8.249v-1.073h-1.77c-.064 0-.222-.032-.442-.096a2.241 2.241 0 0 1-.727-.285c-.252-.253-.348-.568-.348-1.17V3.448l7.111 21.112h2.339l7.208-21.144v18.93c0 .287-.128.57-.38.76-.19.158-.665.317-1.106.381H40.397v1.073h11.666v-1.073h-1.741c-1.042 0-1.643-.601-1.643-1.551V4.458c0-.695.062-.916.412-1.137.188-.189.662-.348 1.168-.411h1.833V1.772H42.61l-5.531 16.12-5.374-16.12h-9.577V2.91h1.739c.947 0 1.58.601 1.58 1.548v16.847l.031.631c0 .917-.696 1.551-1.643 1.551h-1.739v1.074h.002zM0 24.561h20.48l.632-7.33H19.91c-.474 4.075-3.064 6.321-7.363 6.321H9.386c-.853 0-1.201-.413-1.201-1.33v-9.544h1.644c1.675 0 3.161.378 3.824.979.664.633 1.138 1.802 1.138 2.876 0 .189 0 .412-.031.634h1.168V7.208l-1.168-.032v.254c0 2.75-1.739 4.235-4.931 4.235H8.185V3.89c0-.852.254-1.105 1.044-1.105h3.16c2.497 0 3.793.379 5.153 1.517 1.01.822 1.801 2.055 1.989 3.161.063.283.096.662.126 1.138h1.328l-.537-6.828H0V2.88h1.77c.917 0 1.548.569 1.548 1.548v17.541c0 .918-.631 1.519-1.58 1.519H0v1.073z"/><g fill="#6887A6"><path d="M77.094 18.679a12.93 12.93 0 0 0 1.288-5.082H66.149v5.183h10.893l.052-.101zM64.78 6.723H53.982a12.908 12.908 0 0 0-1.589 5.507H64.78V6.723zM66.149 6.723v5.507h12.226a13.005 13.005 0 0 0-1.586-5.507h-10.64zM64.78 13.597H52.386a12.986 12.986 0 0 0 1.336 5.183H64.78v-5.183zM64.78 20.146H54.508A13.01 13.01 0 0 0 64.78 26v-5.854zM66.149 5.354h9.768A13.012 13.012 0 0 0 66.149.007v5.347zM66.149 20.146v5.844a13 13 0 0 0 10.109-5.844H66.149zM64.78 5.354V0a12.995 12.995 0 0 0-9.927 5.354h9.927z"/></g></svg>