<svg xmlns="http://www.w3.org/2000/svg" width="79" height="26" viewBox="0 0 79 26"><path fill="#211915" d="M23.852 23.024h7.553v-.984h-1.621c-.059 0-.201-.028-.404-.085a2.171 2.171 0 0 1-.666-.262c-.23-.233-.318-.521-.318-1.072V3.696l6.51 19.328h2.143l6.596-19.356v17.33c0 .26-.115.521-.346.695-.174.146-.609.29-1.014.347H40.605v.984h10.68v-.984h-1.594c-.955 0-1.506-.548-1.506-1.419V4.622c0-.636.061-.838.379-1.042.172-.172.607-.317 1.07-.374h1.678V2.164H42.63L37.566 16.92 32.648 2.164H23.88v1.042h1.592c.867 0 1.447.549 1.447 1.416v15.422l.029.577c0 .839-.637 1.419-1.504 1.419H23.85v.984h.002zM3.623 23.024h18.75l.578-6.712h-1.1c-.436 3.731-2.807 5.787-6.742 5.787h-2.893c-.781 0-1.1-.377-1.1-1.218v-8.737h1.506c1.531 0 2.893.348 3.5.897.607.578 1.041 1.649 1.041 2.633 0 .174 0 .376-.029.579h1.07V7.14l-1.07-.029v.231c0 2.518-1.592 3.878-4.512 3.878h-1.506V4.102c0-.779.232-1.012.955-1.012h2.893c2.287 0 3.473.348 4.717 1.388.926.753 1.648 1.881 1.822 2.894.059.261.088.607.115 1.043h1.215l-.49-6.25H3.623v1.012h1.621c.838 0 1.418.521 1.418 1.417v16.059c0 .841-.58 1.389-1.447 1.389H3.623v.982z"/><g fill="#F9B7EB"><path d="M74.197 17.639a11.83 11.83 0 0 0 1.18-4.65H64.18v4.744h9.971c-.001-.001-.006.011.046-.094zM62.926 6.694h-9.887a11.853 11.853 0 0 0-1.453 5.042h11.34V6.694zM64.18 6.694v5.042h11.189a11.88 11.88 0 0 0-1.451-5.042H64.18zM62.926 12.988H51.578a11.876 11.876 0 0 0 1.225 4.744h10.123v-4.744zM62.926 18.982h-9.404a11.897 11.897 0 0 0 9.404 5.358v-5.358zM64.18 5.442h8.939A11.902 11.902 0 0 0 64.18.547v4.895zM64.18 18.982v5.349a11.9 11.9 0 0 0 9.254-5.349H64.18zM62.926 5.442V.541a11.9 11.9 0 0 0-9.088 4.901h9.088z"/></g><path fill="#EA47A8" d="M67.42 5.088s-3.637-3.138-7.27.221c0 0-1.273-4.645 3.602-4.654 4.525-.009 3.668 4.433 3.668 4.433z"/><path fill="#FF8BA3" d="M60.15 5.309a5.393 5.393 0 0 1-.147-1.712c.051-.572.213-1.147.541-1.626.164-.241.369-.454.6-.627.232-.176.49-.312.76-.417.541-.208 1.123-.288 1.699-.302.574-.011 1.16.042 1.713.219.547.176 1.063.497 1.426.951.367.451.582 1.007.68 1.573.049.285.07.573.07.86a5.039 5.039 0 0 1-.072.859 5.172 5.172 0 0 0-.027-1.713c-.104-.562-.322-1.109-.688-1.551a2.793 2.793 0 0 0-.635-.563 3.225 3.225 0 0 0-.773-.362c-.543-.176-1.119-.226-1.691-.211-.57.011-1.146.089-1.68.292a2.933 2.933 0 0 0-.748.407 2.653 2.653 0 0 0-.592.609c-.328.469-.496 1.036-.551 1.605a4.919 4.919 0 0 0-.012.858c.02.287.059.572.127.851z"/><path fill="#ED6BB2" d="M65.281 15.783s2.852-5.273 2.975-5.651c.139-.417.873-2.179-.041-5.292-.914-3.111-2.139-3.611-2.139-3.611 2.006 1.333.77 3.904-.146 5.507-.172.299-.348.595-.529.888-.813 1.318-8.17 14.492-8.17 14.492l2.16 3.344 5.89-9.677z"/><path fill="#E6E6E6" d="M63.645 10.686c-.676 1.194-1.471 2.606-2.268 4.024l.668 1.237 1.568 2.576 1.668-2.74s.27-.5.646-1.203c-.806-1.379-1.607-2.746-2.282-3.894z"/><path fill="#F275B3" d="M62.209 15.783s-2.852-5.273-2.975-5.651c-.137-.417-.871-2.179.041-5.292.914-3.111 2.139-3.611 2.139-3.611-2.008 1.333-.77 3.904.146 5.507.172.299.348.595.529.888.813 1.318 8.359 14.234 8.359 14.234l-2.35 3.602-5.889-9.677z"/></svg>