<svg xmlns="http://www.w3.org/2000/svg" width="294" height="40" viewBox="0 0 294 40"><path fill="#211915" d="M110.258 35.522h11.18v-1.456h-2.398c-.086 0-.301-.042-.602-.128a3.15 3.15 0 0 1-.984-.384c-.342-.345-.471-.773-.471-1.587V6.91l9.639 28.613h3.17l9.766-28.655v25.657c0 .386-.17.771-.514 1.031-.256.213-.9.428-1.498.513H135.06v1.456h15.809v-1.456h-2.357c-1.414 0-2.229-.813-2.229-2.1V8.279c0-.942.088-1.241.559-1.541.256-.256.898-.472 1.584-.557h2.484V4.639h-12.852l-7.494 21.847-7.283-21.847h-12.979v1.543h2.355c1.283 0 2.143.813 2.143 2.097v22.833l.041.854c0 1.242-.941 2.1-2.227 2.1h-2.355v1.456h-.001zM151.484 6.053h2.441c.086 0 .344.086.6.172.385.086.729.214.943.384.342.301.469.6.469 1.115v19.575c0 3.513.943 5.525 3.172 6.768 2.012 1.241 5.268 1.97 8.396 1.97 3.551 0 7.066-1.027 8.822-2.483.9-.815 1.627-1.972 1.971-3.385.344-1.158.516-2.615.516-4.155V8.194c0-1.285.898-2.142 2.27-2.142h2.398V4.639h-11.266v1.414h2.398c1.199 0 2.012.9 2.012 2.142v18.034c0 4.884-2.012 6.895-7.066 6.895-3.342 0-5.826-1.156-6.596-3.167-.258-.645-.344-1.502-.344-3.342V8.194c0-1.241.857-2.142 2.186-2.142h2.354V4.639h-15.676v1.414zM184.092 35.522h11.352v-1.456h-2.439c-.043 0-.301-.042-.641-.085-.391-.128-.773-.257-1.031-.428-.385-.345-.516-.687-.516-1.587V10.894l15.723 24.628h4.756V7.68c0-.642.512-1.156 1.455-1.413.258-.042.557-.128.602-.128h2.396v-1.5h-11.051v1.5h2.355c1.326 0 2.184.856 2.184 2.141v19.105L194.674 4.639h-10.537v1.543h2.354c1.287 0 2.188.813 2.188 2.097V31.967c0 1.242-.945 2.1-2.229 2.1h-2.357v1.455h-.001z"/><path fill-rule="evenodd" clip-rule="evenodd" fill="#211915" d="M216.57 35.522h16.619c8.611 0 14.82-6.64 14.82-15.848 0-5.313-2.439-10.025-6.594-12.722-2.486-1.585-5.186-2.314-8.697-2.314H216.57v1.5h2.4c1.285 0 2.141.814 2.141 2.141v23.687c0 .814-.172 1.288-.557 1.63-.256.171-.943.385-1.541.556h-2.443v1.37zm11.18-3.341V7.852c0-1.457.344-1.842 1.67-1.842h3.941c2.184 0 4.285 1.071 5.398 2.783.77 1.244 1.326 2.913 1.67 5.356.215 1.712.342 4.24.342 6.082 0 9.553-2.484 13.965-7.881 13.965h-3.426c-1.286-.001-1.714-.471-1.714-2.015zM250.861 20.102c0 9.468 5.785 15.849 14.393 15.849 8.613 0 14.438-6.38 14.438-15.849 0-4.454-1.328-8.352-3.898-11.351-2.57-3.04-5.996-4.54-10.539-4.54-4.541 0-7.838 1.458-10.58 4.54-2.484 2.87-3.814 6.897-3.814 11.351zm8.012-8.952c.855-3.384 3.039-5.14 6.381-5.14s5.484 1.756 6.428 5.14c.598 2.185.77 4.498.77 8.952 0 4.414-.172 6.683-.77 8.91-.9 3.342-3.086 5.142-6.428 5.142s-5.482-1.799-6.381-5.142c-.643-2.182-.857-4.455-.857-8.91 0-4.498.214-6.724.857-8.952z"/><path fill="#211915" d="M14.309 35.522h27.756l.857-9.936h-1.629c-.643 5.526-4.154 8.566-9.98 8.566H27.03c-1.156 0-1.627-.556-1.627-1.799V19.418h2.229c2.27 0 4.283.514 5.182 1.326.898.856 1.543 2.442 1.543 3.898 0 .257 0 .558-.043.859h1.584V12.006l-1.584-.043v.343c0 3.726-2.355 5.741-6.682 5.741h-2.229V7.508c0-1.155.344-1.498 1.414-1.498H31.1c3.383 0 5.141.514 6.982 2.055 1.369 1.115 2.441 2.785 2.697 4.283.086.385.131.899.172 1.543h1.799l-.727-9.253H14.309v1.5h2.398c1.242 0 2.098.771 2.098 2.099v23.771c0 1.245-.855 2.058-2.141 2.058h-2.355v1.456zM43.375 6.139h2.357c1.328 0 2.184.814 2.184 2.141v23.645c0 .857-.172 1.285-.514 1.63-.301.213-.943.428-1.541.513H43.375v1.456h26.516l.643-12.164h-1.756c-1.027 6.854-4.326 10.794-9.211 10.794h-3.426c-1.158 0-1.672-.556-1.672-1.843V8.279c0-1.285.857-2.141 2.145-2.141h2.398v-1.5H43.375v1.501z"/><g fill="#FFD7F5"><path d="M105.727 26.569a16.329 16.329 0 0 0 1.629-6.423H91.893v6.552h13.77l.064-.129zM90.16 11.454H76.506a16.415 16.415 0 0 0-2.008 6.964H90.16v-6.964zM91.893 11.454v6.964h15.453a16.41 16.41 0 0 0-2.004-6.964H91.893zM90.16 20.146H74.488a16.436 16.436 0 0 0 1.689 6.552H90.16v-6.552zM90.16 28.425H77.172c2.813 4.268 7.557 7.151 12.988 7.399v-7.399zM91.893 9.725h12.346a16.435 16.435 0 0 0-12.346-6.76v6.76zM91.893 28.425v7.388c5.346-.312 10.002-3.173 12.779-7.388H91.893zM90.16 9.725v-6.77c-5.16.234-9.699 2.849-12.551 6.77H90.16z"/></g><path fill="#EA47A8" d="M97.469 7.626s-5.66-4.881-11.313.344c0 0-1.979-7.226 5.607-7.242 7.04-.014 5.706 6.898 5.706 6.898z"/><path fill="#FF8BA3" d="M86.156 7.97a7.745 7.745 0 0 1-.219-1.322 7.71 7.71 0 0 1-.006-1.342c.076-.89.33-1.785.842-2.531.256-.373.572-.704.932-.973a4.883 4.883 0 0 1 1.182-.649c.846-.323 1.75-.447 2.645-.469.895-.018 1.803.063 2.662.342.855.272 1.654.771 2.221 1.478.57.703.904 1.568 1.059 2.45.076.441.109.89.107 1.338a7.844 7.844 0 0 1-.111 1.335c.07-.441.094-.89.088-1.335a7.598 7.598 0 0 0-.131-1.33c-.162-.874-.502-1.726-1.07-2.411a4.334 4.334 0 0 0-.988-.879 5.005 5.005 0 0 0-1.201-.562c-.846-.273-1.744-.35-2.633-.33-.889.019-1.783.139-2.613.455a4.806 4.806 0 0 0-1.164.632 4.149 4.149 0 0 0-.92.95c-.512.729-.771 1.609-.857 2.493a8.055 8.055 0 0 0-.02 1.336c.031.444.09.89.195 1.324z"/><path fill="#ED6BB2" d="M94.141 24.266s4.436-8.205 4.629-8.793c.213-.648 1.357-3.39-.064-8.231-1.42-4.842-3.33-5.62-3.33-5.62 3.123 2.074 1.201 6.073-.225 8.566-.266.466-.543.927-.824 1.384-1.262 2.048-12.711 22.545-12.711 22.545l3.361 5.202 9.164-15.053z"/><path fill="#E6E6E6" d="M91.594 16.336c-1.049 1.856-2.285 4.054-3.525 6.259l1.037 1.925 2.439 4.008 2.596-4.262s.422-.779 1.008-1.873c-1.258-2.145-2.503-4.27-3.555-6.057z"/><path fill="#F275B3" d="M89.361 24.266s-4.436-8.205-4.629-8.793c-.213-.648-1.355-3.39.064-8.231 1.42-4.842 3.328-5.62 3.328-5.62-3.121 2.074-1.199 6.073.227 8.566.268.466.543.927.824 1.384 1.262 2.048 13.006 22.144 13.006 22.144l-3.656 5.603-9.164-15.053z"/></svg>