<svg xmlns="http://www.w3.org/2000/svg" width="150" height="60" viewBox="-79.258 -49.938 150 60"><path fill="#FFF" d="M-79.258-49.938h150v60h-150z"/><g fill="#7E2983"><path d="M-26.92-23.767l.846.138-3.082 9.649h-27.146v-.976h1.26c1.545 0 2.521-.423 3.221-1.399.415-.561.562-1.817.562-3.777V-42.94c0-2.244-.285-3.639-.7-4.196-.707-.699-1.69-1.126-3.082-1.126h-1.26v-.976h15.948v.984c-1.822 0-3.221.142-3.92.561-.7.415-1.253.834-1.537 1.391-.285.561-.415 1.818-.415 3.92v22.108c0 1.403.146 2.375.415 2.936.146.423.561.707.983.842.431.134 1.813.284 4.059.284h2.513c2.667 0 4.619-.143 5.741-.562 1.115-.415 2.099-1.114 2.944-2.098.829-1.118 1.674-2.663 2.65-4.895zM-5.514-49.938c4.611 0 8.531 1.675 11.905 5.18 3.351 3.501 5.019 7.828 5.019 13.016 0 5.311-1.668 9.792-5.019 13.285-3.374 3.501-7.425 5.307-12.32 5.307-4.903 0-8.954-1.675-12.175-5.165C-21.463-21.807-23-26.154-23-31.741c0-5.596 1.96-10.215 5.733-13.72 3.221-2.935 7.133-4.477 11.753-4.477zm-.415 1.818c-3.221 0-5.741 1.118-7.556 3.493-2.375 2.944-3.505 7.148-3.505 12.736 0 5.737 1.261 10.214 3.636 13.292 1.821 2.379 4.343 3.497 7.417 3.497 3.358 0 6.01-1.253 8.255-3.912 2.09-2.521 3.212-6.721 3.212-12.178 0-6.01-1.13-10.491-3.497-13.435-2.09-2.232-4.604-3.493-7.962-3.493zM45.42-49.938l.837 12.032h-.837c-1.122-3.636-2.667-6.153-4.619-7.698-1.96-1.533-4.335-2.375-7.133-2.375-2.383 0-4.481.558-6.295 1.818-1.813 1.126-3.366 3.078-4.474 5.738-1.13 2.659-1.683 5.879-1.683 9.657 0 3.216.553 5.879 1.537 8.254.969 2.379 2.514 4.196 4.619 5.315 2.099 1.256 4.335 1.817 6.994 1.817 2.244 0 4.335-.431 6.019-1.402 1.683-.984 3.635-2.937 5.741-5.88l.822.561c-1.807 3.074-3.767 5.461-6.148 6.86-2.383 1.398-5.173 2.229-8.386 2.229-5.88 0-10.36-2.091-13.581-6.429-2.383-3.221-3.644-6.998-3.644-11.333 0-3.493.846-6.714 2.391-9.657 1.529-2.936 3.767-5.18 6.426-6.856 2.798-1.668 5.741-2.367 9.092-2.367 2.521 0 5.042.557 7.563 1.818.691.415 1.261.557 1.537.557.415 0 .83-.142 1.261-.557.415-.427.691-1.126.976-1.96h.977v-.142h.008z"/><g><path d="M-64.557 9.11h.146c.554 0 .83-.146 1.115-.293.284-.139.415-.545.415-.822l1.675-8.254v-.438c0-.415-.415-.691-1.253-.691h-.276l.139-.707h5.18l-.138.707h-.285c-.561 0-.983.146-1.122.276-.138.146-.415.415-.415.854l-1.96 9.37h3.359c.838 0 1.406-.562 1.821-1.537l.415-1.262h.846l-.846 3.49h-8.954l.138-.693zM-47.91 7.288c-.977 1.822-1.96 2.66-3.213 2.66-.699 0-1.261-.27-1.545-.838-.276-.555-.553-1.262-.553-2.23 0-1.537.415-2.935 1.398-4.333.983-1.399 2.099-1.968 3.497-1.968.699 0 1.398.138 1.96.568l.699-.438h.554l-1.114 5.319c-.139.838-.285 1.406-.285 1.82 0 .555.146.83.562.83.284 0 .699-.139 1.261-.414l.276.553c-.838.707-1.537.984-2.383.984-.83 0-1.253-.416-1.253-1.398.008-.131.139-.555.139-1.115zm.983-5.327c-.284-.415-.699-.545-1.26-.545-.984 0-1.814.545-2.375 1.806-.562 1.261-.984 2.521-.984 3.781 0 1.262.423 1.961 1.122 1.961.562 0 1.122-.424 1.822-1.254.699-.844.983-1.689 1.26-2.666l.415-3.083zM-34.198.562c.983 0 1.813.292 2.375.846.561.553.845 1.398.845 2.521 0 1.537-.43 2.798-1.406 4.058-.976 1.26-2.091 1.814-3.628 1.814-.983 0-1.813-.27-2.375-.984-.568-.691-.853-1.383-.853-2.506 0-1.537.431-2.797 1.406-4.058C-36.85.993-35.59.562-34.198.562zm-1.537 8.548c.976 0 1.675-.562 2.236-1.691a8.108 8.108 0 0 0 .838-3.627c0-1.538-.554-2.383-1.676-2.383-.983 0-1.676.553-2.236 1.675-.562 1.123-.838 2.398-.838 3.66 0 1.673.561 2.366 1.676 2.366zM-25.244 8.547l.284.562c-.699.568-1.537.838-2.236.838-1.261 0-1.814-.701-1.814-1.953 0-.422 0-.838.139-1.398l.976-4.904h-1.26l.146-.699c1.122 0 1.96-.83 2.514-2.383h.838l-.415 2.099h2.098l-.146.983h-2.099l-.976 4.757c-.139.691-.139 1.123-.139 1.398 0 .555.284.969.838.969.422.155.837.001 1.252-.269zM-17.543 3.091c0-.838-.284-1.253-.707-1.253-.554 0-1.114.554-1.676 1.53-.554.984-.983 2.244-1.261 3.498l-.553 2.936h-1.545l1.398-6.71c0-.269.146-.545.146-.699 0-.554-.431-.83-1.407-.83h-.138l.138-.707h2.944l-.423 2.367h.146c.415-.969.838-1.676 1.253-2.091.423-.43.984-.568 1.537-.568.984 0 1.399.431 1.399 1.13.148.982-.267 1.397-1.251 1.397zM-10.41 7.288c-.984 1.822-1.96 2.66-3.221 2.66-.699 0-1.253-.27-1.529-.838-.277-.555-.562-1.262-.562-2.23 0-1.537.415-2.935 1.399-4.333.983-1.399 2.105-1.968 3.497-1.968.699 0 1.398.138 1.959.568l.7-.438h.561l-1.13 5.319c-.138.838-.269 1.406-.269 1.82 0 .555.138.83.553.83.285 0 .7-.139 1.261-.414l.284.553c-.853.715-1.552.984-2.382.984-.846 0-1.261-.416-1.261-1.398.001-.131.001-.555.14-1.115zm.976-5.327c-.276-.415-.699-.545-1.261-.545-.983 0-1.813.545-2.375 1.806-.561 1.261-.983 2.521-.983 3.781 0 1.262.415 1.961 1.122 1.961.554 0 1.122-.424 1.813-1.254.692-.844.977-1.689 1.261-2.666l.423-3.083zM4.278 7.709c.146.139.146.285.146.432 0 .414-.276.83-.83 1.26-.569.416-1.262.547-2.106.547-.977 0-1.822-.27-2.383-.977-.554-.699-.838-1.398-.838-2.521 0-1.398.415-2.79 1.398-4.058C.642 1.147 1.756.563 3.301.563c.838 0 1.398.146 1.821.431.415.276.693.698.693 1.121 0 .276-.146.561-.423.83-.27.276-.692.276-1.114.276 0-.546-.139-1.114-.277-1.398-.138-.277-.7-.407-1.123-.407-.838 0-1.398.545-2.105 1.806-.7 1.261-.83 2.259-.83 3.375 0 1.529.561 2.221 1.806 2.221 1.129.153 1.836-.271 2.529-1.109zM12.255 3.091c0-.838-.269-1.253-.699-1.253-.554 0-1.114.554-1.684 1.53-.553.984-.975 2.244-1.26 3.498l-.545 2.935H6.522L7.92 3.083c0-.276.146-.553.146-.699 0-.561-.431-.838-1.407-.838h-.137L6.66.855h2.937l-.416 2.367h.138c.423-.969.838-1.676 1.261-2.091.423-.422.977-.568 1.537-.568.977 0 1.399.431 1.399 1.13.145.983-.277 1.398-1.261 1.398zM19.257.562c.983 0 1.813.292 2.383.846.553.553.838 1.398.838 2.521 0 1.537-.431 2.798-1.407 4.058-.976 1.254-2.098 1.814-3.635 1.814-.984 0-1.814-.277-2.383-.984-.562-.691-.838-1.398-.838-2.514 0-1.545.431-2.79 1.406-4.065.977-1.26 2.23-1.676 3.636-1.676zM17.712 9.11c.983 0 1.676-.562 2.236-1.691.562-1.115.83-2.375.83-3.627 0-1.538-.546-2.383-1.676-2.383-.983 0-1.675.553-2.244 1.675a8.379 8.379 0 0 0-.822 3.644c0 1.689.562 2.382 1.676 2.382zm.984-9.654c.692-.7 1.253-1.537 1.814-2.521h1.806v.154A12.013 12.013 0 0 1 19.38-.406h-.692v-.138h.008zM25.552 9.801h-1.545l1.406-6.718c0-.276.146-.553.146-.699 0-.561-.423-.838-1.122-.838h-.146l.146-.691h3.074l-.415 2.091h.138C28.072 1.417 29.186.71 30.308.71c1.261 0 1.822.561 1.822 1.821 0 .415-.139.983-.284 1.814l-.415 1.959c-.146.699-.277 1.262-.277 1.822 0 .553.139.83.554.83.284 0 .707-.154 1.122-.422l.276.561c-.691.691-1.398.969-2.09.969-.438 0-.846-.139-1.13-.416-.285-.277-.423-.699-.423-1.26 0-.555.146-1.246.284-2.229l.415-1.676c.139-.692.276-1.261.276-1.538 0-.692-.276-.984-.83-.984-.561 0-1.253.431-1.968 1.261-.691.846-1.114 1.691-1.252 2.521l-.836 4.058zM34.36 1.546l.139-.691h3.09l-1.122 5.449c-.146.838-.285 1.406-.285 1.822 0 .553.146.83.562.83.276 0 .699-.154 1.261-.422l.276.561c-.838.691-1.537.969-2.244.969-.415 0-.691-.139-.969-.416-.284-.277-.431-.699-.431-1.121 0-.555.146-1.4.431-2.66l.692-3.075v-.43c0-.431-.277-.7-.977-.7h-.423v-.116zm2.659-2.367c-.553 0-.983-.276-.983-.983 0-.423.146-.699.284-.83.146-.139.423-.276.699-.276.562 0 .984.276.984.976 0 .423-.146.699-.285.838-.13.129-.422.275-.699.275zM45.143 7.709c.139.139.139.285.139.432 0 .414-.276.83-.83 1.26-.562.416-1.261.547-2.106.547-.983 0-1.813-.27-2.382-.977-.554-.699-.838-1.398-.838-2.521 0-1.398.431-2.79 1.406-4.058.977-1.245 2.099-1.813 3.636-1.813.838 0 1.398.138 1.813.423.423.284.699.699.699 1.13 0 .269-.138.553-.415.83-.284.276-.707.276-1.122.276 0-.554-.146-1.122-.276-1.399-.146-.276-.562-.553-.983-.553-.838 0-1.399.553-2.106 1.806-.699 1.261-.83 2.39-.83 3.505 0 1.529.554 2.221 1.807 2.221.843.153 1.689-.271 2.388-1.109zM52.698 7.288c-.977 1.822-1.96 2.66-3.221 2.66-.691 0-1.261-.27-1.537-.838-.276-.555-.554-1.262-.554-2.23 0-1.537.423-2.935 1.407-4.333.976-1.399 2.09-1.968 3.481-1.968.715 0 1.406.138 1.968.568l.691-.438h.554l-1.114 5.319c-.146.838-.285 1.406-.285 1.82 0 .555.146.83.562.83.276 0 .699-.139 1.261-.414l.269.553c-.83.707-1.529.984-2.383.984-.822 0-1.253-.416-1.253-1.398.008-.131.008-.555.154-1.115zm.976-5.327c-.276-.415-.691-.545-1.26-.545-.977 0-1.814.545-2.375 1.806-.569 1.261-1.122 2.521-1.122 3.781 0 1.262.415 1.961 1.122 1.961.553 0 1.122-.424 1.813-1.254.691-.844.977-1.689 1.261-2.666l.561-3.083z"/></g></g></svg>