<svg xmlns="http://www.w3.org/2000/svg" width="74.167" height="20.667" viewBox="0 8.833 74.167 20.667"><g fill="#DD0D1D"><path d="M9.055 26.656l-3.104-8.883v7.245h1.121v4.484H0v-4.484h1.121V13.46H0V8.977h6.726l2.416 6.986 2.501-6.986h6.553v4.483h-1.121v11.558h1.121v4.484h-6.985v-4.484h1.122v-7.245zM29.667 8.977l2.587 16.041h.863v4.484h-6.47v-4.484h.864v-1.725h-3.019v1.725h.863v4.484h-6.469v-4.484h.863l2.587-16.041h7.331zm-2.674 11.642l-1.035-6.381-1.036 6.381h2.071zM54.589 13.46v4.054h4.659v-6.382l-2.156-2.155h-6.813l-2.156 2.155v16.214l2.156 2.156h6.813l2.156-2.156V21.05h-4.659v3.968h-1.551V13.46h1.551zM41.394 29.502v-8.193h-1.551v3.622h.863v4.484h-7.073v-4.484h1.122V13.46h-1.122V8.977h10.608l2.155 2.155v6.469l-1.724 1.726 1.724 1.724v3.968h1.122v4.484h-6.124v-.001zM39.843 13.46v4.744h1.551V13.46h-1.551zM70.717 8.977l2.586 16.041h.863v4.484h-6.469v-4.484h.863v-1.725h-3.018v1.725h.863v4.484h-6.469v-4.484h.863l2.588-16.041h7.33zm-2.673 11.642l-1.035-6.381-1.036 6.381h2.071z"/></g></svg>