<svg xmlns="http://www.w3.org/2000/svg" xmlns:xlink="http://www.w3.org/1999/xlink" width="293.497" height="60.4" viewBox="0 0 293.497 60.4"><g fill="#FFF"><path d="M109.144 27.205c2.643-1.596 1.629-4.935-.41-5.526-2.252-.653-3.906.994-4.057 2.772-.168 2.01 2.069 4.205 4.467 2.754z"/><path d="M125.346 24.888c-5.149.074-7.118 3.295-8.55 5.756-1.354 2.33-3.203 5.443-5.018 8.27-1.814 2.828-4.096 3.92-3.6-3.539.289-4.318.486-5.137-1.621-5.137-1.844 0-2.168.984-5.701 5.506-1.943 2.49-3.858 5.248-6.692 5.375-2.907.131-5.685-6.947-5.685-6.947-.531.102 6.434-1.189 10.318-6.254 3.645-4.75 2.187-15.019-9.596-12.971-8.333 1.441-13.067 8.865-13.74 16.811-.246 2.924.446 9.922.835 11.527.388 1.605 1.761 2.529 3.354 1.332 2.574-1.938 1.95-2.908 1.495-5.053-1.385-6.543-2.597-13.479 2.438-17.968 3.551-3.158 11.169-3.301 12.43 1.336 1.486 5.474-5.801 7.048-9.252 7.537-3.533.494-3.754 2.898-3.047 5.002.711 2.105.941 2.754 3.066 6.398 3.551 6.09 9.289 3.607 11.33 1.465 1.779-1.861 5.434-6.371 5.434-6.371s-.424 2.918.158 5.424c.928 3.969 4.344 4.041 7.455 1.826 1.868-1.328 4.891-6.609 4.891-6.609s2.041 8.117 8.881 8.117c5.182 0 8.584-4.906 8.975-9.365.459-5.229-3.012-11.55-8.558-11.468zm2.671 15.664c-2.32 1.441-5.211-1.445-6.554-3.975-1.583-2.979-1.313-5.867.39-6.705 1.639-.803 4.363.18 6.219 3.049 1.504 2.329 2.203 6.224-.055 7.631zM164.74 24.834c-4.981-.188-8.045 3.085-9.805 6.101-1.515 2.588-.86 3.646-2.063 5.77-1.115 1.975-4.244 4.574-8.353 4.398-3.4-.145-4.01-2.396-1.59-4.395 3.084-2.545 10.403-8.918 10.897-13.768.437-4.287-2.197-7.977-6.833-8.049-4.99-.08-8.628 2.478-9.77 4.668-.852 1.636.578 3.61 2.764 1.947 2.637-2.01 6.109-2.994 8.396-.333 2.384 2.778-.422 6.671-4.653 10.396-3.318 2.918-7.619 6.146-7.147 9.768.575 4.385 6.271 5.211 10.509 3.521 4.694-1.879 7.146-4.861 7.146-4.861s2.104 5.455 7.558 5.678c6.683.271 11.351-5.723 11.351-11.547-.001-4.284-3.304-9.101-8.407-9.294zm2.471 15.264c-2.569 1.754-6.047.689-7.896-1.904-1.938-2.736-1.92-5.971 0-7.654 1.896-1.658 5.457-1.438 7.826 1.5 2.19 2.71 2.136 6.653.07 8.058zM198.62 27.965c-4.019 0-5.81 1.262-7.347 2.242 1.567-5.705 5.924-8.408 7.526-9.42 1.604-1.006 3.201-1.863 3.455-3.366.371-2.209-1.487-1.923-2.563-1.366-1.108.575-4.047 1.859-7.969 6.2-4.486 4.972-4.992 10.878-4.992 10.878s-1.14 1.17-2.418 2.592c-1.287 1.428-2.424 2.924-2.424 2.924s-.033-10.971-.033-13.357c-.002-1.572-1.262-1.652-2.615-.878 0 0-3.204 1.753-4.241 2.747-1.037.996-.272 2.148.563 2.502.846.355 1.944-.354 1.944-.354s-.039 12.746-.039 14.346c0 2.426 1.722 1.893 2.789.836 1.068-1.061 4.726-5.055 6.634-7.002 1.002 3.838 3.985 8.088 9.106 8.197 5.125.105 10.19-4.291 10.19-10.021.005-4.919-3.811-7.7-7.566-7.7zm2.778 11.373c-1.383 2.201-5.099 1.918-7.131.201-2.963-2.502-2.963-5.396-2.963-5.396s3.641-2.277 6.924-1.188c3.144 1.039 4.49 4.275 3.17 6.383z"/></g><path fill="#FCB131" d="M245.409 36.17a9.14 9.14 0 0 1-9.087 8.041c-5.002 0-9.09-4.045-9.09-9.057 0-3.807 2.379-7.07 5.738-8.396.118-.485.184-.968.184-1.511v-.423c-4.516 1.327-7.752 5.497-7.752 10.331 0 6.035 4.882 10.867 10.92 10.867 5.609 0 10.248-4.168 10.859-9.543-.611-.055-1.222-.12-1.772-.309M235.833 26.151h.489c4.394 0 8.048 3.08 8.906 7.125.67.246 1.281.424 1.953.484-.672-5.311-5.31-9.421-10.859-9.421h-.489c.063.302.063.609.063.906-.002.307-.002.604-.063.906"/><path fill="#0081C4" d="M224.917 35.154c0-.305 0-.607.061-.912h-.482c-5.064 0-9.152-4.043-9.152-8.996 0-5.014 4.088-9.058 9.152-9.058 4.998 0 9.082 4.044 9.082 9.058 0 3.81-2.375 7.066-5.793 8.4-.063.479-.123 1.02-.123 1.508v.479c4.516-1.391 7.75-5.494 7.75-10.386 0-5.979-4.885-10.868-10.916-10.868-6.104 0-10.98 4.891-10.98 10.868 0 5.98 4.879 10.812 10.98 10.812h.482c-.061-.303-.061-.604-.061-.905"/><path d="M239.125 24.222a9.146 9.146 0 0 1 9.092-8.033c5 0 9.086 4.044 9.086 9.058 0 3.81-2.377 7.066-5.732 8.4a6.368 6.368 0 0 0-.182 1.508v.479c4.51-1.391 7.746-5.494 7.746-10.386 0-5.979-4.883-10.868-10.918-10.868-5.611 0-10.25 4.167-10.857 9.545.605.054 1.223.174 1.765.297M248.642 35.154c0-.305 0-.607.063-.912h-.488c-4.395 0-8.053-3.016-8.965-7.127-.613-.238-1.223-.357-1.895-.479.672 5.313 5.309 9.422 10.855 9.422h.488c-.058-.302-.058-.603-.058-.904"/><path fill="#00A261" d="M269.138 36.17a9.142 9.142 0 0 1-9.091 8.041c-4.998 0-9.09-4.045-9.09-9.057 0-3.807 2.383-7.07 5.731-8.396.123-.485.188-.968.188-1.511v-.423c-4.515 1.327-7.748 5.497-7.748 10.331 0 6.035 4.882 10.867 10.918 10.867 5.613 0 10.25-4.168 10.854-9.543-.603-.055-1.215-.12-1.762-.309M259.625 25.247c0 .307 0 .604-.063.904h.485a9.185 9.185 0 0 1 8.966 7.185c.608.188 1.221.363 1.891.426-.67-5.309-5.305-9.421-10.854-9.421h-.485c.06.299.06.609.06.906"/><path fill="#EE334E" d="M271.949 14.378c-5.614 0-10.252 4.167-10.862 9.54.61.063 1.22.183 1.769.306a9.146 9.146 0 0 1 9.097-8.033c5 0 9.086 4.044 9.086 9.058 0 4.953-4.086 8.996-9.086 8.996-4.396 0-8.062-3.016-8.97-7.127-.61-.238-1.223-.356-1.896-.479.673 5.313 5.304 9.422 10.863 9.422 6.03 0 10.913-4.83 10.913-10.812 0-5.981-4.883-10.871-10.914-10.871"/><g><path fill="#FFF" d="M47.862 47.922l-.74-.813c-2.115-2.329-4.289-4.466-5.674-5.578-1.915-1.543-3.468-2.261-4.891-2.261-.73 0-1.487.189-2.313.582l-.996.473-1.213.91c-.422.315-.853.664-1.299 1.044l-.959.821c-1.292 1.11-2.629 2.262-4.074 3.261l-.203.139-.23.087c-3.17 1.193-6.004.739-7.867-1.181-.652-.673-1.163-1.501-1.516-2.463l3.686-1.544c.21.445.314.524.325.533 0 0 .053.022.197.026.834 0 3.099-1.295 6.387-6.147l1.316-1.942 1.696 1.595a57.968 57.968 0 0 0-.749-1.203l-.641-1.001.573-1.041c.675-1.229 1.247-2.414 1.609-3.342 2.553-6.535 2.331-13.81 1.144-14.474-1.082-.24-2.289.343-4.269 2.157l-2.748-2.906c1.371-1.378 2.828-2.501 4.365-3.373 1.306-.745 2.522-1.11 3.713-1.113 1.073 0 2.089.302 3.023.895l.273.208c1.963 1.783 2.863 4.987 3.144 7.843a3.616 3.616 0 0 1 1.534.038c1.047.257 1.89.896 2.377 1.805a4.05 4.05 0 0 1 .461 1.727c.331.005.575.018 1.003.039l.182.01c2.444.115 4.559.439 6.651 1.021.486.133 1.019.309 1.573.521l.17.074c4.488 2.21 8.611 6.915 7.808 11.634l-3.97-.408c.104-2.868-4.079-5.061-7.083-5.702a14.417 14.417 0 0 0-2.904-.295c-.831 0-4.986.111-5.209 2.312-.132 1.274 1.246 3.487 4.582 5.343 2.718 1.508 6.066 2.482 8.528 2.482l2.465-.023-.397 2.417c-.279 1.389-.958 2.635-2.075 3.811-1.389 1.457-3.302 2.405-5.687 2.821l-1.078.181zm-1.09-6.953c.804.79 1.66 1.668 2.516 2.585.898-.267 1.636-.655 2.206-1.166a24.876 24.876 0 0 1-4.722-1.419zm-10.214-5.701c.919 0 1.833.147 2.762.453-1.309-1.692-1.949-3.513-1.769-5.247.216-2.128 1.447-3.764 3.479-4.768a2.238 2.238 0 0 1-1.643-.963 2.235 2.235 0 0 1-.354-1.569c-.474.666-1.168 1.06-1.93 1.06h-.897l-.396-.41c-.402 2.281-1.028 4.548-1.793 6.508a30.26 30.26 0 0 1-1.274 2.77c.329.538.654 1.083.981 1.634l.512.858a8.496 8.496 0 0 1 2.322-.326z"/><defs><path id="a" d="M47.862 47.922l-.74-.813c-2.115-2.329-4.289-4.466-5.674-5.578-1.915-1.543-3.468-2.261-4.891-2.261-.73 0-1.487.189-2.313.582l-.996.473-1.213.91c-.422.315-.853.664-1.299 1.044l-.959.821c-1.292 1.11-2.629 2.262-4.074 3.261l-.203.139-.23.087c-3.17 1.193-6.004.739-7.867-1.181-.652-.673-1.163-1.501-1.516-2.463l3.686-1.544c.21.445.314.524.325.533 0 0 .053.022.197.026.834 0 3.099-1.295 6.387-6.147l1.316-1.942 1.696 1.595a57.968 57.968 0 0 0-.749-1.203l-.641-1.001.573-1.041c.675-1.229 1.247-2.414 1.609-3.342 2.553-6.535 2.331-13.81 1.144-14.474-1.082-.24-2.289.343-4.269 2.157l-2.748-2.906c1.371-1.378 2.828-2.501 4.365-3.373 1.306-.745 2.522-1.11 3.713-1.113 1.073 0 2.089.302 3.023.895l.273.208c1.963 1.783 2.863 4.987 3.144 7.843a3.616 3.616 0 0 1 1.534.038c1.047.257 1.89.896 2.377 1.805a4.05 4.05 0 0 1 .461 1.727c.331.005.575.018 1.003.039l.182.01c2.444.115 4.559.439 6.651 1.021.486.133 1.019.309 1.573.521l.17.074c4.488 2.21 8.611 6.915 7.808 11.634l-3.97-.408c.104-2.868-4.079-5.061-7.083-5.702a14.417 14.417 0 0 0-2.904-.295c-.831 0-4.986.111-5.209 2.312-.132 1.274 1.246 3.487 4.582 5.343 2.718 1.508 6.066 2.482 8.528 2.482l2.465-.023-.397 2.417c-.279 1.389-.958 2.635-2.075 3.811-1.389 1.457-3.302 2.405-5.687 2.821l-1.078.181zm-1.09-6.953c.804.79 1.66 1.668 2.516 2.585.898-.267 1.636-.655 2.206-1.166a24.876 24.876 0 0 1-4.722-1.419zm-10.214-5.701c.919 0 1.833.147 2.762.453-1.309-1.692-1.949-3.513-1.769-5.247.216-2.128 1.447-3.764 3.479-4.768a2.238 2.238 0 0 1-1.643-.963 2.235 2.235 0 0 1-.354-1.569c-.474.666-1.168 1.06-1.93 1.06h-.897l-.396-.41c-.402 2.281-1.028 4.548-1.793 6.508a30.26 30.26 0 0 1-1.274 2.77c.329.538.654 1.083.981 1.634l.512.858a8.496 8.496 0 0 1 2.322-.326z"/></defs><clipPath id="b"><use xlink:href="#a" overflow="visible"/></clipPath><g clip-path="url(#b)"><path fill="#FFF" d="M38.504 69.157l-41.051-40.73L38.602-12.23l41.053 40.732-41.151 40.655zM3.139 28.431L38.51 63.528l35.459-35.03L38.596-6.601 3.139 28.431z"/></g><g><path fill="#FFF" d="M19.346 48.379c-3.487 0-6.354-1.795-7.866-4.924-1.373-3.167-1.734-6.659-1.137-10.75 1.173-8.121 6.417-16.6 13.046-21.096 2.539-1.722 4.909-2.649 7.246-2.836 2.02-.165 3.765.326 5.1 1.443L33.38 13.44c-.739-.47-1.481-.33-2.62.317-2.526 1.434-4.777 3.737-6.365 6.445 2.039.688 2.911 2.8 2.163 5.272-.027.09-.055.175-.082.255 3.451 2.622 5.378 5.86 7.248 9.002.431.724.867 1.457 1.329 2.195.3.481.6.937.901 1.362l3.137-1.18-2.659 1.836c1.168 1.546 2.35 2.693 3.581 3.482a9.453 9.453 0 0 0 3.033 1.245l-.801 3.918c-2.242-.411-4.423-1.146-6.141-2.069-1.454-.784-2.969-1.793-4.671-3.122l-5.729 3.957c-1.859 1.287-4.176 2.024-6.358 2.024zm3.211-12.954c-.169 0-.354.023-.563.072-1.892.35-2.806 2.775-2.619 4.835.099 1.091.561 2.921 2.54 2.921.567 0 1.222-.139 1.946-.411l5.553-2.089a93.933 93.933 0 0 1-2.138-1.881c-2.453-2.356-3.7-3.447-4.719-3.447zm-2.972-14.524c-2.713 3.7-4.672 8.146-5.284 12.378-.487 3.338-.22 6.121.815 8.511.225.466.489.852.778 1.169a8.754 8.754 0 0 1-.503-2.265c-.349-3.84 1.563-8.339 5.793-9.113a6.087 6.087 0 0 1 1.372-.156c2.567 0 4.462 1.665 6.938 4.033-1.667-2.748-3.323-5.142-6.178-7.07-1.044-.724-1.244-1.573-1.23-2.163.029-.706.288-1.158.427-1.401.053-.093.099-.171.15-.309-.324.361-.839.749-1.613.749h-.784l-.493-.432c-.589-.427-1.181-1.313-.521-3.093.105-.281.216-.561.333-.838z"/><defs><path id="c" d="M19.346 48.379c-3.487 0-6.354-1.795-7.866-4.924-1.373-3.167-1.734-6.659-1.137-10.75 1.173-8.121 6.417-16.6 13.046-21.096 2.539-1.722 4.909-2.649 7.246-2.836 2.02-.165 3.765.326 5.1 1.443L33.38 13.44c-.739-.47-1.481-.33-2.62.317-2.526 1.434-4.777 3.737-6.365 6.445 2.039.688 2.911 2.8 2.163 5.272-.027.09-.055.175-.082.255 3.451 2.622 5.378 5.86 7.248 9.002.431.724.867 1.457 1.329 2.195.3.481.6.937.901 1.362l3.137-1.18-2.659 1.836c1.168 1.546 2.35 2.693 3.581 3.482a9.453 9.453 0 0 0 3.033 1.245l-.801 3.918c-2.242-.411-4.423-1.146-6.141-2.069-1.454-.784-2.969-1.793-4.671-3.122l-5.729 3.957c-1.859 1.287-4.176 2.024-6.358 2.024zm3.211-12.954c-.169 0-.354.023-.563.072-1.892.35-2.806 2.775-2.619 4.835.099 1.091.561 2.921 2.54 2.921.567 0 1.222-.139 1.946-.411l5.553-2.089a93.933 93.933 0 0 1-2.138-1.881c-2.453-2.356-3.7-3.447-4.719-3.447zm-2.972-14.524c-2.713 3.7-4.672 8.146-5.284 12.378-.487 3.338-.22 6.121.815 8.511.225.466.489.852.778 1.169a8.754 8.754 0 0 1-.503-2.265c-.349-3.84 1.563-8.339 5.793-9.113a6.087 6.087 0 0 1 1.372-.156c2.567 0 4.462 1.665 6.938 4.033-1.667-2.748-3.323-5.142-6.178-7.07-1.044-.724-1.244-1.573-1.23-2.163.029-.706.288-1.158.427-1.401.053-.093.099-.171.15-.309-.324.361-.839.749-1.613.749h-.784l-.493-.432c-.589-.427-1.181-1.313-.521-3.093.105-.281.216-.561.333-.838z"/></defs><clipPath id="d"><use xlink:href="#c" overflow="visible"/></clipPath><g clip-path="url(#d)"><path fill="#FFF" d="M38.834 61.754L-4.49 43.283 15.614-2.942 58.94 15.533 38.834 61.754zM.786 41.183L36.75 56.517l16.915-38.886L17.698 2.295.786 41.183z"/></g></g><g><path fill="#FFF" d="M50.116 52.603l-.22-.001c-6.139-.081-12.211-2.942-17.099-8.059a333.576 333.576 0 0 0-5.59-5.737l2.754-2.899c3.325 3.011 5.804 4.891 8.037 6.096 2.213 1.19 5.407 1.961 8.134 1.961 1.771 0 4.181-.313 5.602-1.808 1.274-1.339 1.185-2.336 1.06-3.715-.115-1.268-.271-3.001 1.141-4.467a3.496 3.496 0 0 1 2.755-1.083c-.495-2.129-2.67-4.533-5.568-5.959l1.532-3.688c6.136 2.104 12.479 8.692 12.473 16.077-.008 8.314-7.638 13.282-15.011 13.282zm-4.567-4.648c1.452.409 2.926.628 4.4.647l.167.001c5.408 0 11.005-3.474 11.01-9.284.001-1.161-.236-2.321-.657-3.442-.502 1.42-1.459 1.748-2.233 1.748-.675 0-1.205-.299-1.514-.52-.008.218.016.535.056.977.15 1.664.378 4.181-2.145 6.831-1.999 2.1-5.173 3.152-9.084 3.042z"/><defs><path id="e" d="M50.116 52.603l-.22-.001c-6.139-.081-12.211-2.942-17.099-8.059a333.576 333.576 0 0 0-5.59-5.737l2.754-2.899c3.325 3.011 5.804 4.891 8.037 6.096 2.213 1.19 5.407 1.961 8.134 1.961 1.771 0 4.181-.313 5.602-1.808 1.274-1.339 1.185-2.336 1.06-3.715-.115-1.268-.271-3.001 1.141-4.467a3.496 3.496 0 0 1 2.755-1.083c-.495-2.129-2.67-4.533-5.568-5.959l1.532-3.688c6.136 2.104 12.479 8.692 12.473 16.077-.008 8.314-7.638 13.282-15.011 13.282zm-4.567-4.648c1.452.409 2.926.628 4.4.647l.167.001c5.408 0 11.005-3.474 11.01-9.284.001-1.161-.236-2.321-.657-3.442-.502 1.42-1.459 1.748-2.233 1.748-.675 0-1.205-.299-1.514-.52-.008.218.016.535.056.977.15 1.664.378 4.181-2.145 6.831-1.999 2.1-5.173 3.152-9.084 3.042z"/></defs><clipPath id="f"><use xlink:href="#e" overflow="visible"/></clipPath><g clip-path="url(#f)"><path fill="#FFF" d="M65.133 52.69H26.619V23.137h38.514V52.69zm-34.514-4h30.514V27.137H30.619V48.69z"/></g></g><g><defs><path id="g" d="M20.042 43.958c-1.282-.035-1.835-.771-2.276-1.705.246.67.602 1.273 1.074 1.761 1.176 1.213 3.063 1.702 5.727.7 1.709-1.182 3.32-2.643 4.873-3.959.479-.407.943-.78 1.396-1.121a210.082 210.082 0 0 0-2.217-2.243c-.164-.156-.323-.312-.479-.457-2.51 3.703-5.626 7.088-8.098 7.024m9.727-31.938c-1.416.803-2.729 1.832-3.901 3.01-.017.02-.034.035-.054.055 2.001-1.834 3.91-3.131 6.082-2.627 3.504.813 2.803 10.627.257 17.146-.378.967-.973 2.219-1.72 3.576.988 1.543 1.893 3.161 2.922 4.809l.033.055c2.959-1.403 5.705-.979 9.313 1.927 1.447 1.161 3.697 3.364 5.902 5.793 1.805-.314 3.422-1.015 4.58-2.229.951-1 1.387-1.943 1.564-2.826-2.859.027-6.562-1.045-9.607-2.733-3.711-2.063-5.849-4.888-5.6-7.293.42-4.136 6.68-4.591 10.52-3.771 3.595.769 8.818 3.498 8.664 7.73.616-3.613-2.76-7.556-6.719-9.504a14.282 14.282 0 0 0-1.395-.461c-1.857-.517-3.787-.837-6.217-.951-.816-.041-.955-.054-1.899-.047-.341 0-1.075.051-1.212.043-.216-.011-.342-.105-.228-.433.564-1.576.224-2.883-1.058-3.197-1.268-.309-2.121.98-2.469 1.703-.221.479-.663.716-.57-.084.354-3.141-.412-8.057-2.51-9.963a3.574 3.574 0 0 0-1.947-.582c-.872.003-1.78.311-2.731.854"/></defs><clipPath id="h"><use xlink:href="#g" overflow="visible"/></clipPath><radialGradient id="i" cx="-1230.233" cy="437.37" r=".61" gradientTransform="matrix(27.4737 27.2621 27.5339 -27.2024 21793.31 45463.055)" gradientUnits="userSpaceOnUse"><stop offset="0" stop-color="#ffd400"/><stop offset=".169" stop-color="#fdc605"/><stop offset=".485" stop-color="#f9a214"/><stop offset=".725" stop-color="#f58220"/><stop offset=".849" stop-color="#f36d21"/><stop offset="1" stop-color="#f04e23"/></radialGradient><path clip-path="url(#h)" fill="url(#i)" d="M38.599-9.415l38.213 37.916-38.305 37.843L.296 28.428z"/><g><defs><path id="j" d="M30.794 10.766c-2.25.18-4.339 1.18-6.283 2.498-6.186 4.194-11.109 12.254-12.189 19.729-.479 3.285-.346 6.578.959 9.592 2.309 4.779 7.844 4.506 11.285 2.129-8.928 3.359-9.13-10.047-3.021-11.166 2.342-.539 3.795.691 7.074 3.843 3.198 2.896 5.877 4.996 8.43 6.373 1.486.799 3.461 1.479 5.555 1.864a11.41 11.41 0 0 1-3.672-1.514c-2.264-1.451-4.07-3.707-5.576-6.125-2.627-4.201-4.446-8.236-8.92-11.26-.209-.146-.354-.291-.35-.459.016-.385.275-.441.557-1.373.338-1.117.296-2.418-.924-2.812-.953-.311-1.693.041-2.285.73-.143.168-.301.555-.451.416-.137-.068.107-.693.158-.834 1.556-4.176 4.688-8.144 8.629-10.379 1.677-.955 3.223-1.193 4.68-.271-.879-.735-1.955-1.01-3.076-1.01-.191.004-.384.014-.58.029"/></defs><clipPath id="k"><use xlink:href="#j" overflow="visible"/></clipPath><linearGradient id="l" gradientUnits="userSpaceOnUse" x1="-1263.13" y1="435.328" x2="-1262.521" y2="435.328" gradientTransform="scale(63.4835 -63.4835) rotate(66.7 -300.114 1177.168)"><stop offset="0" stop-color="#00652e"/><stop offset=".059" stop-color="#147532"/><stop offset=".194" stop-color="#3d953a"/><stop offset=".317" stop-color="#5aac3f"/><stop offset=".423" stop-color="#6cba43"/><stop offset=".5" stop-color="#72bf44"/><stop offset=".576" stop-color="#6abb44"/><stop offset=".692" stop-color="#55af42"/><stop offset=".834" stop-color="#329b41"/><stop offset=".995" stop-color="#01813e"/><stop offset="1" stop-color="#00803e"/></linearGradient><path clip-path="url(#k)" fill="url(#l)" d="M-1.852 42.233L16.656-.323l39.646 16.906-18.51 42.552z"/></g><g><defs><path id="m" d="M58.723 34.647c-.169.985-.376 1.217-.962.733-.612-.506-1.637-.795-2.386-.02-1.827 1.896 1.116 4.695-2.192 8.172-3.652 3.842-11.889 2.514-16.135.229-2.553-1.377-5.231-3.478-8.43-6.373a340 340 0 0 1 5.625 5.772c5.059 5.295 10.77 7.375 15.68 7.439 6.4.086 13.197-4.115 13.203-11.281.006-6.338-5.709-12.328-11.121-14.184 3.961 1.953 7.342 5.9 6.718 9.513"/></defs><clipPath id="n"><use xlink:href="#m" overflow="visible"/></clipPath><radialGradient id="o" cx="-1244.567" cy="425.715" r=".609" gradientTransform="matrix(42.5846 0 0 -42.1641 53055.293 17985.197)" gradientUnits="userSpaceOnUse"><stop offset="0" stop-color="#00c0f3"/><stop offset=".224" stop-color="#009ad3"/><stop offset=".469" stop-color="#0078b6"/><stop offset=".67" stop-color="#0063a4"/><stop offset=".802" stop-color="#005b9e"/><stop offset="1" stop-color="#005b9e"/></radialGradient><path clip-path="url(#n)" fill="url(#o)" d="M28.619 25.137h34.514V50.69H28.619z"/></g></g></g></svg>