<svg xmlns="http://www.w3.org/2000/svg" width="503.701" height="99.773" viewBox="0 0 503.701 99.773"><path fill="none" d="M0 0h84v50H0zM84.201 0h84v50h-84zM252.701 0h84v50h-84zM168.5 0h84v50h-84z"/><path fill="none" d="M336.201 0h84v50h-84z"/><path fill="none" d="M419.754-.5h84.001v50h-84.001zM336.201 49.773h84v50h-84zM0 49.773h84v50H0zM84.299 49.773h84v50h-84zM168.5 49.773h84v50h-84z"/><path fill="none" d="M252 49.773h84v50h-84zM419.754 49.773h84.001v50h-84.001z"/><path fill="#FFF" d="M39.741 29.686c.169-.583.322-2.006.181-3.091 1.653.735 2.181 2.254 1.964 2.752-.085.188-.164.271-.419.263a13.95 13.95 0 0 0-1.726.076m-7.639 2.42c.077.383.178.737.299 1.062.216-.166 1.18-.581 1.857-.913a68.575 68.575 0 0 1-2.156-.149m17.285-1.11c-2.308.745-6.193 1.502-12.38 1.355-1.104.709-2.655 1.656-3.464 2.03-.129.057-.231.1-.378.125.157.185.304.315.493.458 5.874-.169 10.603-1.353 14.147-2.625.568-.422 1.097-.87 1.582-1.343m-11.799.979c3.79.145 8.406-.125 12.431-1.644 1.047-1.19 1.776-2.503 2.017-3.882.065-.367.083-.75.063-1.145-.447.838-1.821 1.727-2.48 1.916-1.384.399-2.497-.474-3.771-2.428-.609.012-2.889.338-3.809.684 1.05.796 2.57 3.006 1.967 4.521-.356.902-.832 1.073-1.59.935-.64-.114-2.356-.352-3.293-.093-.389.334-.961.743-1.535 1.136m-5.595-.53c-.72-5.548 2.65-14.958 6.233-16.912 4.567-2.487 12.506 4.232 13.721 9.714-.456-.363-.873-.18-1.286.308-.376.439-1.071 1.234-1.704 1.127-.867-.156-1.479-1.579-2.551-3.253-1.002-1.554-2.816-4.186-4.791-2.872-.725.479-1.508 1.234-1.874 2.046-.168.378-.198.779.224.81.367.028.863-.681 1.2-1.063 1.327-1.487 2.327-.511 3.27 1.03-2.325.167-5.814.847-6.394 2.111-.354.766.436 2.665-.049 4.824-.177.801-.67 1.139-1.225 1.538-.416.301-1.021.647-1.638.968a49.838 49.838 0 0 1-3.136-.376m15.781-8.052c.85.321 1.579-.396 1.634-1.208.043-.735-.473-1.273-1.107-1.31-.511-.025-1.19.434-1.246 1.293-.049.786.493 1.139.719 1.225M34.503 35.439c3.122 1.369 8.415.113 12.385-2.464-4.722 1.535-9.123 2.188-12.385 2.464M119.083 16.237c.49-.306 1.248-.23 1.672.404.425.638.248 1.399-.394 1.787-.526.317-1.278.186-1.669-.407-.365-.559-.306-1.35.391-1.784m14.289 1.144c-1.916.456-.29 1.279 1.65 1.302a9.608 9.608 0 0 0 1.436-.082 4.715 4.715 0 0 0-.854-1.373 6.973 6.973 0 0 0-2.232.153M128.22 29.82c.211-.387.106-1.554-1.185-2.074-.272.631-.677 1.428-1.197 2.111.482.021 1.099.067 1.935.172.23.024.359-.041.447-.209m-8.475 5.971c-4.43-1.188-5.259-12.394-2.613-17.522.187.645 1.154 2.473 4.064 2.862.824.107 1.164.104 1.91.196 1.838.238 2.578 2.467 2.377 4.509-.15 1.514-.714 3.395-2.313 4.421-.978.622-2.482 1.321-3.941 1.882-.271.104-.812.296-.798.696.017.622.783.892 1.334.761.935-.225 3.774-1.893 5.22-2.886.002 0 .002-.003.002-.003 1.396.045 2.94.495 3.512.654.433.122.769.076.99-.073.941-.622.945-2.071.357-3.261a4.43 4.43 0 0 0-2.178-2.098c.247-.85.292-2.58.178-3.229-.396-2.26-1.765-2.766-3.933-2.754-1.817.007-4.178.29-5.229-1.256 1.17.738 2.586.166 2.835-.946.252-1.12-.712-2.085-1.823-2.119 4.599-2.683 12.465-1.909 15.658 1.335a8.006 8.006 0 0 0-2.201.186c-2.442.571-.898 1.951 1.852 1.987a8.873 8.873 0 0 0 1.595-.11c1.7 5.87-9.421 18.771-16.855 16.768m7.443-17.821c-.427-.482-1.235-.614-1.729-.164-.461.412-.492 1.147.011 1.655.551.57 1.541.636 1.966-.137.108-.208.258-.786-.248-1.354M215.281 31.503c-1.551.321-2.785 1.332-3.283 1.653-.381.239-.697.313-.955.24-.756-.208-1.563-1.257-1.278-3.058.168-1.07.737-1.981 1.354-2.587-1.271-1.499-1.783-2.695-2.131-3.663-2.068.646-4.792.814-6.902.596-.278-.031-1.008-.151-.979-.57.031-.415.77-.433 1.049-.417 3.943.253 9.004-.928 11.447-3.482.348-.364 1.02-1.284 1.028-2.148-.567.454-1.268.366-1.727.094-.613-.365-.953-1.267-.61-1.982.301-.628 1.094-.799 1.641-.619.504-.52 1.047-.319 1.367-.036.377.334 1.065 1.429.674 3.08-.351 1.467-1.426 2.883-3.849 4.204.943 5.351 5.482 8.825 8.288 10.513 2.521-5.047-.815-17.491-5.308-18.991-6.041-2.017-16.978 5.688-15.197 11.752 1.924 6.542 15.389 13.018 19.774 8.31-1.761-1.055-3.186-1.99-4.403-2.889m-6.433-11.502c.366-.562 1.18-.818 1.762-.438.535.354.68 1.11.245 1.715-.483.67-1.495.895-2.05.159-.149-.197-.395-.769.043-1.436m5.722-2.664c-.199.74-.959.852-1.391.604-.327-.188-.537-.52-.537-1.045 0-.529.543-1.124 1.188-.99.68.14.879.915.74 1.431m-2.132 11.821a28.218 28.218 0 0 0 1.906 1.648c-.457.113-1.056.375-2.013.893-.207.114-.317.063-.445-.074-.591-.638-.156-1.925.552-2.467"/><g fill="#FFF"><path d="M286.517 27.869c-.485 1.568.477 3.255 2.147 3.767 1.672.512 3.377-.231 3.906-1.919.494-1.565-.463-3.296-2.146-3.767-1.9-.534-3.421.349-3.907 1.919z"/><path d="M298.103 30.406c-.888-.979-2.961-3.889-3.08-4.924-.109-.981 1.926-2.263 2.762-2.842.947-.658 1.271-1.161-.063-1.854-1.031-.531-2.293-.629-2.293-.629-.414 2.042-.519 2.876-1.002 3.319-.39.354-1.724 1.078-2.828 1.581 1.188.445 2.114 1.36 2.442 2.579.582 2.148-.926 4.426-3.367 5.085-1.791.482-3.586-.039-4.643-1.202 1.412 2.108 3.08 3.715 4.762 4.218 2.937.881 6.906-.546 10.207-2.934-1.341-.283-2.446-1.131-2.897-2.397z"/><path d="M288.81 25.233c-1.949.358-3.39 1.95-3.312 3.796.084 2.041 1.99 3.619 4.258 3.524 2.269-.094 4.035-1.825 3.951-3.866-.065-1.572-1.213-2.873-2.774-3.341-.316.125-.58.215-.746.242 1.819.302 3.145 1.779 3.01 3.454-.139 1.784-1.881 3.11-3.885 2.964-2.008-.146-3.518-1.715-3.375-3.499.127-1.585 1.516-2.809 3.231-2.958a.642.642 0 0 1-.358-.316zM302.181 25.162c-1.888.079-3.371 1.287-3.816 2.865.105.121.209.24.316.359.211-1.722 1.914-2.984 3.872-2.841 1.547.112 2.8 1.074 3.224 2.322.111-.174.217-.352.318-.529-.66-1.34-2.184-2.247-3.914-2.176z"/><path d="M306.997 22.276c-2.031-6.556-18.592-10.91-23.377-6.471-2.69 2.502-1.229 9.551 1.709 14.592-.912-2.382.816-4.863 3.385-5.497.019-.379.537-.532.859-.618 1.15-.307 2.791-1.036 3.49-1.565.658-.497.399-3.092.844-4.094.439-1.001 1.439-1.167 3.6-.446 1.873.626 3.896 1.857 4.119 3.097.277 1.531-1.479 2.35-2.366 2.841-.947.526-2.343 1.174-2.38 1.73-.026.4.566 1.133 1.244 1.91.472-1.301 1.605-2.392 3.179-2.814 2.084-.563 4.17.236 5.097 1.815.75-1.551 1.025-3.103.597-4.48zm-14.566-3.125c-.886.046-1.853-1.472-1.429-2.179.459-.766 2.595-.912 3.063-.204.404.61-.865 2.342-1.634 2.383zM298.769 30.857c.567.858 1.537 1.435 2.658 1.627.202-.153.405-.314.604-.478-1.068-.082-1.996-.564-2.606-1.269-.199.11-.432.158-.656.12z"/><path d="M303.153 25.95c-1.918-.573-4.084.501-4.025 2.959.191.229.367.453.509.657.27.387.252.691.098.915.393.524 1.231 1.247 2.559 1.31 1.206-1.024 2.273-2.166 3.104-3.347-.179-1.126-1.02-2.129-2.245-2.494z"/></g><path fill="#FFF" d="M380.293 32.597c.111.797-.487 1.497-1.293 1.36a1.152 1.152 0 0 1-.889-.968c-.109-.667.309-1.237.918-1.344a1.108 1.108 0 0 1 1.264.952m5.66 1.624c-3.637 4.457-15.781-.241-16.951-5.517-1.4-6.298 7.711-15.791 13.144-14.603 1.371.3 2.515 1.6 3.391 3.418-.145.176-.301.394-.477.604-.437.515-1.316 1.484-4.439 1.587-4.168.137-5.291.868-6.133 1.732-.957.985-1.172 1.983-1.17 2.627.002.501.348.886.678.929.836.11.957-.829.982-1.095.227-2.533 2.188-2.754 3.313-2.942-.088.467-.43 2.02-1.225 4.108-.353.902-1.453 3.46-2.359 3.977-.24.127-.563.021-1.264-.485-.748-.542-1.073-1.063-1.646-.676-.458.311-.217.891.104 1.244.616.682 2.292 1.734 3.468 1.507 1.154-.223 2.354-2.055 3.156-3.345.547.068 2.174.276 2.776 1.083.769 1.03.402 2.686.177 4.237-.09.622-.093 1.507.811 1.593.838.082 1.037-.725 1.107-1.132.145-.964.414-3.208-.092-5.079-.279-1.027-1.349-2.279-3.574-2.866.401-.867 1.141-2.398 1.729-4.279 0 0 3.106-.128 4.501-2.229.012-.017.021-.034.032-.051 1.977 5.072 2.18 12.932-.039 15.653m-6.529-15.328c.525.694 1.474.466 1.929-.167.412-.575.287-1.271-.222-1.607-.549-.365-1.272-.119-1.647.417-.432.615-.199 1.17-.06 1.357m.119 12.255c-.893-.159-1.674.542-1.854 1.42-.211 1.017.414 1.556.688 1.714 1.043.592 2.082-.177 2.314-1.225.211-.945-.326-1.76-1.148-1.909M458.698 15.239c-1.303 2.289-.776 4.916-.5 5.819l-.004.002c-1.395 1.01-3.518 1.957-5.07 2.412.89-3.544 2.209-6.231 3.447-7.631.935-.5 1.694-.643 2.127-.602m5.39 11.819c-1.146.148-2.375.263-3.546.248a7.493 7.493 0 0 1-1.627-.186c-.217.242-.461.521-.711.829a9.296 9.296 0 0 0 2.109.508c1.436.154 2.911-.222 3.775-1.399m-4.503-5.342c-.247-.863-1.163-3.387.474-6.201 2.207.891 3.783 3.8 4.354 5.999.338 1.281.532 2.863.205 4.138-1.057.048-2.078.058-3-.018-1.061-.082-1.739-.244-2.369-.698-1.061-.765-.717-1.576-.463-1.954.283-.42.957-.716.799-1.266m.507.193a1.12 1.12 0 0 0 1.213.528c.815-.224.973-1.163.563-1.804-.364-.579-1.061-.712-1.547-.378-.361.251-.664.967-.229 1.654m-2.409 6.715c.254.099.512.188.774.267 1.726.527 4.017.914 5.388-.544.334-.358.547-.813.69-1.294-.799 1.385-2.258 1.905-3.797 1.83-.896-.045-1.854-.258-2.793-.608-.089.112-.175.23-.262.349m-1.752-.499c-1.357-.733-2.522-1.688-3.238-2.695-.559 3.093-.496 6.178 1.025 8.125.54-1.92 1.396-3.881 2.213-5.43m.142-.271c.068-.128.14-.254.205-.374-1.207-.704-2.277-1.634-3-2.732-.119.043-.363.104-.481.146h-.003c.786 1.437 2.207 2.383 3.279 2.96m6.515-14.2c-2.005-.438-3.72.068-5.156 1.317a4.265 4.265 0 0 1 1.58-.122c.479-.324 1.271-.114 1.207.328 2.375 1.033 3.981 3.936 4.664 6.341.514 1.81.366 3.542.313 4.1 1.137-.063 2.223-.182 2.846-.244.605-.059.978-.124 1.248-.036.33.108.231.559-.006.773-.229.208-.579.258-.93.315-.814.129-1.969.295-3.398.507-.2.707-.516 1.338-.985 1.771-1.482 1.367-4.119 1.059-6.455.149-1.103 1.575-2.271 3.604-2.902 5.577.486.36 1.062.651 1.738.847 3.932 1.146 12.983-2.327 14.635-7.927 1.116-4.392-4.09-12.758-8.399-13.696m-5.482 12.471c-.848-1.008-.916-2.063-.771-2.768-.887.479-1.948 1.009-2.891 1.331.695.945 1.797 1.812 3.014 2.476.232-.4.452-.753.648-1.039M43.348 70.887c.313 2.042.664 3.412 1.037 4.449-1.191-.882-2.607-2.027-5.269-3.01 1.29-1.123 2.769-1.506 4.232-1.439m1.529 5.634a12.839 12.839 0 0 1-.326-.739c-.604-.412-1.508-1.08-2.256-1.563.095.163.308.561.357.775 0 0 1.744 1.192 2.225 1.527m7.775 5.285a7.467 7.467 0 0 1-1.748 1.769c-4.424 3.16-17.072 3.313-20.514-2.191 2.276-1.133 3.373-1.498 4.891-2.968 1.166-1.126 1.846-2.627 2.393-3.855 1.377.165 2.357.511 2.658.756.617.505-.108 1.548-1.809 2.733-.982.689-2.267 1.354-1.693 1.938.461.373.938.368 1.273.255.483-.162 1.883-1.212 2.426-1.668 1.129-.941 2.143-2.188 2.156-3.237.328.233 2.012 1.445 2.51 1.818.318.248 3.604 2.865 3.66 2.912.617.508 1.271.824 1.924.593.936-.337.871-1.379.621-1.824-.365-.646-.965-.532-1.207-.264-.318.36-.076.558-.076.727 0 .079-.133.159-.356.033-.313-.178-2.248-1.592-2.527-1.838.303-.423-.363-1.021-.644-1.537-1.334-2.446-1.299-2.828-1.655-5.939-.111-.983-.47-2.489-2.703-2.131-2.205.395-6.056 2.306-6.793 4.375-.986 2.758-.566 3.333-1.799 5.003-.779 1.058-2.375 1.772-3.966 2.377C28.211 72.91 40.447 63.39 47.18 63.787c5.737.338 9.266 10.988 6.039 17.094a.686.686 0 0 0-.484-.479c-.516-.141-.879.197-.957.38-.236.525.139.877.371.976a.848.848 0 0 0 .503.048m-4.951-13.877c-.025-.842-.676-1.414-1.402-1.362-.78.059-1.327.85-1.268 1.603.07.896.686 1.239.951 1.311 1.002.27 1.75-.625 1.719-1.552m2.063 11.728c-.252-.11-1.193-.712-2.728-1.978a1.076 1.076 0 0 1-.477.164c.985.809 2.262 1.814 2.42 1.947.541.453 1.281.852 1.918.463.328-.198.518-.966.065-1.414-.137-.136-.395-.195-.528-.056-.209.217.129.526-.002.769-.114.206-.356.244-.668.105m2.92.929a.514.514 0 0 0-.615.253.508.508 0 0 0 .141.6c.4.257.713-.055.783-.207s.054-.542-.309-.646"/><g fill="#FFF"><path d="M117.93 77.874c2.837.352 5.802 1.053 8.658 1.284 2.43.198 5.015.026 7.392-.533 2.16-.511 4.707-1.659 4.52-1.906-.121-.18-1.674.26-3.692.646-1.849.352-6.734 1.075-12.578-.258-4.043-.923-6.34-1.246-8.234-1.291.062.635.154 1.265.277 1.88 1.165-.031 2.474.03 3.657.178"/><path d="M137.29 78.067c-2.391.994-5.127 1.479-7.711 1.505-2.988.027-5.973-.471-8.908-.948-2.248-.367-4.725-.508-6.297-.439.032.141.064.278.099.418 1.032.056 2.596.167 4.604.603 1.689.364 3.342.849 4.998 1.323 3.676 1.054 7.929 2.125 11.452.21.177-.095.366-.203.552-.299.912-.864 1.64-1.802 2.092-2.778-.299.148-.598.285-.881.405M117.813 75.725c.668.151 1.332.321 1.994.49.817-.233 1.442-.527 1.854-.796-.877-.951-1.664-1.908-2.492-2.178-.994-.321-1.782.273-2.401.913-.89.916-1.943-.091-1.443-.851.916-1.4 2.822-2.539 4.703-1.681.953.434 1.629 1.226 2.586 2.263 1.463 1.597 2.234 2.253 4.107 2.453 2.821.297 4.661-.244 5.299-.396.66-.157 1.301-.34 1.6-.215.451.192.418.689-.154 1.122a2.156 2.156 0 0 1-.399.225c1.238-.167 3.324-.646 4.658-.992.334-.086.657-.183.964-.268l.011-.134c.406-6.164-15.063-13.873-20.545-11.456-3.174 1.4-4.512 6.176-4.218 10.853 1.286.125 2.591.351 3.876.648m7.723-2.245c.773-.499 1.605-.205 1.906.251.375.568.243 1.359-.422 1.787-.732.473-1.818.303-2.084-.637-.066-.25-.109-.941.6-1.401"/><path d="M132.778 82.339c-2.5.331-4.92-.374-7.543-1.114-2.75-.779-5.414-1.63-8.272-1.973a20.084 20.084 0 0 0-2.351-.144c.782 2.741 2.2 5.022 4.195 5.956 3.698 1.729 10.543.123 15.157-2.955-.381.098-.774.175-1.186.23"/></g><path fill="#FFF" d="M209.386 78.558c.524-1.132.514-3.014.514-3.089.604.525 1.223 1.252 1.418 2 .109.411.199 1.141-.449 1.11-.509-.016-.999-.036-1.483-.021m6.554 6.545c-3.709 1.55-9.066.255-12.887-2.259 2.405-1.16 4.514-2.449 5.377-3.071 1.274-.166 2.707.135 3.391.286.518.111.908.077 1.16-.114.432-.338.934-1.087.744-2.283-.215-1.369-1.207-2.807-2.199-3.92.68-.511 2.705-1.086 3.906-1.147.119.271.192.618.205.741-1.377.052-2.382.938-2.404 1.213-.01.35.709 1.209 1.908 1.439.227.422.592.746 1.049.857 1.282.307 1.586-.803 1.586-.803s.094-.271.065-.907c.224-.188.404-.453.4-.608-.018-.201-.211-.383-.555-.632-1.494-5.924-3.64-8.436-5.824-7.438-.857.393-1.82 1.065-2.346 1.867-.246.377-.334.842.096.901.51.072 1.047-.64 1.469-.93 1.771-1.229 2.543-.366 3.26 1.32-2.032.433-5.991 1.473-6.561 2.845v.003c-.125.225-.129.577-.107.782.146 1.608.197 3.366-.145 4.634-.229.852-.762 1.21-1.396 1.596-.934.57-2.528 1.337-4.336 2.035-.1.044-.215.089-.33.15-2.11-1.824-3.401-4.043-3.028-6.245 1.143-6.64 16.459-14.524 22.176-10.588 4.573 3.143.633 18.062-4.674 20.276m3.538-15.39c-.625-.496-1.422-.366-1.842.18-.336.438-.353 1.322.379 1.899.67.527 1.317.262 1.534.112.807-.558.62-1.644-.071-2.191m-3.842 4.467c.27-.066.985-.121.978.933-.003.199.03.328.087.401.818-.222 1.152-.709 1.181-.94.021-.315-.96-.843-2.046-.849-.846-.004-1.971.565-1.975.979.004.223.455.623 1.1.814v-.001c-.267-.927.364-1.261.675-1.337M292.212 80.979c-.664-5.001.836-8.143 1.25-9.154-.963-1.168-2.35-2.777-4.239-3.521-.4-.155-.507-.295-.515-.479-.024-.731 1.541-.695 4.021 1.622.901.844 1.951 2.007 2.854 2.808 1.638 1.392 2.99 2.02 3.642 1.912.795-.132 1.067-1.024 1.028-1.815-.033-.673-.174-1.253.158-1.402a30.802 30.802 0 0 1-.213-2.607c-.688-.068-1.053-.716-1.161-1.361-.188-1.124.298-1.807.852-2.002-4.406-3.839-15.359 2.192-15.093 8.512.168 3.997 3.97 8.534 8.062 10.813-.23-.795-.455-1.87-.646-3.326m5.232-10.995c.354.464.252 1.153-.299 1.54-.611.426-1.541.315-1.797-.475-.07-.213-.107-.774.461-1.216.483-.37 1.254-.348 1.635.151m-3.316-4.67a.463.463 0 0 1 .134.015c.077.021.588.202 1.024.226.262.015.328-.041.32-.104-.008-.061-.221-.37-.646-.723-.041-.034-.059-.07-.059-.104 0-.088.176-.292.393-.182.254.127.773.752.793.978.015.156-.088.278-.215.345-.133.068-.379.073-.51.073 0 0-.639.012-1.289-.198-.068-.022-.125-.056-.133-.104-.011-.091.067-.209.188-.222m6.109.005c.355.39.684.876.984 1.438-.058.583-.492 1.33-1.271 1.068-.271-.092-.588-.42-.634-.954-.087-.972.432-1.477.921-1.552m-.285 19.977c-1.438.701-3.238.592-5.088-.072-.576-1.225-1.561-3.457-1.393-7.064.002-.249.153-.278.231-.203.066.065.068.197.103.459.067.537.11 1.598.514 2.688.438 1.187 1.76 2.747 3.879 3.644.791.334 1.424-.826.586-1.248-2.006-1.013-2.557-1.657-2.943-2.264-.274-.438-.651-1.527-.786-2.756-.14-1.379.051-2.965 1.002-4.3 1.334.902 2.64 1.279 3.631 1.019.813-.215 1.793-.979 1.854-2.686.031-.836-.213-1.474-.739-1.591-.22-1.011-.298-2.601-.298-2.601.56-.121.854-.566.978-1.039 2.461 5.321 2.571 16.017-1.531 18.014M389.358 77.321a6.187 6.187 0 0 1-.826 1.813 5.947 5.947 0 0 0-.936-.138c-3.554-.269-7.646 1.177-11.109 1.834-2.736.521-5.5.471-7.846-.199-.156-.321-.3-.651-.437-.993 3.574.862 7.26.313 10.84-1.117 2.791-1.118 6.475-2.106 10.314-1.2m-21.478 1.422c-1.729-5.159-1.264-11.679 2.191-14.16 4.951-3.549 18.088 5.402 19.326 10.72.104.448.129.904.078 1.361-2.148-.475-4.021-.394-5.877-.011.094-.082.154-.184.145-.307-.032-.423-.548-.443-1.049-.425a19.846 19.846 0 0 1-7.489-1.148c-2.708-.975-3.718-2.061-3.976-2.335-.355-.383-1.066-1.345-1.031-2.232.283.245.723.349 1.086.306.766-.091 1.219-.682 1.354-1.139.172-.59.031-1.077-.345-1.418-.35-.317-.928-.43-1.451-.228-.487-.457-1.01-.267-1.313.01-.384.337-1.072 1.429-.68 3.084.352 1.474 1.377 2.574 2.469 3.366l.008.003c.59.424 1.193.761 1.729 1.018-.129 1.528-.744 3.203-1.482 4.132a16.674 16.674 0 0 1-3.693-.597m6.582-5.06c.527.599 1.168.461 1.392.36.838-.374.85-1.414.303-2.03-.494-.563-1.251-.577-1.727-.147-.386.345-.548 1.16.032 1.817m.498 9.668c3.527-.916 7.259-2.858 11.765-3.498.205-.07-.256-.184-.513-.201-5-.418-11.164 3.121-17.217 1.668.506.919 1.096 1.745 1.767 2.427 1.405.082 2.81-.039 4.198-.396m-.32.545a13.226 13.226 0 0 1-3.217.457c.45.363.924.667 1.43.897 3.77 1.738 11.377-1.096 14.852-5.028-5.483.61-8.977 2.547-13.065 3.674m-3.284-13.715c.297-.034.668-.266.813-.692.197-.588-.02-1.285-.69-1.467-.679-.183-1.179.402-1.195 1.116-.021.923.768 1.075 1.072 1.043m4.807 6.234a12.308 12.308 0 0 1-1.115 2.734 16.628 16.628 0 0 0 2.896-.732c1.469-.521 2.82-1.014 4.145-1.393-1.813.133-4.067-.129-5.926-.609M474.05 72.05c-2.029-6.556-18.595-10.91-23.379-6.471-2.086 1.939-1.668 6.611-.011 10.961-.002 0-.004.005-.004.005l.09.223a24.882 24.882 0 0 0 1.636 3.403c-.025-.067-.043-.137-.066-.206.266.47.559.952.871 1.428-.033-.034-.072-.063-.105-.102a17.12 17.12 0 0 0 1.23 1.619c.322.387.66.746 1.012 1.06.021.014.033.028.049.045l.015.012.018.013c.791.708 1.615 1.226 2.439 1.474 2.758.825 6.42-.393 9.59-2.518h.02s.156-.105.412-.29c.062-.043.127-.083.188-.126l-.015-.002c.128-.092.269-.2.425-.321.006.001.01.004.016.006.205-.155.408-.317.607-.479l-.023-.003.258-.217.025.004a20.32 20.32 0 0 0 1.096-1.01c1.324-1.268 2.705-2.899 3.268-4.604.003-.006.005-.014.009-.02l.004-.01c.537-1.346.694-2.674.325-3.874zm-6.029 2.962h-5.973v5.717h-2.566v-5.717h-5.998v-2.455h5.998V66.82h2.566v5.737h5.973v2.455z"/></svg>