<svg xmlns="http://www.w3.org/2000/svg" width="12" height="48" viewBox="0 0 12 48"><path fill="#333" d="M1.89 7.595l.265.265a.188.188 0 0 0 .265 0L6 4.28l3.58 3.58a.188.188 0 0 0 .265 0l.265-.265a.187.187 0 0 0 0-.265L6.133 3.353a.187.187 0 0 0-.266 0L1.89 7.33a.186.186 0 0 0 0 .265z"/><path fill="#2E6D9D" d="M1.89 19.595l.265.265a.188.188 0 0 0 .265 0L6 16.28l3.58 3.58a.188.188 0 0 0 .265 0l.265-.265a.187.187 0 0 0 0-.265l-3.977-3.977a.187.187 0 0 0-.266 0L1.89 19.33a.186.186 0 0 0 0 .265z"/><path fill="#49A3DB" d="M1.89 31.595l.265.265a.188.188 0 0 0 .265 0L6 28.28l3.58 3.58a.188.188 0 0 0 .265 0l.265-.265a.187.187 0 0 0 0-.265l-3.977-3.977a.187.187 0 0 0-.266 0L1.89 31.33a.186.186 0 0 0 0 .265z"/><path fill="#FFF" d="M1.89 43.595l.265.265a.188.188 0 0 0 .265 0L6 40.28l3.58 3.58a.188.188 0 0 0 .265 0l.265-.265a.187.187 0 0 0 0-.265l-3.977-3.977a.187.187 0 0 0-.266 0L1.89 43.33a.186.186 0 0 0 0 .265z"/></svg>