<svg xmlns="http://www.w3.org/2000/svg" width="12" height="48" viewBox="0 0 12 48"><path fill="#333" d="M6.53 6l4.641-4.641a.188.188 0 0 0 0-.265l-.265-.265a.189.189 0 0 0-.266 0L6 5.47 1.359.829a.188.188 0 0 0-.265 0l-.265.265a.19.19 0 0 0 0 .265L5.47 6 .829 10.64a.19.19 0 0 0 0 .265l.266.265a.188.188 0 0 0 .265 0L6 6.53l4.641 4.641a.189.189 0 0 0 .266 0l.265-.265a.188.188 0 0 0 0-.265L6.53 6z"/><path fill="#2E6D9D" d="M6.53 18l4.641-4.641a.188.188 0 0 0 0-.265l-.265-.265a.189.189 0 0 0-.266 0L6 17.47l-4.641-4.641a.188.188 0 0 0-.265 0l-.266.265a.19.19 0 0 0 0 .265L5.47 18 .829 22.64a.19.19 0 0 0 0 .265l.266.265a.188.188 0 0 0 .265 0L6 18.53l4.641 4.641a.189.189 0 0 0 .266 0l.265-.265a.188.188 0 0 0 0-.265L6.53 18z"/><path fill="#49A3DB" d="M6.53 30l4.641-4.641a.188.188 0 0 0 0-.265l-.265-.265a.189.189 0 0 0-.266 0L6 29.47l-4.641-4.641a.188.188 0 0 0-.265 0l-.266.265a.19.19 0 0 0 0 .265L5.47 30 .829 34.64a.19.19 0 0 0 0 .265l.266.265a.188.188 0 0 0 .265 0L6 30.53l4.641 4.641a.189.189 0 0 0 .266 0l.265-.265a.188.188 0 0 0 0-.265L6.53 30z"/><path fill="#FFF" d="M6.53 42l4.641-4.641a.188.188 0 0 0 0-.265l-.265-.265a.189.189 0 0 0-.266 0L6 41.47l-4.641-4.641a.188.188 0 0 0-.265 0l-.266.265a.19.19 0 0 0 0 .265L5.47 42 .829 46.64a.19.19 0 0 0 0 .265l.266.265a.188.188 0 0 0 .265 0L6 42.53l4.641 4.641a.189.189 0 0 0 .266 0l.265-.265a.188.188 0 0 0 0-.265L6.53 42z"/></svg>