<svg xmlns="http://www.w3.org/2000/svg" width="32" height="32" viewBox="0 0 32 32"><path opacity=".5" fill="none" d="M0 0h32v32H0z"/><path fill="#FFF" d="M23.779 11.9c.008.171.011.347.012.519.037 5.326-3.967 11.483-11.377 11.536a11.409 11.409 0 0 1-6.184-1.766 8.11 8.11 0 0 0 5.952-1.707 4.04 4.04 0 0 1-3.784-2.771c.247.046.5.068.758.065.366-.001.742-.05 1.083-.146A3.997 3.997 0 0 1 7 13.703v-.048c.5.296 1.148.473 1.806.489a4.034 4.034 0 0 1-1.297-5.367 11.442 11.442 0 0 0 8.325 4.152 4.024 4.024 0 0 1 3.885-4.973 4.021 4.021 0 0 1 2.949 1.25 8.02 8.02 0 0 0 2.553-.995 4.058 4.058 0 0 1-1.76 2.241 7.835 7.835 0 0 0 2.308-.65 8.155 8.155 0 0 1-1.99 2.098z"/></svg>