<svg xmlns="http://www.w3.org/2000/svg" width="84" height="12" viewBox="0 0 84 12"><g fill="#4A4A4A"><path d="M30.53 10.932h3.49v-.454h-.749a.973.973 0 0 1-.187-.04.964.964 0 0 1-.308-.121c-.106-.107-.147-.241-.147-.495V1.999l3.009 8.933h.99l3.048-8.945v8.009c0 .12-.053.241-.16.321-.081.066-.281.134-.468.161h-.776v.454h4.935v-.454h-.736c-.441 0-.696-.255-.696-.656V2.428c0-.295.027-.389.174-.482.08-.08.281-.146.495-.173h.775V1.29h-4.012l-2.34 6.82-2.274-6.82h-4.052v.481h.736c.401 0 .668.254.668.656v7.127l.014.267c0 .388-.294.656-.695.656h-.734v.455zM43.4 1.731h.762c.027 0 .106.026.186.054a.747.747 0 0 1 .295.121c.106.093.147.186.147.347v6.11c0 1.098.293 1.725.99 2.113.628.389 1.645.615 2.621.615 1.109 0 2.206-.321 2.755-.775.281-.254.508-.615.615-1.057.107-.361.161-.815.161-1.297V2.4c0-.401.281-.669.708-.669h.749V1.29h-3.516v.441h.749c.375 0 .628.281.628.669v5.63c0 1.524-.628 2.152-2.206 2.152-1.043 0-1.818-.361-2.06-.989-.08-.201-.107-.469-.107-1.043V2.4c0-.388.268-.669.682-.669h.735V1.29H43.4v.441zM53.579 10.932h3.544v-.454h-.762c-.014 0-.095-.014-.201-.027-.121-.04-.24-.08-.321-.134-.121-.107-.161-.214-.161-.496V3.243l4.907 7.688h1.484V2.24c0-.201.16-.361.455-.441.081-.014.174-.041.188-.041h.749V1.29h-3.45v.468h.735c.415 0 .682.268.682.67v5.963L56.882 1.29h-3.29v.481h.736c.401 0 .682.254.682.656v7.394c0 .388-.295.656-.695.656h-.736v.455zM63.718 10.932h5.187c2.688 0 4.627-2.073 4.627-4.947 0-1.658-.762-3.13-2.059-3.972-.776-.494-1.618-.722-2.714-.722h-5.042v.467h.75c.401 0 .668.255.668.67v7.394c0 .254-.053.401-.174.509-.08.053-.294.12-.481.174h-.763l.001.427zm3.49-1.043V2.293c0-.454.107-.574.522-.574h1.23c.682 0 1.337.334 1.685.869.24.388.414.908.521 1.672.067.534.106 1.323.106 1.898 0 2.982-.775 4.359-2.46 4.359h-1.069c-.401.001-.535-.147-.535-.628zM74.422 6.117c0 2.955 1.806 4.947 4.493 4.947 2.688 0 4.507-1.992 4.507-4.947 0-1.391-.415-2.607-1.217-3.543-.802-.949-1.872-1.418-3.29-1.418-1.417 0-2.447.455-3.303 1.418-.775.897-1.19 2.153-1.19 3.543zm2.501-2.794c.267-1.057.949-1.604 1.992-1.604s1.712.548 2.005 1.604c.187.682.241 1.403.241 2.794 0 1.377-.054 2.086-.241 2.782-.28 1.043-.962 1.604-2.005 1.604s-1.711-.562-1.992-1.604c-.201-.682-.268-1.391-.268-2.782 0-1.404.068-2.098.268-2.794zM.578 10.932h8.665L9.51 7.83h-.508c-.201 1.725-1.297 2.674-3.115 2.674H4.549c-.361 0-.508-.174-.508-.563V5.904h.696c.708 0 1.337.16 1.618.414.28.268.481.762.481 1.217 0 .08 0 .174-.013.268h.494V3.59l-.494-.013v.106c0 1.164-.736 1.793-2.086 1.793h-.696v-3.29c0-.36.107-.468.441-.468h1.337c1.057 0 1.605.16 2.18.642.428.348.763.869.843 1.337.026.121.04.281.053.482h.563L9.229 1.29H.578v.468h.749c.388 0 .655.241.655.656v7.421c0 .388-.267.643-.668.643H.578v.454zM9.651 1.758h.736c.415 0 .682.255.682.67v7.381c0 .267-.054.4-.161.508-.093.066-.293.134-.48.16h-.777v.454h8.277l.201-3.797h-.548c-.321 2.14-1.351 3.37-2.875 3.37h-1.069c-.361 0-.522-.174-.522-.576v-7.5c0-.402.268-.67.669-.67h.749V1.29H9.651v.468zM29.449 8.402c.317-.653.51-1.381.545-2.149h-5.175v2.191h4.608s-.002.006.022-.042zM24.239 3.344H19.67a5.464 5.464 0 0 0-.671 2.33h5.24v-2.33zM24.819 3.344v2.33h5.171a5.505 5.505 0 0 0-.67-2.33h-4.501zM24.239 6.253h-5.244c.035.784.236 1.526.565 2.191h4.679V6.253zM24.239 9.023h-4.346a5.508 5.508 0 0 0 4.346 2.477V9.023zM24.819 2.766h4.131A5.499 5.499 0 0 0 24.819.504v2.262zM24.819 9.023v2.473a5.502 5.502 0 0 0 4.276-2.473h-4.276zM24.239 2.766V.5a5.493 5.493 0 0 0-4.2 2.266h4.2z"/></g></svg>