<svg xmlns="http://www.w3.org/2000/svg" width="20.195" height="16.401" viewBox="0 0 20.195 16.401"><path fill="#55ACEE" d="M18.127 4.081c.008.178.014.357.014.538 0 5.474-4.166 11.782-11.79 11.782-2.344 0-4.517-.682-6.352-1.861a7 7 0 0 0 .984.063 8.343 8.343 0 0 0 5.15-1.771 4.14 4.14 0 0 1-3.867-2.879c.246.047.51.071.773.071.38 0 .749-.043 1.09-.144A4.152 4.152 0 0 1 .807 5.817c0-.014 0-.037.004-.048.56.313 1.199.494 1.878.519A4.171 4.171 0 0 1 .844 2.83c0-.752.206-1.459.563-2.076A11.74 11.74 0 0 0 9.948 5.08 4.135 4.135 0 0 1 13.983 0c1.188 0 2.268.499 3.023 1.304A8.112 8.112 0 0 0 19.635.297a4.118 4.118 0 0 1-1.822 2.288 8.023 8.023 0 0 0 2.382-.646 8.262 8.262 0 0 1-2.068 2.142z"/></svg>