<svg xmlns="http://www.w3.org/2000/svg" width="20" height="16.264" viewBox="470.8 283.067 20 16.264"><path fill="#FFF" d="M490.8 284.979c-.766.383-1.531.574-2.392.671.859-.479 1.529-1.339 1.817-2.296-.767.477-1.724.766-2.584 1.052-.767-.86-1.817-1.339-3.062-1.339a4.084 4.084 0 0 0-4.115 4.115c0 .286 0 .67.095.955a11.543 11.543 0 0 1-8.419-4.307c-.383.574-.574 1.34-.574 2.105 0 1.436.671 2.68 1.818 3.444-.67 0-1.34-.19-1.818-.479a4.116 4.116 0 0 0 3.254 4.019c-.384.097-.67.191-1.055.191-.287 0-.477 0-.765-.096.478 1.627 2.009 2.774 3.828 2.871-1.438 1.147-3.158 1.722-5.071 1.722-.288 0-.671 0-.958-.096a11.896 11.896 0 0 0 6.315 1.817c7.561 0 11.676-6.22 11.676-11.674v-.574c.766-.569 1.435-1.336 2.01-2.101z"/></svg>