<svg xmlns="http://www.w3.org/2000/svg" width="102.021" height="32" viewBox="0 0 102.021 32"><path d="M4.146 17.854V32H0V0h8.207c2.096 0 3.842 1.746 3.842 3.842v10.172c0 2.095-1.746 3.841-3.842 3.841H4.146zm0-13.838v9.823h2.75A.988.988 0 0 0 7.9 12.834V5.021a.988.988 0 0 0-1.004-1.005h-2.75zM26.28 0h5.107l4.104 32h-4.234l-.83-7.072H27.11L26.324 32h-4.148L26.28 0zm1.266 21.086h2.445l-1.179-10.608h-.088l-1.178 10.608zM50.291 17.854V32h-4.148V0h8.208c2.096 0 3.842 1.746 3.842 3.842v10.172c0 2.095-1.746 3.841-3.842 3.841h-4.06zm0-13.838v9.823h2.75a.989.989 0 0 0 1.004-1.005V5.021a.989.989 0 0 0-1.004-1.005h-2.75zM70.066 0h10.478v4.016h-6.33v9.998h5.894v4.016h-5.894v9.954h6.33V32H70.066V0zM91.982 0h4.146v27.983h5.893V32H91.982V0z"/></svg>