<svg xmlns="http://www.w3.org/2000/svg" width="68" height="22.556" viewBox="0 0 68 22.556"><g fill="#FFF"><path d="M19.17 21.308h7.157v-.932h-1.535c-.056 0-.192-.027-.384-.082a2.001 2.001 0 0 1-.63-.247c-.219-.221-.302-.495-.302-1.016V2.991l6.169 18.316h2.03l6.252-18.344V19.386a.82.82 0 0 1-.329.659c-.165.137-.577.274-.96.329H35.046v.932h10.119v-.932h-1.508c-.906 0-1.428-.521-1.428-1.345V3.869c0-.604.057-.795.357-.987.164-.165.576-.302 1.016-.356H45.192v-.988h-8.227l-4.798 13.985-4.661-13.985h-8.309v.988h1.509c.821 0 1.371.521 1.371 1.343v14.615l.027.548c0 .795-.604 1.345-1.426 1.345H19.17v.931zM0 21.308h17.768l.548-6.361h-1.042c-.411 3.537-2.659 5.484-6.389 5.484H8.143c-.74 0-1.042-.356-1.042-1.152v-8.281h1.427c1.453 0 2.742.329 3.317.85.575.548.986 1.563.986 2.495 0 .164 0 .357-.026.549h1.014V6.253l-1.014-.027v.22c0 2.386-1.509 3.675-4.277 3.675H7.101V3.375c0-.739.22-.959.905-.959h2.741c2.167 0 3.292.329 4.47 1.316.877.713 1.563 1.782 1.727 2.742.054.247.083.576.109.988h1.152l-.465-5.924H0v.96h1.535c.795 0 1.344.494 1.344 1.343v15.218c0 .796-.548 1.316-1.371 1.316H0v.933zM66.883 16.204A11.21 11.21 0 0 0 68 11.796H57.39v4.496h9.448l.045-.088zM56.2 5.832h-9.369a11.235 11.235 0 0 0-1.377 4.778H56.2V5.832zM57.39 5.832v4.778h10.604a11.272 11.272 0 0 0-1.375-4.778H57.39zM56.2 11.796H45.446c.072 1.61.484 3.131 1.16 4.496H56.2v-4.496zM56.2 17.478h-8.912a11.283 11.283 0 0 0 8.912 5.078v-5.078zM57.39 4.646h8.472A11.289 11.289 0 0 0 57.39.006v4.64zM57.39 17.478v5.07a11.284 11.284 0 0 0 8.768-5.07H57.39zM56.2 4.646V0a11.275 11.275 0 0 0-8.613 4.646H56.2z"/></g></svg>