<svg xmlns="http://www.w3.org/2000/svg" width="169.886" height="22.556" viewBox="0 0 169.886 22.556"><path fill="#211915" d="M61.422 21.39h7.157v-.932h-1.535c-.056 0-.191-.025-.385-.082a1.996 1.996 0 0 1-.629-.246c-.22-.221-.302-.494-.302-1.016V3.074l6.169 18.316h2.03l6.252-18.343v16.425c0 .244-.11.492-.33.658-.165.137-.576.274-.96.328H77.299v.932h10.118v-.932H85.91c-.905 0-1.427-.519-1.427-1.344V3.951c0-.604.056-.796.358-.988.164-.164.574-.301 1.014-.354h1.59V1.62h-8.226L74.42 15.604 69.759 1.62h-8.31v.99h1.51c.821 0 1.371.519 1.371 1.341v14.615l.027.549c0 .795-.604 1.344-1.426 1.344h-1.508v.931h-.001zM87.813 2.527h1.562c.055 0 .22.053.385.109.246.055.467.137.603.247.222.191.302.383.302.71V16.127c0 2.25.603 3.537 2.029 4.332 1.289.795 3.371 1.262 5.375 1.262 2.273 0 4.523-.658 5.648-1.59a4.269 4.269 0 0 0 1.262-2.166c.219-.74.328-1.672.328-2.66V3.897c0-.823.578-1.37 1.455-1.37h1.535V1.62h-7.213v.908h1.537c.768 0 1.289.575 1.289 1.37v11.545c0 3.123-1.289 4.412-4.525 4.412-2.139 0-3.729-.74-4.223-2.027-.164-.413-.221-.959-.221-2.141V3.897c0-.795.551-1.37 1.4-1.37h1.505V1.62H87.813v.907zM108.688 21.39h7.269v-.932h-1.563c-.027 0-.194-.025-.412-.054-.248-.083-.493-.166-.658-.274-.245-.221-.329-.44-.329-1.016V5.624l10.064 15.766h3.043V3.566c0-.412.33-.739.933-.904.165-.026.357-.082.384-.082h1.536v-.96h-7.074v.961h1.509c.846 0 1.396.548 1.396 1.37v12.23L115.462 1.62h-6.745v.99h1.507c.823 0 1.398.519 1.398 1.341v15.163c0 .795-.604 1.344-1.426 1.344h-1.509v.932h.001z"/><path fill-rule="evenodd" clip-rule="evenodd" fill="#211915" d="M129.48 21.39h10.638c5.512 0 9.486-4.25 9.486-10.146 0-3.4-1.562-6.416-4.221-8.142-1.59-1.016-3.318-1.482-5.566-1.482H129.48v.961h1.536c.82 0 1.369.521 1.369 1.37v15.163c0 .521-.109.825-.355 1.042-.167.11-.605.248-.988.358H129.48v.876zm7.156-2.137V3.677c0-.932.221-1.179 1.068-1.179h2.523c1.399 0 2.742.686 3.456 1.781.493.798.85 1.866 1.069 3.43.137 1.094.219 2.714.219 3.894 0 6.114-1.59 8.939-5.045 8.939h-2.193c-.822-.001-1.097-.304-1.097-1.289zM151.431 11.521c0 6.058 3.703 10.144 9.214 10.144s9.241-4.086 9.241-10.144c0-2.853-.851-5.349-2.495-7.268-1.646-1.947-3.84-2.906-6.746-2.906-2.907 0-5.018.931-6.774 2.906-1.59 1.836-2.44 4.415-2.44 7.268zm5.129-5.732c.546-2.167 1.945-3.291 4.085-3.291s3.51 1.123 4.112 3.291c.383 1.398.494 2.879.494 5.732 0 2.822-.111 4.276-.494 5.703-.576 2.137-1.973 3.291-4.112 3.291s-3.511-1.154-4.085-3.291c-.413-1.398-.549-2.854-.549-5.703 0-2.879.135-4.306.549-5.732z"/><path fill="#211915" d="M0 21.39h17.768l.549-6.359h-1.043c-.41 3.535-2.659 5.484-6.389 5.484H8.144c-.74 0-1.042-.358-1.042-1.154v-8.279h1.426c1.453 0 2.742.328 3.318.848.575.547.987 1.564.987 2.497 0 .164 0 .358-.026.549h1.014v-8.64l-1.014-.026v.22c0 2.383-1.509 3.674-4.279 3.674H7.102V3.457c0-.739.22-.959.905-.959h2.742c2.167 0 3.291.329 4.47 1.315.877.712 1.563 1.783 1.727 2.742.054.247.082.575.11.989h1.152l-.466-5.924H0v.961h1.535c.796 0 1.344.493 1.344 1.343v15.218c0 .798-.547 1.316-1.37 1.316H0v.932zM18.608 2.581h1.507c.852 0 1.398.521 1.398 1.37v15.138c0 .547-.109.82-.329 1.041-.193.137-.603.274-.987.328h-1.591v.932h16.973l.412-7.785h-1.125c-.658 4.387-2.769 6.91-5.895 6.91h-2.194c-.741 0-1.069-.358-1.069-1.18V3.951c0-.822.548-1.37 1.371-1.37h1.536V1.62H18.608v.961z"/><g fill="#4B7789"><path d="M59.206 16.204a11.25 11.25 0 0 0 1.117-4.408H49.71v4.498h9.45l.046-.09zM48.521 5.83h-9.369a11.24 11.24 0 0 0-1.379 4.781h10.748V5.83zM49.71 5.83v4.781h10.605a11.266 11.266 0 0 0-1.376-4.781H49.71zM48.521 11.796H37.768a11.323 11.323 0 0 0 1.159 4.498h9.594v-4.498zM48.521 17.477h-8.913a11.28 11.28 0 0 0 8.913 5.079v-5.079zM49.71 4.644h8.473A11.288 11.288 0 0 0 49.71.006v4.638zM49.71 17.477v5.071a11.288 11.288 0 0 0 8.771-5.071H49.71zM48.521 4.644V0a11.273 11.273 0 0 0-8.612 4.644h8.612z"/></g></svg>