<svg xmlns="http://www.w3.org/2000/svg" width="12" height="48" viewBox="0 0 12 48"><path fill="#333" d="M10.11 4.405l-.265-.265a.188.188 0 0 0-.265 0L6 7.72 2.42 4.14a.188.188 0 0 0-.265 0l-.265.265a.187.187 0 0 0 0 .265l3.977 3.977a.187.187 0 0 0 .266 0L10.11 4.67a.186.186 0 0 0 0-.265z"/><path fill="#2E6D9D" d="M10.11 16.405l-.265-.265a.188.188 0 0 0-.265 0L6 19.72l-3.58-3.58a.188.188 0 0 0-.265 0l-.265.265a.187.187 0 0 0 0 .265l3.977 3.977a.187.187 0 0 0 .266 0l3.977-3.977a.186.186 0 0 0 0-.265z"/><path fill="#49A3DB" d="M10.11 28.405l-.265-.265a.188.188 0 0 0-.265 0L6 31.72l-3.58-3.58a.188.188 0 0 0-.265 0l-.265.265a.187.187 0 0 0 0 .265l3.977 3.977a.187.187 0 0 0 .266 0l3.977-3.977a.186.186 0 0 0 0-.265z"/><path fill="#FFF" d="M10.11 40.405l-.265-.265a.188.188 0 0 0-.265 0L6 43.72l-3.58-3.58a.188.188 0 0 0-.265 0l-.265.265a.187.187 0 0 0 0 .265l3.977 3.977a.187.187 0 0 0 .266 0l3.977-3.977a.186.186 0 0 0 0-.265z"/></svg>