<svg xmlns="http://www.w3.org/2000/svg" width="28" height="28" viewBox="0 0 28 28"><path opacity=".5" fill="none" d="M0 0h28v28H0z"/><path fill-rule="evenodd" clip-rule="evenodd" fill="#FFF" d="M14 5.99c-4.342 0-7.875 3.534-7.875 7.875 0 1.724.557 3.319 1.5 4.617l-.985 2.925 3.028-.969A7.83 7.83 0 0 0 14 21.74c4.343 0 7.875-3.532 7.875-7.875 0-4.341-3.532-7.875-7.875-7.875zm4.863 11.124c-.191.536-1.13 1.054-1.551 1.093-.421.038-.421.344-2.755-.575-2.335-.92-3.807-3.314-3.922-3.465-.115-.155-.938-1.245-.938-2.375s.592-1.685.804-1.917a.842.842 0 0 1 .612-.286c.153 0 .307.02.439.02.135 0 .326-.077.518.382.191.46.65 1.59.708 1.705.058.116.097.249.02.403s-.115.248-.229.383-.241.298-.346.401c-.114.115-.233.239-.1.469.134.23.596.981 1.278 1.591.877.782 1.617 1.023 1.846 1.139.23.116.363.096.498-.058.134-.153.575-.669.727-.899.154-.23.307-.191.518-.115.209.076 1.338.631 1.569.748.229.114.382.171.439.267.056.094.056.553-.135 1.089z"/></svg>