<svg xmlns="http://www.w3.org/2000/svg" height="33" viewBox="0 0 123 33" width="123"><path d="M97.801 17.924l7.011-.007a2.15 2.15 0 0 0 2.143-2.143v-.828c0-1.18-.966-2.145-2.143-2.145h-7.011c-6.752 0-7.546 5.587-7.551 7.901v4.483c.005 2.312.8 7.903 7.551 7.903l7.011-.007a2.15 2.15 0 0 0 2.143-2.142v-.828a2.147 2.147 0 0 0-2.143-2.141l-7.011-.007c-.488 0-1.832-.005-1.832-2.481h6.283a2.152 2.152 0 0 0 2.143-2.144v-.825a2.153 2.153 0 0 0-2.143-2.148l-6.283-.004c.002-2.44 1.346-2.437 1.834-2.437M53.366 27.076c-1.603 0-3.783 0-3.783-1.822 0-1.823 2.172-1.823 3.783-1.823v3.645zm5.115-14.73a2.15 2.15 0 0 0-2.146-2.144h-.825a2.15 2.15 0 0 0-2.144 2.144v5.575s-8.32-.897-8.32 7.137c0 3.796 1.704 8.031 6.741 8.031h4.346a2.356 2.356 0 0 0 2.35-2.348l-.002-18.395zM74.879 22.234a39.637 39.637 0 0 0-.346-4.229c-.349-2.616-2.178-5.205-6.609-5.205-4.435 0-5.339 2.689-6.172 4.398-.833 1.714-.703 6.015-.703 6.015s0 5.278.003 5.326c.031.678.403 1.273.94 1.618.342.235.753.369 1.197.369h.828c.372 0 .726-.098 1.03-.266a2.05 2.05 0 0 0 1.118-1.821v-.475h3.599v2.969a2.15 2.15 0 0 0 2.143 2.146h.828a2.15 2.15 0 0 0 2.141-2.146c.003.001.006-8.674.003-8.699m-8.716.711c0-2.935 0-5.034 1.8-5.034 1.797 0 1.794 1.956 1.794 5.034h-3.594zM88.104 10.205H77.027a2.15 2.15 0 0 0-2.142 2.146v.824c0 1.18.965 2.146 2.142 2.146l2.98.003.003 15.613c0 1.178.966 2.146 2.146 2.146h.823a2.153 2.153 0 0 0 2.143-2.146l.007-15.613 2.977-.003a2.152 2.152 0 0 0 2.145-2.146v-.826a2.153 2.153 0 0 0-2.147-2.144M35.44 25.274v-.01l-.002-7.758a2.15 2.15 0 0 0-2.145-2.145h-.826a2.15 2.15 0 0 0-2.144 2.145l-.003 6.979s.039 3.116-1.873 3.116c0 0-1.881.236-1.881-3.407 0-.238-.002-9.245-.01-9.31a2.151 2.151 0 0 0-1.743-2.048 2.27 2.27 0 0 0-.561-.07h-.496a2.26 2.26 0 0 0-.548.067 2.152 2.152 0 0 0-1.763 2.11v.012 9.311s-.835 8.647 6.671 8.82c7.506.179 7.324-6.887 7.324-7.812M18.874 25.446c0-1.181-.967-1.588-2.145-1.588h-.825c-1.059 0-1.945.329-2.115 1.252-.034.107-.03.222-.029.295v.171c-.018.597-.208 1.911-1.532 1.911-1.625 0-2.105-1.172-2.105-4.296 0-3.19.182-4.963 1.921-4.963 1.399 0 1.712.926 1.712 1.515l.003.701c0 1.181.965 1.588 2.146 1.588h.827c1.179 0 2.145-.407 2.145-1.588l.003-2.391c0-2.854-2.044-4.785-5.686-5.181 0 0 1.669-1.975 3.335-3.423 1.669-1.449 1.36-2.106.615-3.116-.747-1.007-1.846-.964-3.292.263-1.45 1.229-4.04 3.556-5.62 6.498 0 0 .221-2.679 2.545-6.277 0 0 1.024-1.868-.649-2.848-1.029-.602-1.896-.444-2.598.608-.701 1.053-2.676 4.48-3.027 6.979l-.571-3.685c-.12-.796-1.067-1.765-2.326-1.537C.638 6.511-.152 7.648.025 8.661c.234 1.32 2.854 16.948 5.576 21.066 1.017 1.539 1.745 3.368 6.569 3.368 1.972 0 5.827-.219 6.596-5.616.057-.399.108-1.492.108-1.492l.003-.339a14.239 14.239 0 0 1-.003-.202M40.972 17.921h-.827a2.153 2.153 0 0 0-2.144 2.146v10.88a2.15 2.15 0 0 0 2.144 2.143h.827c1.18 0 2.145-.969 2.145-2.143v-10.88a2.154 2.154 0 0 0-2.145-2.146" fill="#4273B5"/><path d="M46.646 5.086H43.1V1.559A1.563 1.563 0 0 0 41.542 0h-2.005c-.858 0-1.56.701-1.56 1.559v3.528h-3.543c-.858 0-1.56.701-1.56 1.56V8.65c0 .856.701 1.56 1.56 1.56h3.543v3.563c0 .856.702 1.559 1.56 1.559h2.005c.858 0 1.559-.701 1.559-1.559V10.21h3.546c.858 0 1.56-.703 1.56-1.56V6.646a1.565 1.565 0 0 0-1.561-1.56M109.51 33.089v-2.703c0-1.588.424-3.035 2.383-3.035 1.999 0 2.413 1.568 2.413 3.055v1.055h2.647v1.632h-7.443v-.004zm3.53-2.744c0-1.016-.394-1.396-1.105-1.396-.694 0-1.084.371-1.084 1.396v1.114h2.192v-1.114h-.01zM109.51 24.772h7.443v1.611h-7.443zM115.51 23.537h-3.91v-1.619h3.438c.482 0 .743-.18.743-.633 0-.434-.231-.802-.538-1.165H111.6v-1.619h5.36v1.619h-.838c.414.321.944.913.944 1.847 0 .918-.44 1.57-1.55 1.57M116.24 17.663l-.903-.643a2.975 2.975 0 0 0 .691-1.861c0-.502-.17-.853-.521-.853-.372 0-.513.281-.643 1.015-.183 1.013-.424 2.103-1.68 2.103-1.077 0-1.7-.887-1.7-2.083 0-1.096.28-1.76.753-2.354l.913.633c-.373.543-.582 1.075-.582 1.578 0 .462.183.722.473.722.32 0 .452-.292.574-.955.18-1.053.421-2.171 1.641-2.171 1.294 0 1.806 1.126 1.806 2.362 0 1.18-.35 1.967-.82 2.507" fill="#E7B02F"/></svg>