<svg xmlns="http://www.w3.org/2000/svg" width="32" height="32" viewBox="0 0 32 32"><g fill="#0AA752"><path d="M11.999 16a4 4 0 1 0-.002-8.002A4 4 0 0 0 12 16zm0-6a2 2 0 1 1-.001 4.001A2 2 0 0 1 11.999 10zM20.815 23.292A9.99 9.99 0 0 0 11.999 18c-3.818 0-7.132 2.145-8.816 5.292a.485.485 0 0 0-.053.208.5.5 0 0 0 .5.5h1.159a.572.572 0 0 0 .456-.266A7.98 7.98 0 0 1 11.999 20c2.848 0 5.338 1.494 6.756 3.734a.569.569 0 0 0 .455.266h1.16c.274 0 .5-.224.5-.5a.46.46 0 0 0-.055-.208zM29.46 11.247l-.707-.707a.5.5 0 0 0-.707 0L22 16.586l-3.046-3.046a.5.5 0 0 0-.707 0l-.707.707a.5.5 0 0 0 0 .707l4.106 4.106a.5.5 0 0 0 .707 0l7.106-7.106a.498.498 0 0 0 .001-.707z"/></g></svg>