<svg xmlns="http://www.w3.org/2000/svg" width="32" height="32" viewBox="0 0 32 32"><path opacity=".5" fill="none" d="M0 0h32v32H0z"/><path fill-rule="evenodd" clip-rule="evenodd" fill="#FFF" d="M16 6.845c-4.962 0-9 4.04-9 9 0 1.971.637 3.793 1.715 5.277l-1.126 3.343 3.46-1.107A8.953 8.953 0 0 0 16 24.846c4.963 0 9-4.036 9-9 0-4.961-4.037-9.001-9-9.001zm5.558 12.714c-.218.612-1.291 1.204-1.772 1.249-.48.043-.48.393-3.148-.657-2.668-1.052-4.351-3.788-4.482-3.96-.132-.177-1.072-1.423-1.072-2.714s.677-1.926.919-2.19c.239-.262.524-.328.699-.328s.351.022.502.022c.154 0 .372-.087.592.438.218.525.743 1.816.809 1.948.065.132.11.284.022.46-.088.176-.132.285-.263.438-.13.154-.276.341-.395.459-.13.13-.266.272-.115.535.154.263.682 1.122 1.46 1.818 1.003.894 1.849 1.169 2.11 1.301.264.133.416.11.568-.066.154-.175.658-.765.831-1.027.177-.264.351-.219.592-.132.239.087 1.529.722 1.793.854.263.13.437.195.503.305.065.11.065.634-.153 1.247z"/></svg>