<svg xmlns="http://www.w3.org/2000/svg" width="32" height="32" viewBox="0 0 32 32"><path opacity=".5" fill="none" d="M0 0h32v32H0z"/><g fill="#FFF"><path d="M16 16a4 4 0 1 0 0-8 4 4 0 0 0 0 8zm0-6a2 2 0 1 1-.001 4.001A2 2 0 0 1 16 10zM24.816 23.293A9.988 9.988 0 0 0 16 18a9.99 9.99 0 0 0-8.816 5.293.492.492 0 0 0-.053.207.5.5 0 0 0 .5.5H8.79a.572.572 0 0 0 .456-.266C10.662 21.494 13.152 20 16 20s5.338 1.494 6.756 3.734a.569.569 0 0 0 .455.266h1.16c.274 0 .5-.224.5-.5a.453.453 0 0 0-.055-.207z"/></g></svg>