<svg baseProfile="tiny" xmlns="http://www.w3.org/2000/svg" width="22.4" height="18.2" viewBox="0 0 22.4 18.2"><path fill="#3F3F3F" d="M20.1 4.5v.6c0 6.1-4.6 13.1-13.1 13.1-2.6 0-5-.8-7.1-2.1.4.1.7.1 1.1.1 2.2 0 4.1-.7 5.7-2-2 0-3.7-1.4-4.3-3.2.3.1.6.1.9.1.4 0 .8 0 1.2-.2C2.4 10.5.8 8.6.8 6.4v-.1c.7.5 1.4.7 2.2.7C1.8 6.2.9 4.7.9 3.1c0-.8.2-1.6.6-2.3C3.8 3.6 7.2 5.4 11 5.6c-.1-.3-.1-.7-.1-1C10.9 2.1 13 0 15.5 0c1.3 0 2.5.6 3.4 1.4 1-.2 2-.6 2.9-1.1-.3 1.1-1.1 2-2 2.5.9-.1 1.8-.4 2.6-.7-.6 1-1.4 1.8-2.3 2.4z"/></svg>