<svg xmlns="http://www.w3.org/2000/svg" width="22.736" height="18" viewBox="0 0 22.736 18"><path fill="#87868A" d="M20.42 4.438c.007.193.014.392.016.586.043 5.988-4.617 12.915-13.243 12.976A13.612 13.612 0 0 1 0 16.014c.369.035.74.057 1.117.055a9.633 9.633 0 0 0 5.809-1.977c-2.051-.025-3.791-1.32-4.402-3.117.287.053.582.076.884.074.422 0 .838-.057 1.235-.166-2.149-.4-3.779-2.215-3.795-4.416 0-.014 0-.039-.002-.057a4.827 4.827 0 0 0 2.125.553C1.711 6.161.877 4.777.864 3.207A4.318 4.318 0 0 1 1.482.924c2.326 2.723 5.793 4.506 9.689 4.67a4.402 4.402 0 0 1-.127-1.03C11.025 2.059 13.108.016 15.696 0a4.769 4.769 0 0 1 3.435 1.404A9.539 9.539 0 0 0 22.1.287a4.594 4.594 0 0 1-2.049 2.52 9.43 9.43 0 0 0 2.687-.73 9.335 9.335 0 0 1-2.318 2.361z"/></svg>