<svg xmlns="http://www.w3.org/2000/svg" width="21" height="21" viewBox="0 0 21 21"><path fill="#222" d="M10.5 0C4.711 0 0 4.713 0 10.5c0 2.301.742 4.426 2 6.156L.688 20.558l4.037-1.293A10.431 10.431 0 0 0 10.5 21C16.292 21 21 16.293 21 10.5 21 4.713 16.292 0 10.5 0zm6.483 14.832c-.254.715-1.506 1.406-2.065 1.459-.563.048-.563.457-3.674-.768-3.115-1.227-5.078-4.42-5.229-4.622-.154-.207-1.252-1.66-1.252-3.166s.791-2.248 1.072-2.554c.281-.305.612-.383.817-.383s.408.027.586.027c.179 0 .435-.103.689.508.256.613.867 2.121.945 2.274.073.157.128.331.023.537-.102.205-.153.33-.303.512-.154.178-.324.396-.463.535-.15.154-.311.319-.134.623.18.309.797 1.31 1.705 2.122 1.169 1.043 2.156 1.367 2.461 1.518.309.154.485.127.666-.076.178-.203.766-.895.965-1.199.209-.306.41-.254.692-.152.278.103 1.783.843 2.093.996.305.152.508.229.586.355.074.128.074.741-.18 1.454z"/></svg>