<svg xmlns="http://www.w3.org/2000/svg" width="72" height="32" viewBox="0 0 72 32"><g fill="#fff"><path d="M6.501 29.671H3.874L1.041 2.329h2.586l1.56 20.773L7.199 2.329h2.34L6.501 29.671zM15.206 29.671V2.329h2.504v27.342h-2.504zM29.328 29.671l-.411-5.542h-2.709l-.575 5.542h-2.258l3.08-27.342h2.586l2.874 27.342h-2.587zm-1.601-20.65l-1.272 12.687h2.258l-.986-12.687zM40.824 30c-2.217 0-3.817-1.684-3.817-4.311v-6.898h2.381v7.145c0 .943.37 1.561 1.354 1.561.986 0 1.355-.617 1.355-1.561V2.329h2.463v23.36c0 2.627-1.518 4.311-3.736 4.311zM50.884 29.671V2.329h6.65v2.34h-4.188v9.771h3.037v2.341h-3.037v10.551h4.188v2.339h-6.65zM66.895 30c-2.545 0-4.063-1.889-4.063-4.639v-3.695h2.381v3.818c0 1.354.656 2.381 1.601 2.381 1.272 0 1.766-.862 1.766-2.381 0-2.752-.944-5.297-2.422-8.376-1.313-2.71-3.12-6.856-3.12-9.689 0-3.161 1.23-5.419 4.146-5.419 2.257 0 3.695 1.889 3.695 4.681v3.982h-2.341v-3.9c0-1.642-.493-2.423-1.396-2.423-1.068 0-1.725.698-1.725 2.176 0 3.203.985 5.337 2.668 8.869 1.561 3.325 2.874 6.486 2.874 9.36 0 4.27-2.421 5.255-4.064 5.255z"/></g></svg>