<svg xmlns="http://www.w3.org/2000/svg" width="172" height="32" viewBox="0 0 172 32"><g fill="#FFF"><path d="M27.868 13.772c1.949-1.191 1.201-3.675-.301-4.116-1.66-.487-2.879.74-2.989 2.066-.126 1.496 1.524 3.131 3.29 2.05z"/><path d="M39.817 12.044c-3.799.058-5.248 2.456-6.305 4.288-.998 1.734-2.361 4.056-3.699 6.156-1.339 2.105-3.021 2.922-2.654-2.633.213-3.216.358-3.825-1.195-3.825-1.36 0-1.6.732-4.205 4.101-1.432 1.852-2.844 3.906-4.932 4.001-2.146.098-4.193-5.174-4.193-5.174-.392.075 4.744-.886 7.609-4.657 2.688-3.536 1.613-11.181-7.076-9.659C7.024 5.717 3.534 11.245 3.038 17.16c-.182 2.178.326 7.389.614 8.586.286 1.194 1.299 1.884 2.473.991 1.897-1.445 1.438-2.164 1.103-3.763-1.021-4.872-1.915-10.036 1.798-13.379 2.617-2.354 8.235-2.458 9.163.993 1.097 4.077-4.276 5.25-6.82 5.614-2.604.37-2.771 2.16-2.248 3.726.525 1.567.696 2.048 2.263 4.765 2.617 4.534 6.85 2.684 8.354 1.088 1.311-1.388 4.004-4.743 4.004-4.743s-.309 2.173.12 4.036c.686 2.957 3.202 3.012 5.495 1.361 1.375-.988 3.606-4.922 3.606-4.922s1.506 6.043 6.548 6.043c3.82 0 6.328-3.653 6.615-6.973.337-3.894-2.223-8.599-6.309-8.539zm1.967 11.663c-1.711 1.079-3.842-1.076-4.832-2.956-1.166-2.221-.969-4.37.287-4.993 1.209-.599 3.219.132 4.585 2.27 1.111 1.734 1.623 4.633-.04 5.679zM68.858 12.005c-3.672-.139-5.929 2.297-7.229 4.541-1.115 1.928-.637 2.719-1.521 4.297-.818 1.469-3.131 3.406-6.156 3.277-2.508-.109-2.959-1.786-1.175-3.272 2.274-1.895 7.672-6.639 8.038-10.253.319-3.192-1.622-5.938-5.038-5.993-3.679-.061-6.361 1.845-7.202 3.477-.631 1.216.426 2.688 2.037 1.45 1.942-1.497 4.506-2.231 6.189-.249 1.76 2.07-.31 4.968-3.432 7.741-2.445 2.174-5.615 4.578-5.268 7.275.422 3.261 4.621 3.879 7.746 2.618 3.461-1.398 5.27-3.621 5.27-3.621s1.554 4.064 5.572 4.229c4.926.204 8.367-4.262 8.367-8.597.002-3.19-2.436-6.777-6.198-6.92zm1.825 11.365c-1.895 1.308-4.459.519-5.819-1.417-1.434-2.036-1.417-4.444 0-5.699 1.397-1.233 4.021-1.074 5.771 1.116 1.609 2.019 1.569 4.955.048 6zM93.837 14.335c-2.961 0-4.283.939-5.416 1.669 1.158-4.247 4.367-6.258 5.551-7.012 1.184-.748 2.359-1.387 2.549-2.508.272-1.643-1.098-1.431-1.891-1.02-.816.43-2.983 1.39-5.875 4.619-3.306 3.7-3.679 8.102-3.679 8.102s-.843.869-1.787 1.929a38.68 38.68 0 0 0-1.786 2.177s-.023-8.168-.023-9.946c0-1.173-.93-1.233-1.925-.655 0 0-2.365 1.306-3.129 2.045-.765.742-.205 1.602.415 1.865.621.264 1.434-.263 1.434-.263s-.029 9.49-.029 10.679c0 1.807 1.268 1.412 2.057.623.786-.789 3.482-3.762 4.889-5.212.74 2.855 2.941 6.021 6.715 6.105 3.779.077 7.514-3.199 7.514-7.466-.002-3.658-2.813-5.731-5.584-5.731zm2.048 8.468c-1.018 1.64-3.758 1.43-5.255.152-2.185-1.862-2.185-4.018-2.185-4.018s2.684-1.696 5.105-.886c2.315.774 3.309 3.184 2.335 4.752z"/></g><path fill="#FCB131" d="M133.817 21.666c-.514 4.299-4.121 7.628-8.532 7.628-4.7 0-8.539-3.84-8.539-8.595a8.58 8.58 0 0 1 5.389-7.965c.11-.46.172-.916.172-1.433v-.403c-4.241 1.261-7.281 5.217-7.281 9.801 0 5.724 4.585 10.311 10.26 10.311 5.269 0 9.624-3.952 10.196-9.052-.573-.052-1.146-.115-1.665-.292M124.826 12.159h.459c4.124 0 7.558 2.921 8.362 6.759.631.231 1.205.401 1.834.461-.629-5.039-4.984-8.938-10.196-8.938h-.459c.056.284.056.578.056.86 0 .287 0 .572-.056.858"/><path fill="#0081C4" d="M114.571 20.699c0-.287 0-.576.055-.864h-.455c-4.758 0-8.598-3.835-8.598-8.534a8.582 8.582 0 0 1 8.598-8.593c4.695 0 8.533 3.835 8.533 8.593 0 3.609-2.234 6.705-5.445 7.967a12.21 12.21 0 0 0-.113 1.43v.458c4.243-1.322 7.279-5.217 7.279-9.855 0-5.672-4.587-10.311-10.254-10.311-5.732 0-10.314 4.639-10.314 10.311 0 5.674 4.582 10.255 10.314 10.255h.455c-.055-.285-.055-.57-.055-.857"/><path d="M127.917 10.33c.516-4.297 4.131-7.621 8.539-7.621 4.697 0 8.534 3.835 8.534 8.593a8.586 8.586 0 0 1-5.386 7.967 6.2 6.2 0 0 0-.168 1.43v.458c4.234-1.322 7.279-5.217 7.279-9.855 0-5.672-4.59-10.311-10.26-10.311-5.271 0-9.629 3.952-10.197 9.053.569.055 1.147.167 1.659.286M136.856 20.699c0-.287 0-.576.058-.864h-.458a8.589 8.589 0 0 1-8.418-6.761c-.579-.224-1.15-.34-1.779-.457.629 5.046 4.983 8.94 10.197 8.94h.458c-.058-.286-.058-.571-.058-.858"/><path fill="#00A261" d="M156.108 21.666c-.516 4.299-4.121 7.628-8.537 7.628-4.697 0-8.539-3.84-8.539-8.595a8.587 8.587 0 0 1 5.384-7.965c.115-.46.179-.916.179-1.433v-.403c-4.242 1.261-7.278 5.217-7.278 9.801 0 5.724 4.583 10.311 10.255 10.311 5.271 0 9.628-3.952 10.197-9.052-.57-.052-1.147-.115-1.661-.292M147.172 11.301c0 .287 0 .571-.058.858h.457c4.125 0 7.564 2.921 8.422 6.816.571.175 1.146.344 1.775.404-.629-5.039-4.983-8.938-10.197-8.938h-.457c.058.285.058.578.058.86"/><path fill="#EE334E" d="M158.746.991c-5.272 0-9.626 3.952-10.202 9.052.576.057 1.145.168 1.662.287.518-4.297 4.125-7.621 8.54-7.621 4.698 0 8.537 3.835 8.537 8.593 0 4.698-3.839 8.534-8.537 8.534a8.591 8.591 0 0 1-8.422-6.761c-.575-.224-1.148-.34-1.78-.457.632 5.046 4.983 8.94 10.202 8.94A10.245 10.245 0 0 0 169 11.303C169 5.629 164.414.991 158.746.991"/></svg>