<svg xmlns="http://www.w3.org/2000/svg" width="85.5" height="22" viewBox="0 0 85.5 22"><path fill="#009CC1" d="M22.282 6.425v5.822h4.197v-1.395h-2.58v-.917h2.14V8.639h-2.14v-.82h2.505V6.425h-4.122zm6.566 1.394h.646c.206 0 .39.037.557.111.165.073.305.176.418.308.113.131.202.29.261.476.061.186.091.39.091.615 0 .218-.029.42-.087.606a1.405 1.405 0 0 1-.257.483 1.187 1.187 0 0 1-.419.32 1.348 1.348 0 0 1-.565.115h-.646l.001-3.034zm-1.615-1.394v5.822h2.263c.448 0 .854-.07 1.22-.211.364-.139.676-.335.936-.59.259-.254.46-.56.601-.918.141-.357.211-.759.211-1.202a3.38 3.38 0 0 0-.189-1.128 2.623 2.623 0 0 0-.565-.922 2.668 2.668 0 0 0-.93-.623c-.37-.154-.798-.23-1.285-.23h-2.262v.002zm5.945 5.824h1.616V6.425h-1.616v5.824zm8.057 0h1.618V6.425h-1.618v5.824zm6.253-5.824v2.96l-2.364-2.96h-1.26v5.822h1.616V9.385l2.34 2.862h1.285V6.425h-1.617zm4.908 1.666l.521 1.951h-1.07l.549-1.951zm-.655-1.666l-2.195 5.822h1.713l.35-1.141h1.566l.355 1.141h1.709L53.05 6.425h-1.309zm-14.614.221c-.35.17-.649.391-.895.665a2.835 2.835 0 0 0-.561.926 3.038 3.038 0 0 0-.189 1.049c0 .372.068.736.206 1.099.138.36.331.685.576.967.247.284.541.514.884.684.343.175.718.26 1.126.26a2.998 2.998 0 0 0 1.4-.355c.217-.114.409-.254.577-.426.168-.17.294-.358.377-.572l-1.318-.78a1.024 1.024 0 0 1-.427.554.879.879 0 0 1-.285.121c-.1.025-.196.036-.29.036a.96.96 0 0 1-.501-.126 1.173 1.173 0 0 1-.375-.341 1.557 1.557 0 0 1-.232-.491 2.194 2.194 0 0 1-.079-.583c0-.181.023-.363.066-.545.044-.183.114-.347.211-.492.098-.145.219-.263.365-.353a.978.978 0 0 1 .526-.135c.089 0 .185.012.29.034a.895.895 0 0 1 .299.116.923.923 0 0 1 .26.221c.08.092.145.21.195.352l1.236-.867a2.176 2.176 0 0 0-.87-.924c-.392-.231-.852-.347-1.375-.347a2.724 2.724 0 0 0-1.197.253"/><path fill="#009CC1" d="M1.475 0C.66 0 0 .66 0 1.476v11.803c0 .813.66 1.478 1.475 1.478h19.427c.814 0 1.476-.663 1.476-1.478V1.476A1.477 1.477 0 0 0 20.902 0H1.475z"/><path fill="#FFF" d="M5.33 4.815h1.084c.343 0 .655.062.932.187.278.125.514.297.705.52.188.221.335.488.437.804.102.313.154.659.154 1.038 0 .369-.049.711-.146 1.025a2.44 2.44 0 0 1-.432.816 1.975 1.975 0 0 1-.702.54c-.279.13-.594.195-.947.195H5.33V4.815zM2.616 2.462v9.831h3.799c.751 0 1.433-.117 2.046-.354a4.52 4.52 0 0 0 1.573-.994 4.418 4.418 0 0 0 1.007-1.551c.236-.605.355-1.281.355-2.03 0-.673-.106-1.309-.319-1.904a4.447 4.447 0 0 0-.947-1.557A4.44 4.44 0 0 0 8.573 2.85c-.623-.258-1.343-.388-2.158-.388H2.616zm9.834 9.833h2.705l-.093-5.181 1.656 3.641h1.446l1.657-3.641v5.177h2.714V2.462h-2.951l-2.143 4.624-2.129-4.625-2.862-.002v9.836z"/><g fill="#009CC1"><path d="M56.25 12.185c0-.212.149-.371.356-.371.206 0 .347.153.347.371 0 .213-.141.374-.36.374-.2 0-.343-.162-.343-.374zM59.633 12.393a2.05 2.05 0 0 1-.821.164c-.861 0-1.422-.584-1.422-1.458 0-.879.603-1.522 1.533-1.522.308 0 .579.077.721.154l-.119.395a1.26 1.26 0 0 0-.602-.135c-.654 0-1.009.489-1.009 1.08 0 .661.425 1.068.99 1.068.297 0 .49-.071.639-.135l.09.389zM62.824 11.04c0 1.056-.737 1.519-1.422 1.519-.767 0-1.368-.568-1.368-1.471 0-.951.632-1.51 1.415-1.51.821 0 1.375.595 1.375 1.462zm-2.261.03c0 .627.353 1.098.861 1.098.496 0 .868-.467.868-1.11 0-.482-.243-1.091-.855-1.091-.607.001-.874.566-.874 1.103zM63.478 10.41c0-.302-.012-.538-.022-.773h.453l.023.466h.021c.156-.272.425-.525.901-.525a.84.84 0 0 1 .801.572h.013c.089-.164.207-.282.323-.37a.96.96 0 0 1 .627-.202c.383 0 .944.249.944 1.239v1.676h-.509v-1.611c0-.554-.205-.88-.62-.88-.299 0-.523.218-.618.468a.883.883 0 0 0-.041.258v1.764h-.509v-1.71c0-.455-.198-.779-.594-.779-.319 0-.563.259-.644.521a.676.676 0 0 0-.041.253v1.717h-.509V10.41h.001z"/></g><path fill="#009CC1" d="M23.771 18.046c.068.036.154.068.254.097l.35.101c.188.053.356.107.507.169.152.06.28.135.387.226a.888.888 0 0 1 .245.328c.056.127.086.281.086.463 0 .221-.042.408-.125.561a1.061 1.061 0 0 1-.329.368 1.354 1.354 0 0 1-.471.203 2.238 2.238 0 0 1-.548.064c-.142 0-.29-.01-.438-.032a3.324 3.324 0 0 1-.857-.249 2.223 2.223 0 0 1-.374-.205l.395-.789c.019.021.069.054.149.107.081.051.181.104.297.153.119.052.252.099.399.139.146.039.296.06.447.06.32 0 .48-.096.48-.292a.243.243 0 0 0-.072-.181.647.647 0 0 0-.198-.129 1.866 1.866 0 0 0-.297-.109c-.115-.032-.24-.069-.376-.111a3.069 3.069 0 0 1-.468-.179 1.328 1.328 0 0 1-.332-.224.752.752 0 0 1-.197-.293 1.1 1.1 0 0 1-.063-.386c0-.206.038-.389.115-.546.078-.159.183-.293.314-.4.133-.108.286-.189.46-.245.175-.057.362-.081.555-.081.139 0 .275.012.407.035.134.027.258.061.377.102.12.04.235.085.339.137.108.052.204.104.288.154l-.39.752a1.007 1.007 0 0 0-.12-.083 2.29 2.29 0 0 0-.574-.242 1.26 1.26 0 0 0-.353-.05c-.156 0-.273.027-.357.084a.27.27 0 0 0-.124.242c0 .068.019.121.056.166a.48.48 0 0 0 .156.115m4.958 2.571a2.314 2.314 0 0 1-.19.009c-.163-.003-.286-.035-.369-.1a.414.414 0 0 1-.161-.27l-.015-.134c-.13.167-.282.294-.461.382s-.366.13-.566.13c-.144 0-.275-.021-.399-.065a1.035 1.035 0 0 1-.318-.194.947.947 0 0 1-.209-.293.864.864 0 0 1-.077-.368.839.839 0 0 1 .349-.694c.109-.085.239-.151.39-.198.151-.05.318-.072.501-.072.121 0 .239.01.352.029.115.022.213.052.298.09v-.131c0-.335-.192-.5-.578-.5-.159 0-.31.025-.453.079s-.296.132-.452.24l-.258-.553a2.215 2.215 0 0 1 1.253-.376c.437 0 .776.104 1.015.309.239.207.358.509.358.904v.746c0 .087.018.148.05.184.033.035.092.058.176.065v.744a1.242 1.242 0 0 1-.236.037m-.874-1.28a1.2 1.2 0 0 0-.251-.07 1.264 1.264 0 0 0-.251-.024.691.691 0 0 0-.4.109.338.338 0 0 0-.159.289c0 .106.041.195.122.264a.47.47 0 0 0 .308.1.808.808 0 0 0 .279-.049.686.686 0 0 0 .225-.132c.083-.068.126-.138.126-.209l.001-.278zm2.686 1.252a2.09 2.09 0 0 1-.396.045c-.254 0-.449-.069-.587-.2-.139-.133-.208-.323-.208-.574v-3.305h.882V19.5c0 .223.096.333.288.333.041 0 .086-.01.139-.024a.715.715 0 0 0 .146-.055l.117.713a1.723 1.723 0 0 1-.381.122m3.458.028a2.097 2.097 0 0 1-.181.009c-.309-.003-.487-.125-.535-.368l-.017-.176a1.228 1.228 0 0 1-.493.423 1.591 1.591 0 0 1-.658.132c-.297 0-.52-.092-.676-.277-.154-.186-.23-.46-.23-.819v-1.854h.882v1.661c0 .176.035.312.105.404a.345.345 0 0 0 .297.141.688.688 0 0 0 .343-.094.824.824 0 0 0 .292-.325v-1.787h.882v1.901c0 .09.017.151.048.186.035.034.092.056.178.064v.745c-.09.019-.17.03-.237.034m3.632 0c-.069.006-.13.009-.184.009-.31-.008-.486-.129-.53-.368l-.017-.156a.993.993 0 0 1-.42.401c-.172.09-.358.132-.557.132a1.295 1.295 0 0 1-.981-.428 1.551 1.551 0 0 1-.285-.477 1.76 1.76 0 0 1-.101-.602c0-.207.031-.407.093-.588.063-.185.151-.344.265-.479.113-.133.25-.24.405-.316.156-.077.328-.116.514-.116.2 0 .381.049.546.144a.984.984 0 0 1 .381.387v-1.605h.882v3.034c0 .09.017.151.05.186.034.034.092.056.177.064v.744c-.091.019-.17.03-.238.034m-.861-1.734a.806.806 0 0 0-.269-.36.624.624 0 0 0-.384-.142.541.541 0 0 0-.262.065.666.666 0 0 0-.207.166.721.721 0 0 0-.134.243.895.895 0 0 0-.047.293c0 .217.064.395.191.533.128.144.296.21.502.21a.624.624 0 0 0 .348-.107.74.74 0 0 0 .26-.297v-.604h.002zm4.326 2.167c-.08.245-.219.438-.409.583a1.109 1.109 0 0 1-.671.223 1.501 1.501 0 0 1-.485-.083v-.757c.082.024.153.042.223.055.068.011.127.017.18.017a.28.28 0 0 0 .233-.113c.061-.074.11-.207.151-.393l-1.098-2.896h.905l.679 2.139.579-2.139h.82l-1.107 3.364zm5.719-1.316a1.46 1.46 0 0 1-.283.476 1.299 1.299 0 0 1-.966.426c-.221 0-.412-.046-.576-.138a1.04 1.04 0 0 1-.388-.396v.479h-.772v-4.027h.882v1.606c.095-.165.223-.295.384-.389a1.1 1.1 0 0 1 .571-.142c.185 0 .353.041.504.12.155.079.286.186.396.322.109.136.196.298.26.482a1.832 1.832 0 0 1-.012 1.181m-.849-.88a.755.755 0 0 0-.134-.247.645.645 0 0 0-.471-.225.593.593 0 0 0-.382.143.968.968 0 0 0-.269.358v.607c.063.124.15.223.26.297.11.069.226.105.348.105a.684.684 0 0 0 .503-.213.687.687 0 0 0 .141-.236.91.91 0 0 0 .004-.589m1.347-1.167h.883v2.896h-.883v-2.896zm0-1.132h.883v.801h-.883v-.801zm4.537 2.722c-.005.05-.009.094-.017.128h-2.14c.013.195.085.344.212.444a.663.663 0 0 0 .434.152.774.774 0 0 0 .373-.094.502.502 0 0 0 .239-.252l.751.207a1.372 1.372 0 0 1-.531.558c-.236.144-.524.214-.86.214-.242 0-.46-.038-.653-.117a1.441 1.441 0 0 1-.49-.322 1.333 1.333 0 0 1-.305-.471 1.506 1.506 0 0 1-.107-.562c0-.21.036-.406.107-.592a1.34 1.34 0 0 1 .302-.487c.133-.142.296-.251.487-.333.191-.079.415-.12.659-.12.247 0 .468.041.658.12.189.082.353.191.484.329.132.139.231.298.3.479.067.179.101.368.101.569.002.05 0 .101-.004.15m-1.125-.85c-.114-.109-.255-.161-.426-.161s-.314.055-.426.164a.655.655 0 0 0-.196.433h1.247a.654.654 0 0 0-.199-.436m3.327 2.155v-1.627c0-.19-.036-.33-.107-.415a.348.348 0 0 0-.283-.131.548.548 0 0 0-.192.039.703.703 0 0 0-.182.109.97.97 0 0 0-.159.161.74.74 0 0 0-.108.204v1.66h-.883v-2.896h.794v.488c.107-.176.257-.309.452-.402.194-.095.42-.142.673-.142.186 0 .341.037.455.104a.72.72 0 0 1 .266.262c.063.111.104.227.127.357.018.127.027.253.027.376v1.853h-.88zm4.5-1.305a.782.782 0 0 1-.017.128h-2.142c.017.195.087.344.213.444a.667.667 0 0 0 .435.152.773.773 0 0 0 .372-.094.496.496 0 0 0 .24-.252l.749.207a1.36 1.36 0 0 1-.529.558c-.239.144-.525.214-.861.214-.242 0-.46-.038-.652-.117a1.44 1.44 0 0 1-.492-.322 1.361 1.361 0 0 1-.305-.471 1.524 1.524 0 0 1-.105-.562c0-.21.035-.406.105-.592a1.42 1.42 0 0 1 .79-.82c.194-.079.412-.12.659-.12.248 0 .467.041.656.12.192.082.354.191.485.329.133.139.234.298.301.479.069.179.102.368.102.569.002.05 0 .101-.004.15m-1.126-.85a.588.588 0 0 0-.425-.161.594.594 0 0 0-.428.164.658.658 0 0 0-.195.433h1.246a.653.653 0 0 0-.198-.436m2.267.239c.04.023.096.045.166.065.071.022.156.046.26.07.211.057.393.11.54.165.147.058.268.116.359.186s.157.146.2.235a.766.766 0 0 1 .061.313.878.878 0 0 1-.085.389.846.846 0 0 1-.248.295 1.141 1.141 0 0 1-.388.188 1.755 1.755 0 0 1-.507.066 2.93 2.93 0 0 1-.378-.026 3.592 3.592 0 0 1-.759-.189 1.996 1.996 0 0 1-.307-.152l.347-.594c.19.109.376.193.556.252.183.06.354.089.52.089a.631.631 0 0 0 .298-.061.2.2 0 0 0 .101-.178c0-.078-.048-.135-.138-.18a3.135 3.135 0 0 0-.474-.149 5.913 5.913 0 0 1-.496-.156 1.35 1.35 0 0 1-.329-.174.57.57 0 0 1-.179-.218.707.707 0 0 1-.057-.288.883.883 0 0 1 .344-.708c.106-.086.23-.153.378-.202.145-.046.302-.069.479-.069.201 0 .408.029.618.089.211.063.419.146.62.252l-.347.557a2.95 2.95 0 0 0-.481-.218 1.368 1.368 0 0 0-.41-.068.568.568 0 0 0-.273.057.194.194 0 0 0-.108.184c0 .043.01.075.026.104a.282.282 0 0 0 .091.074m3.234 1.101a.273.273 0 0 0 .186.066.699.699 0 0 0 .199-.034 2.58 2.58 0 0 0 .188-.069l.165.699c-.12.051-.258.1-.415.144a1.703 1.703 0 0 1-.473.064c-.111 0-.214-.012-.313-.037a.643.643 0 0 1-.43-.375.942.942 0 0 1-.062-.359v-1.51h-.37v-.666h.37v-.922h.882v.922h.59v.666h-.59v1.21c-.001.091.023.161.073.201m3.593.85a2.215 2.215 0 0 1-.189.009c-.16-.003-.287-.035-.368-.1a.402.402 0 0 1-.16-.27l-.017-.134a1.267 1.267 0 0 1-1.027.512c-.143 0-.277-.021-.399-.065a1.03 1.03 0 0 1-.317-.194 1.037 1.037 0 0 1-.209-.293.863.863 0 0 1-.076-.368c0-.144.03-.274.089-.392a.957.957 0 0 1 .257-.302c.112-.085.242-.151.393-.198a1.58 1.58 0 0 1 .501-.072c.12 0 .241.01.354.029.113.022.212.052.296.09v-.131c0-.335-.192-.5-.576-.5-.16 0-.311.025-.453.079s-.295.132-.451.24l-.26-.553a2.223 2.223 0 0 1 1.252-.376c.438 0 .776.104 1.016.309.239.205.359.509.359.904v.746c0 .087.016.148.047.184.033.035.092.058.178.065v.744a1.291 1.291 0 0 1-.24.037m-.874-1.28a1.183 1.183 0 0 0-.251-.07 1.295 1.295 0 0 0-.252-.024.685.685 0 0 0-.398.109.34.34 0 0 0-.156.289c0 .106.037.195.121.264.078.068.184.1.307.1a.786.786 0 0 0 .278-.049.671.671 0 0 0 .224-.132c.086-.068.126-.138.126-.209l.001-.278zm2.76-.79a.724.724 0 0 0-.376.296v1.738h-.883v-2.897h.81v.585c.104-.195.234-.346.389-.454a.922.922 0 0 1 .636-.167v.794a1.653 1.653 0 0 0-.576.105"/></svg>