<svg xmlns="http://www.w3.org/2000/svg" width="79" height="26" viewBox="0 0 79 26"><g fill="#FFF"><path d="M23.145 24.261h7.893v-1.027h-1.692a2.11 2.11 0 0 1-.425-.092 2.21 2.21 0 0 1-.694-.271c-.242-.244-.333-.545-.333-1.12V4.06l6.805 20.201h2.238l6.896-20.232v18.116a.91.91 0 0 1-.363.727c-.183.15-.636.302-1.058.363H40.655v1.027h11.161v-1.027h-1.662c-.999 0-1.575-.575-1.575-1.483V5.028c0-.667.062-.877.393-1.089.184-.181.636-.333 1.12-.394h1.754v-1.09h-9.072L37.479 17.88 32.338 2.456h-9.164v1.09h1.665c.905 0 1.511.575 1.511 1.482v16.119l.032.604c0 .876-.665 1.483-1.575 1.483h-1.662v1.027zM2 24.261h19.598l.604-7.015h-1.149c-.454 3.901-2.932 6.048-7.045 6.048h-3.024c-.816 0-1.149-.393-1.149-1.271V12.89h1.573c1.602 0 3.023.363 3.658.937.634.604 1.088 1.724 1.088 2.752 0 .182 0 .394-.029.606h1.119V7.658l-1.119-.029v.241c0 2.631-1.664 4.054-4.717 4.054H9.833v-7.44c0-.816.241-1.058.997-1.058h3.024c2.39 0 3.63.363 4.93 1.451.968.786 1.724 1.966 1.904 3.024.062.271.091.635.121 1.09h1.271l-.515-6.534H2v1.059h1.693c.877 0 1.482.545 1.482 1.482v16.784c0 .877-.605 1.452-1.513 1.452H2v1.027zM75.767 18.632A12.372 12.372 0 0 0 77 13.772H65.297v4.959h10.42l.05-.099zM63.984 7.194H53.65a12.41 12.41 0 0 0-1.518 5.27h11.852v-5.27zM65.297 7.194v5.27h11.695a12.424 12.424 0 0 0-1.517-5.27H65.297zM63.984 13.771H52.125c.08 1.776.533 3.453 1.277 4.959h10.582v-4.959zM63.984 20.038h-9.829a12.447 12.447 0 0 0 9.829 5.6v-5.6zM65.297 5.884h9.344A12.439 12.439 0 0 0 65.297.768v5.116zM65.297 20.038v5.591a12.436 12.436 0 0 0 9.67-5.591h-9.67zM63.984 5.884V.761a12.429 12.429 0 0 0-9.497 5.123h9.497z"/></g></svg>