<svg xmlns="http://www.w3.org/2000/svg" width="138" height="22" viewBox="0 0 138 22"><path fill="#211915" d="M50.575 18.582h5.597v-.729h-1.201c-.043 0-.152-.022-.301-.065a1.54 1.54 0 0 1-.492-.192c-.172-.172-.236-.387-.236-.794V4.257l4.824 14.325h1.588l4.89-14.347v12.843a.642.642 0 0 1-.258.517c-.128.106-.45.215-.751.257H62.99v.729h7.915v-.729h-1.182c-.705 0-1.114-.407-1.114-1.052V4.942c0-.47.044-.622.28-.771.129-.127.45-.236.793-.278h1.244V3.12h-6.435l-3.753 10.938L57.094 3.12h-6.497v.774h1.18c.642 0 1.071.406 1.071 1.049v11.432l.021.428c0 .622-.472 1.052-1.115 1.052h-1.179v.727zM71.214 3.828h1.223c.043 0 .17.043.3.087.194.042.364.107.471.191.172.15.236.301.236.558v9.8c0 1.76.472 2.767 1.588 3.39 1.007.621 2.638.987 4.203.987 1.777 0 3.538-.516 4.418-1.245.45-.408.813-.987.985-1.694.171-.581.258-1.309.258-2.081V4.9c0-.644.45-1.072 1.138-1.072h1.197V3.12h-5.639v.708h1.203c.6 0 1.007.451 1.007 1.072v9.029c0 2.445-1.007 3.452-3.537 3.452-1.675 0-2.918-.58-3.305-1.587-.126-.321-.171-.752-.171-1.672V4.9c0-.622.43-1.072 1.094-1.072h1.179V3.12h-7.848v.708zM87.538 18.582h5.683v-.729h-1.222c-.021 0-.15-.022-.32-.042-.195-.064-.386-.13-.517-.215-.19-.172-.257-.343-.257-.794V6.252l7.87 12.33h2.381V4.644c0-.323.257-.579.729-.708.13-.02.277-.064.301-.064h1.199V3.12h-5.532v.751h1.18c.665 0 1.093.429 1.093 1.071v9.565L92.835 3.12H87.56v.774h1.181c.643 0 1.092.406 1.092 1.049v11.859c0 .622-.472 1.052-1.113 1.052h-1.181v.728h-.001z"/><path fill-rule="evenodd" clip-rule="evenodd" fill="#211915" d="M103.797 18.582h8.322c4.312 0 7.419-3.325 7.419-7.935 0-2.659-1.223-5.018-3.302-6.369-1.245-.793-2.596-1.159-4.354-1.159h-8.086v.751H105c.643 0 1.072.408 1.072 1.071v11.86c0 .407-.087.645-.28.816-.127.085-.474.193-.771.279h-1.224v.686zm5.599-1.673V4.729c0-.728.171-.922.835-.922h1.975c1.094 0 2.144.537 2.701 1.394.386.623.665 1.458.836 2.682.107.856.17 2.123.17 3.044 0 4.783-1.242 6.991-3.943 6.991h-1.715c-.646-.001-.859-.237-.859-1.009zM120.966 10.861c0 4.741 2.894 7.935 7.204 7.935s7.229-3.194 7.229-7.935c0-2.229-.665-4.18-1.953-5.681-1.285-1.523-3.002-2.273-5.275-2.273-2.274 0-3.924.73-5.297 2.273-1.243 1.436-1.908 3.452-1.908 5.681zm4.01-4.48c.428-1.695 1.521-2.574 3.194-2.574s2.746.879 3.217 2.574c.301 1.093.387 2.251.387 4.48 0 2.21-.086 3.347-.387 4.46-.45 1.674-1.544 2.575-3.217 2.575s-2.744-.901-3.194-2.575c-.321-1.091-.429-2.229-.429-4.46 0-2.252.107-3.365.429-4.48z"/><path fill="#211915" d="M2.539 18.582h13.896l.429-4.974h-.816c-.321 2.766-2.079 4.289-4.995 4.289H8.908c-.58 0-.815-.279-.815-.901v-6.475h1.115c1.137 0 2.144.256 2.596.663.448.428.771 1.222.771 1.951 0 .129 0 .281-.021.43h.793V6.81l-.793-.023v.172c0 1.865-1.18 2.875-3.347 2.875H8.093V4.558c0-.579.173-.751.709-.751h2.144c1.694 0 2.572.258 3.496 1.03.687.558 1.221 1.395 1.35 2.144.043.193.065.451.086.772h.901l-.365-4.633H2.539v.751H3.74c.621 0 1.051.386 1.051 1.051v11.901c0 .623-.43 1.03-1.072 1.03h-1.18v.729zM17.09 3.871h1.182c.664 0 1.092.408 1.092 1.071v11.839c0 .428-.084.643-.258.815-.149.106-.471.215-.771.257H17.09v.729h13.276l.321-6.089h-.88c-.515 3.431-2.167 5.404-4.611 5.404h-1.715c-.58 0-.839-.279-.839-.923V4.942c0-.643.431-1.071 1.075-1.071h1.2V3.12H17.09v.751z"/><g fill="#FFD7F5"><path d="M48.842 14.525a8.802 8.802 0 0 0 .871-3.446h-8.298v3.516h7.39l.037-.07zM40.485 6.415h-7.327a8.759 8.759 0 0 0-1.078 3.737h8.405V6.415zM41.415 6.415v3.737h8.294a8.813 8.813 0 0 0-1.076-3.737h-7.218zM40.485 11.079h-8.411a8.86 8.86 0 0 0 .908 3.516h7.503v-3.516zM40.485 15.522h-6.97a8.827 8.827 0 0 0 6.97 3.971v-3.971zM41.415 5.486h6.626a8.818 8.818 0 0 0-6.626-3.627v3.627zM41.415 15.522v3.964a8.82 8.82 0 0 0 6.858-3.964h-6.858zM40.485 5.486V1.853a8.823 8.823 0 0 0-6.737 3.633h6.737z"/></g><path fill="#EA47A8" d="M44.408 4.36s-3.039-2.62-6.072.184c0 0-1.063-3.877 3.01-3.886 3.776-.007 3.062 3.702 3.062 3.702z"/><path fill="#FF8BA3" d="M38.336 4.544a4.328 4.328 0 0 1-.117-.71 4.327 4.327 0 0 1-.002-.72c.039-.478.179-.958.451-1.357.137-.201.307-.378.5-.523.193-.147.411-.261.635-.348a4.24 4.24 0 0 1 1.418-.252c.482-.009.969.034 1.43.184.459.146.888.414 1.191.793.307.377.485.841.566 1.314a4.207 4.207 0 0 1 0 1.435c.037-.237.051-.477.047-.717a4.044 4.044 0 0 0-.069-.713c-.088-.47-.271-.927-.575-1.295a2.406 2.406 0 0 0-.531-.471 2.677 2.677 0 0 0-.645-.302c-.455-.146-.937-.188-1.414-.176-.475.01-.954.075-1.4.244a2.538 2.538 0 0 0-.625.339c-.19.142-.357.315-.492.51-.276.39-.416.863-.461 1.337a4.367 4.367 0 0 0 .093 1.428z"/><path fill="#ED6BB2" d="M42.622 13.29s2.381-4.403 2.483-4.719c.114-.348.729-1.82-.036-4.418-.761-2.598-1.785-3.016-1.785-3.016 1.677 1.114.646 3.26-.12 4.597-.143.25-.291.499-.443.744-.676 1.099-6.82 12.098-6.82 12.098l1.805 2.792 4.916-8.078z"/><path fill="#E6E6E6" d="M41.255 9.034c-.563.997-1.228 2.176-1.892 3.36.322.602.557 1.033.557 1.033l1.31 2.151 1.393-2.288s.226-.418.54-1.006c-.675-1.15-1.343-2.291-1.908-3.25z"/><path fill="#F275B3" d="M40.057 13.29s-2.381-4.403-2.484-4.719c-.113-.348-.728-1.82.035-4.418.76-2.598 1.787-3.016 1.787-3.016-1.677 1.114-.646 3.26.121 4.597.143.25.291.499.442.744.677 1.099 6.979 11.884 6.979 11.884l-1.962 3.006-4.918-8.078z"/></svg>