<svg id="Capa_1" xmlns="http://www.w3.org/2000/svg" viewBox="0 0 113 24"><style>.st0{fill-rule:evenodd;clip-rule:evenodd}</style><path class="st0" d="M16.5 12.4c-.2-.1-.4 0-.5.2-.7 1-1.5 1.9-2.3 2.9-.8 1-1.8 1.6-3.1 1.7-1.1.1-2.2.1-3.3.2h-.6V9.9h1.5c.3 0 .5.1.8.2.7.3 1.1.8 1.4 1.4.2.4.4.9.6 1.4.1.2.2.3.4.3h.3V5.4h-.3c-.2 0-.3.1-.4.3l-.6 1.5c-.3.7-.8 1.3-1.7 1.5H6.8V1.1H7c1 0 2 .1 3 .1 1.2.1 2.2.5 2.9 1.5.8 1.1 1.5 2.1 2.3 3.2.1.2.2.3.4.5.2-.1.4-.1.5-.1v-.2l-.3-4.2c0-.6-.1-1.2-.1-1.7H.5v.5c.5.1 1.2.3 1.9.5.2.1.3.1.3.3V17c0 .2-.1.2-.2.3-.6.2-1.3.4-1.9.6-.2 0-.2.1-.2.3v.3H16c.2 0 .3-.1.3-.3.1-1.5.3-3 .4-4.4 0-.4.1-.8.1-1.2-.2-.1-.2-.1-.3-.2zM82.8 4.3c.9.2 1.8-.3 2.3-1.1.4-.8.3-1.8-.3-2.5-.4-.4-.8-.6-1.3-.7h-.6-.1c-1.1.2-1.9 1.2-1.7 2.4.1 1 .8 1.7 1.7 1.9zM93.3 4.3c.2 0 .3-.1.4-.2.5-.8 1.1-1.6 1.6-2.5.3-.5.7-1.1 1-1.6h-3.8c-.4 1.4-.8 2.8-1.2 4.3h2zM42.8 7.6c-1.1-1.5-2.7-2.2-4.5-1.8-1.1.3-2.1.8-3 1.6-.1.1-.1.1-.3.2V6.3h-4.7c-.1.3 0 .4.2.5.3.1.7.3 1 .5.2.1.2.2.2.4v14.9c0 .2-.1.3-.3.4-.3.1-.6.3-.9.4-.2.1-.3.2-.2.5h6.5c.1-.3 0-.4-.2-.5-.4-.1-.8-.3-1.2-.5-.2-.1-.2-.1-.2-.3v-3.9-.2c1.1.2 2.2.2 3.3 0 2.2-.5 3.9-1.7 4.9-3.8.6-1.3.7-2.6.6-4-.2-1-.6-2.1-1.2-3.1zm-2.9 8.1c-.1.4-.3.7-.5 1-.8 1.4-2.3 1.3-3.2.7-.4-.2-.7-.6-1-1-.1-.1-.1-.2-.1-.3v-2-2-4c0-.2 0-.3.2-.3.7-.1 1.4-.2 2.1-.2 1.3.2 2 .9 2.4 2.1.3.9.4 1.7.4 2.6.1 1.3.1 2.4-.3 3.4zM112.5 18c-.3-.1-.6-.3-.9-.4-.2-.1-.2-.2-.2-.3V9.8v-.9c-.2-1.9-1.5-3.1-3.5-3-1 .1-1.9.4-2.7.9-.5.3-1 .8-1.5 1.1-.1 0-.1.1-.2.1 0-.1-.1-.2-.1-.2V6.6v-.3h-4.7c-.1.3 0 .4.3.5.4.2.7.3 1.1.5.1 0 .1.1.1.2v9.7c0 .1-.1.2-.2.2-.3.1-.7.3-1 .4-.3.1-.3.2-.2.5h5.9c.1-.3 0-.4-.2-.5-.2-.1-.5-.3-.7-.4-.1-.1-.2-.2-.2-.3V8.6c0-.1 0-.2.2-.3.8-.3 1.7-.5 2.5-.4.7.1 1.2.4 1.4 1.1.1.3.2.7.2 1v7.1c0 .1-.1.2-.2.2-.3.1-.6.3-.9.4-.2.1-.3.3-.2.5h6.1c.1 0 0-.2-.2-.2zM70.2 18c-.3-.1-.6-.3-.9-.4-.2-.1-.2-.2-.2-.4V9.6c0-.4 0-.9-.1-1.3-.3-1.1-.9-2-2.1-2.3-.9-.3-1.8-.2-2.8.2-1.1.4-1.9 1-2.8 1.8-.1 0-.2 0-.2.1H61V6.3h-4.7c-.1.3-.1.3.2.5.4.2.8.4 1.1.5.1.1.2.1.2.2v9.7c0 .1-.1.2-.2.3-.3.1-.6.3-1 .4-.3.1-.3.3-.2.5h5.9c.1-.3 0-.4-.2-.5-.2-.1-.4-.3-.7-.4-.2-.1-.2-.2-.2-.4v-3.5-4.9c0-.1 0-.2.1-.3.9-.2 1.7-.4 2.6-.3.7.1 1.2.4 1.4 1.1.1.4.2.7.2 1.1v7c0 .1-.1.2-.2.2-.2.2-.5.3-.7.4-.3.1-.3.2-.2.5h5.9c.2-.2.1-.3-.1-.4z"/><path class="st0" d="M98.7 9.9c-.5-1.7-1.6-3-3.3-3.7-1.1-.4-2.3-.5-3.5-.4-2.4.3-4.1 1.5-5.1 3.7-.9 1.9-.8 3.8-.1 5.7.5 1.3 1.4 2.4 2.7 3 .9.5 2 .6 3 .7.5 0 .9-.1 1.4-.1 1.8-.3 3.2-1.2 4.2-2.8 1.2-2 1.3-4.1.7-6.1zM95 15.5c-.2.7-.4 1.3-.9 1.8-.8.8-2.2.8-3-.1-.6-.6-.8-1.5-1-2.3-.1-.3-.1-.6-.1-.9-.1-.6-.1-1.2-.1-1.5 0-1.4.1-2.6.4-3.7.2-.6.4-1.1.8-1.5.8-.9 2.3-.9 3.1 0 .5.6.8 1.3.9 2.1.4 2 .4 4.1-.1 6.1zM55.5 18c-.3-.1-.6-.3-.9-.4-.2-.1-.2-.1-.2-.3v-3.7-4.3c0-1.8-1.3-3.1-3.1-3.3-1.1-.1-2.1 0-3.1.3s-1.9.6-2.7 1.3c-.6.6-1.1 1.2-.9 2.1.1 1 1 1.6 2 1.5.9-.1 1.6-1 1.4-2-.1-.7-.4-1.2-.9-1.6l-.2-.2c.4 0 .7-.1 1-.1h1c1.3.1 2 .8 2.1 2.2V12.4h-.4c-1.1 0-2.3.1-3.4.5-.9.3-1.7.7-2.4 1.4-1.2 1.3-1.1 3.9 1.2 4.6 1 .3 2.1.3 3.1-.2.7-.3 1.2-.7 1.7-1.2.1-.1.2-.1.3 0 .2.8.6 1.1 1.4 1.1H55.8c.1-.4 0-.6-.3-.6zm-4.7-1.2c-.4.2-.9.4-1.4.4-.7 0-1.3-.4-1.6-1.1-.3-1.1-.1-2.4 1.4-2.9.3-.1.7-.2 1-.2.3 0 .5-.1.8-.1V16.5c0 .2-.1.3-.2.3zM29.6 18c-.3-.1-.6-.2-.9-.4-.1 0-.2-.1-.3-.2-1.3-1.8-2.6-3.7-3.8-5.5-.1-.2-.1-.3 0-.4l2.7-3.3c.4-.6.9-1 1.6-1.3.1 0 .2-.1.3-.2.3-.1.3-.2.2-.5H25c-.1.3 0 .4.2.5.3.1.5.3.8.5-.7 1.2-1.4 2.3-2.2 3.5-.7-1.2-1.4-2.4-2.1-3.5.3-.1.6-.3.9-.4.3-.1.3-.2.2-.5h-6.4c-.1.2 0 .4.2.5.3.1.5.2.8.3.1.1.3.2.4.3 1.2 1.8 2.5 3.6 3.7 5.4.1.2.1.3 0 .4-1.1 1.3-2.2 2.7-3.4 4l-.2.2c-.3.2-.7.4-1 .5-.2.1-.3.3-.2.5h4.4c.1-.3.1-.4-.2-.5-.3-.1-.5-.3-.8-.5.8-1.2 1.6-2.3 2.4-3.5.7 1.2 1.4 2.4 2.2 3.5-.4.2-.7.3-1 .5-.3.1-.3.1-.2.5H30c-.1-.3-.1-.3-.4-.4zM79.5 12.6c-.5-.6-1.1-1-1.8-1.3l-2.1-.9c-.5-.2-.9-.5-1.4-.8-.6-.4-.7-1.2-.5-1.8.2-.7.8-1 1.5-1.1.7 0 1.3.3 1.8.8.5.6 1.1 1.2 1.6 1.9.2.3.4.4.8.3h.1v-.3c0-.9 0-1.9-.1-2.8 0-.2-.1-.2-.2-.3-1.2-.3-2.4-.5-3.7-.4-1.2.1-2.3.4-3.2 1.2-1.4 1.2-1.7 3.2-.7 4.6.5.6 1.1 1.1 1.8 1.4.8.4 1.6.7 2.4 1.1.4.2.9.5 1.2.8.6.5.7 1.2.5 1.9-.2.7-.7 1.1-1.5 1.1-.8.1-1.5-.2-2.1-.7-.8-.7-1.5-1.6-2.1-2.4-.2-.3-.4-.5-.8-.3v.1c0 1.1 0 2.2.1 3.3 0 .2.1.3.2.3 1.5.5 3 .7 4.6.6 1.3-.1 2.5-.6 3.4-1.5 1.1-1.5 1.3-3.5.2-4.8z"/><path class="st0" d="M86.2 18c-.3-.1-.6-.3-.9-.4-.2-.1-.2-.2-.2-.4V6.6v-.3h-5c-.1.2 0 .4.2.5.4.2.8.4 1.2.5.1 0 .2.2.2.2v9.7c0 .1 0 .2-.2.2-.4.1-.7.3-1.1.5-.3.1-.3.2-.2.5h6.3c0-.2-.1-.4-.3-.4z"/></svg>