<svg xmlns="http://www.w3.org/2000/svg" width="445.88" height="127.396" viewBox="0 0 445.88 127.396"><path d="M47.772 5.932H20.925c-4.163 0-5.492-1.645-6.035-3.954C14.473.208 13.536 0 12.912 0c-.625 0-1.041 1.249-1.353 1.978C11.247 2.706.841 28.304.217 29.657c-.625 1.353.208 2.601 1.145 2.601 1.458 0 2.118-.36 2.602-1.769C5.212 26.847 16.45 11.447 29.25 11.447c6.14 0 8.949 4.162 8.949 8.949v84.496c0 5.62-4.266 12.487-14.776 12.487-1.561 0-2.497.728-2.497 1.873s.624 2.081 2.289 2.081h49.948c1.665 0 2.29-.936 2.29-2.081s-.937-1.873-2.498-1.873c-10.51 0-14.776-6.868-14.776-12.487V20.396c0-4.787 2.81-8.949 8.949-8.949 12.799 0 24.037 15.4 25.286 19.043.483 1.409 1.145 1.769 2.602 1.769.937 0 1.769-1.249 1.145-2.601-.625-1.353-11.03-26.952-11.343-27.68C84.505 1.249 84.088 0 83.464 0c-.624 0-1.561.208-1.977 1.978-.544 2.31-1.874 3.954-6.036 3.954H47.772zM138.182 5.932h27.68c4.162 0 5.491-1.645 6.035-3.954C172.312.208 173.25 0 173.874 0s1.041 1.249 1.353 1.978c.312.728 10.718 26.327 11.343 27.68.624 1.353-.208 2.601-1.145 2.601-1.457 0-1.777-.528-2.601-1.769-9.261-13.944-18.21-19.771-32.987-19.771-6.14 0-12.279 4.371-12.279 11.238v23.31H156.6a7.6 7.6 0 0 0 7.597-7.596v-7.805a2.29 2.29 0 0 1 4.578 0v37.877a2.29 2.29 0 0 1-4.578 0v-7.805a7.599 7.599 0 0 0-7.597-7.596h-19.042v50.156c0 8.533 5.411 14.36 13.111 14.36 23.934 0 33.299-18.73 36.212-24.974.63-1.35 1.145-1.769 2.601-1.769.937 0 1.77 1.249 1.145 2.602-.624 1.353-14.256 31.738-14.568 32.466-.312.729-.729 1.977-1.353 1.977s-1.561-.208-1.977-1.977c-.543-2.31-1.873-3.954-6.035-3.954h-28.512s-33.715.104-35.38.104-2.29-.936-2.29-2.081.937-1.873 2.498-1.873c10.51 0 14.776-6.764 14.776-12.383V22.477c0-5.62-4.266-12.487-14.776-12.487-1.561 0-2.498-.729-2.498-1.874s.625-2.081 2.29-2.081 35.38-.103 35.38-.103zM229.382 21.957v80.542c0 8.533 5.412 14.36 13.112 14.36 23.933 0 33.299-18.73 36.212-24.974.63-1.35 1.145-1.769 2.602-1.769.937 0 1.769 1.249 1.145 2.602s-14.256 31.738-14.568 32.466c-.312.729-.728 1.977-1.353 1.977s-1.561-.208-1.978-1.977c-.543-2.31-1.873-3.954-6.035-3.954h-28.512s-33.715.104-35.38.104-2.289-.936-2.289-2.081.936-1.873 2.497-1.873c10.51 0 14.777-6.764 14.777-12.383v-82.52c0-5.62-4.267-12.487-14.777-12.487-1.561 0-2.497-.729-2.497-1.874s.624-2.081 2.289-2.081h49.74c1.665 0 2.289.937 2.289 2.081s-.937 1.874-2.497 1.874c-10.51 0-14.777 6.347-14.777 11.967zM324.833 97.503l18.938-75.547c2.289-7.492.833-11.966-11.447-11.966-1.561 0-2.498-.729-2.498-1.874s.625-2.081 2.29-2.081h34.131c1.665 0 2.289.937 2.289 2.081s-.936 1.874-2.497 1.874c-10.51 0-15.4 4.994-17.482 12.382L329.203 100s-1.041 4.457-1.041 8.203 3.954 9.62 3.954 9.62-4.995.624-11.654 3.329c-6.66 2.706-9.99 6.244-9.99 6.244l-26.43-104.919C281.96 15.089 277.07 9.99 266.56 9.99c-1.561 0-2.498-.729-2.498-1.874s.625-2.081 2.29-2.081h49.74c1.665 0 2.289.937 2.289 2.081s-.936 1.874-2.498 1.874c-12.279 0-13.736 4.474-11.446 11.966l20.396 75.547zM443.382 117.17c-10.51 0-13.401-5.099-15.482-12.487l-26.431-97.92s-3.33 3.538-9.989 6.244c-6.66 2.706-11.655 3.33-11.655 3.33s3.955 1.874 3.955 5.619c0 3.746-1.041 5.203-1.041 5.203l-19.355 77.628c-2.081 7.388-6.972 12.383-17.481 12.383-1.561 0-2.498.729-2.498 1.874 0 1.144.625 2.081 2.29 2.081h34.131c1.665 0 2.29-.937 2.29-2.081 0-1.145-.937-1.874-2.498-1.874-12.279 0-13.736-4.474-11.446-11.967l9.438-37.649 19.739.027 10.157 37.623c2.29 7.493.833 11.967-11.446 11.967-1.561 0-2.498.729-2.498 1.874 0 1.144.625 2.081 2.29 2.081h47.74c1.665 0 2.29-.937 2.29-2.081-.002-1.146-.939-1.875-2.5-1.875zm-64.521-54.61l8.248-32.902 8.883 32.902h-17.131z"/></svg>