<svg xmlns="http://www.w3.org/2000/svg" width="210" height="60" viewBox="-124.157 -54.636 210 60"><path fill="#FFF" d="M-124.157-54.636h210v60h-210z"/><path fill="#141717" d="M-66.324-23.35c0-7.101-1.197-11.261-3.39-13.224-1.396-1.214-3.073-1.566-5.188-1.566-2.075 0-3.83.351-5.146 1.566-2.274 1.963-3.392 6.123-3.392 13.266 0 8.123 1.117 11.341 3.392 13.302 1.316 1.139 3.071 1.572 5.146 1.572 2.116 0 3.792-.433 5.188-1.572 2.194-1.96 3.39-5.179 3.39-13.302m5.308-.042c.038 8.32-6.186 15.11-13.888 15.11-7.66 0-13.886-6.79-13.886-15.068 0-8.359 6.227-15.108 13.886-15.108 7.702 0 13.926 6.748 13.926 15.108l-.038-.042"/><path fill="#C30F7A" d="M-100.563 4.864a3.631 3.631 0 0 1-2.473-.981 3.524 3.524 0 0 1-.998-2.432c0-.904.36-1.807.998-2.43.679-.629 1.554-1.023 2.473-1.023.918 0 1.836.395 2.475 1.023a3.473 3.473 0 0 1 1.037 2.43l-.041.158.559-1.259 5.107-13.337-11.689-24.878c-.083-.12-.201-.159-.48-.159h-2.914c-.197 0-.197-.47 0-.47h13.808c.16 0 .16.47 0 .47h-3.231c-.28 0-.358.039-.28.159l7.462 17.656 5.826-15.382c.917-2.273.837-2.432.438-2.432h-3.272c-.121 0-.121-.47 0-.47h8.021c.199 0 .199.47 0 .47h-3.273c-.399 0-.598.159-1.438 2.394L-95.972.233c-.678 1.727-1.319 2.865-2.116 3.649a3.13 3.13 0 0 1-.958.628c-.24.16-.559.236-.839.314h-.119c-.199.04-.36.04-.559.04"/><g fill="#141717"><path d="M-28.403-9.436l-.428-.421v-2.573l-.244-.06c-1.338 1.376-4.32 3.708-8.154 3.708-7.303 0-13.022-5.625-13.022-14.602 0-8.137 6.753-13.881 13.996-13.881 3.833 0 6.633 1.315 7.364 1.614v-12.444c0-1.556-.672-2.813-1.583-3.471-1.033-.72-3.714-1.198-5.354-1.316v-.658l10.771-.597.426.416v39.376c0 1.257.61 2.274 1.583 2.932.731.478 2.493.655 3.59.718v.717l-8.945.542zm-.487-21.724c-.732-2.155-3.043-5.266-7.608-5.266-5.114 0-8.946 5.327-8.946 13.764 0 6.166 2.984 12.149 9.796 12.149 3.167 0 5.051-1.618 6.756-3.354V-31.16h.002zM-6.072-8.721c-6.815 0-13.022-5.445-13.022-14.122 0-8.498 5.416-14.421 13.568-14.421 8.035 0 13.207 6.104 13.207 13.943.001 7.84-5.051 14.6-13.753 14.6zm.423-27.705c-6.872 0-8.759 7.179-8.759 13.042 0 7.3 2.556 13.827 8.759 13.827 5.845 0 8.646-6.348 8.646-13.703 0-6.465-2.253-13.166-8.646-13.166zM27.032-9.497v-.716c1.222-.062 2.193-.121 3.104-.361 1.277-.36 1.886-1.438 1.886-2.751v-15.32c0-4.19-2.797-6.524-5.659-6.524-4.808 0-7.546 2.992-8.276 4.369v17.173c0 1.317.672 2.271 1.827 2.751.974.419 2.007.601 3.104.664v.716H9.507v-.716c1.096-.062 1.827-.062 2.676-.361 1.159-.36 1.708-1.438 1.708-2.751v-18.133c0-1.257-.672-2.514-1.645-3.173-.73-.48-1.887-.897-2.979-.958v-.597l8.395-.658.426.418v4.07h.122c2.312-2.214 4.625-4.907 9.858-4.907 5.658 0 8.215 3.77 8.215 9.453v14.245c0 1.315.548 2.271 1.645 2.751.852.357 1.579.539 2.678.602v.716H27.032z"/></g><path fill="#141717" d="M63.109-9.018c-2.495 0-4.198-1.315-4.988-4.011h-.185c-2.252 2.695-5.843 4.13-9.006 4.13-4.201 0-6.938-2.214-6.938-6.046 0-4.904 2.921-6.46 5.963-7.598 3.469-1.319 7.484-2.396 10.103-3.833v-4.067c0-3.171-1.584-5.984-5.841-5.984-2.312 0-3.53 1.255-4.017 1.974.061 1.078.426 3.053.426 4.07 0 1.256-1.22 2.272-2.98 2.272-1.521 0-2.071-1.434-2.071-2.811 0-3.531 4.626-6.343 9.13-6.343 5.658 0 9.736 1.256 9.736 8.855 0 5.21-.302 11.429-.302 13.404 0 2.037.666 3.592 2.614 3.592 1.764 0 2.497-1.675 2.801-4.968h.789c-.488 5.506-2.252 7.364-5.234 7.364zM46.618-15.66c0 3.29 1.522 5.086 4.502 5.086 3.044 0 5.111-1.676 6.754-3.651l.246-10.712c-6.817 1.915-11.502 3.83-11.502 9.277z"/></svg>