<svg xmlns="http://www.w3.org/2000/svg" width="76" height="16.686" viewBox="0 0 76 16.686"><g fill-rule="evenodd" clip-rule="evenodd" fill="#FFF"><path d="M75.998 3.847c0-.356-.021-.703-.113-1.048-.287-1.079-.954-1.814-1.99-2.219-.463-.182-.949-.191-1.438-.191-3.028.002-6.058.002-9.086-.001-.962-.001-1.794.31-2.448 1.028-.566.62-.822 1.359-.82 2.204.009 3.144.006 6.288 0 9.431 0 .473.091.916.276 1.35.458 1.072 1.614 1.844 2.782 1.843 1.627 0 7.988-.006 9.542.003.503.003.979-.075 1.438-.286a3.019 3.019 0 0 0 1.489-1.444c.264-.537.374-1.104.371-1.711a1114.84 1114.84 0 0 1-.003-8.959zm-5.883 5.735c-.298-.004-.598-.002-.895-.001-.219.001-.297.085-.292.297.003.226.005.449.001.674-.004.244.065.317.311.312.146-.003.293-.008.438-.013.145-.004.21.058.202.21-.01.188-.006.377.002.565.005.138-.049.208-.189.202-.152-.008-.305-.017-.457-.021-.236-.01-.314.081-.311.313.014.59.02 1.181.023 1.771.002.143-.082.199-.227.195-.248-.008-.498-.01-.746-.004-.181.006-.248-.048-.248-.225.002-.834.002-1.668.002-2.503h-.004V8.816c0-.115.059-.185.177-.185l2.21-.001c.113 0 .168.057.167.168-.001.208-.003.415.001.622.003.12-.05.163-.165.162zm4.026 3.38c-.003.635-.592 1.199-1.201 1.219-.312.012-.621.05-.926-.114-.464-.25-.664-.635-.695-1.136-.006-.085 0-.171-.003-.256-.006-.192.032-.233.231-.234.184-.003.365-.003.549 0 .201 0 .228.038.227.234-.001.107.016.219.049.319.058.176.206.214.369.192.169-.021.275-.135.281-.291.016-.432.014-.864.005-1.297a.328.328 0 0 0-.263-.315c-.08-.017-.203.058-.273.126-.116.105-.223.143-.379.101-.176-.047-.359-.065-.54-.09-.12-.017-.163-.074-.157-.196.045-.778.087-1.557.123-2.335.011-.233.025-.258.265-.258h1.042v-.002h1.078c.186.001.232.056.174.235-.076.226-.066.498-.302.642a.795.795 0 0 1-.348.122c-.248.017-.499-.002-.749-.004-.205 0-.271.063-.283.271-.011.2-.021.401-.021.603-.002.072.03.146.047.218.07-.025.147-.038.209-.078.416-.273.908-.271 1.246.084a.9.9 0 0 1 .248.631c-.001.536.001 1.072-.003 1.609zM57.795 3.175c-.257-1.089-.919-1.884-1.871-2.457-.702-.422-1.482-.582-2.275-.673-.336-.039-.688.04-1.03.074a4.484 4.484 0 0 0-1.858.61c-1.304.772-1.984 1.933-2.001 3.433-.03 2.674-.011 5.35-.005 8.024.001.315.018.634.062.946.118.84.48 1.567 1.082 2.166.432.432.924.781 1.51.965.48.15.969.282 1.463.373.464.086.928.02 1.395-.077.684-.14 1.326-.351 1.904-.748 1.131-.776 1.729-1.854 1.754-3.219.027-1.413.014-6.922-.001-8.262a5.401 5.401 0 0 0-.129-1.155zm-3.598 9.445c0 .417-.206.719-.562.826-.382.114-.8-.011-1.002-.336a.933.933 0 0 1-.123-.464c-.007-2.772-.004-5.545-.004-8.318 0-.098.008-.196-.003-.292-.052-.502.417-.85.853-.849.492 0 .841.341.842.841.001 1.438 0 7.166-.001 8.592zM0 .355v15.974h3.854V9.808h2.61V6.825s-2.565-.013-2.61-.047V3.374c.032-.024 3.852-.036 3.852-.036V.355H0zM15.322 4.728v1.606h3.231l-.009-2.047c.004-.852-.159-1.662-.604-2.396C17.203.672 16.028.193 14.691.024c-.444-.058-.89-.003-1.339.087-.702.142-1.363.356-1.961.758-1.229.826-1.842 2.018-1.869 3.46-.045 2.516-.006 5.033-.012 7.551-.002.465.028.923.13 1.377a4.125 4.125 0 0 0 2.808 3.079c.461.146.94.248 1.42.315a3.783 3.783 0 0 0 1.692-.16c.381-.122.771-.25 1.111-.452 1.257-.749 1.805-1.915 1.857-3.34.01-.235.024-2.314.024-2.314h-3.231s.003 1.942.002 2.11c-.004.403-.165.728-.551.893-.667.285-1.502-.036-1.484-.9.025-1.377.008-6.959.006-8.373 0-.332.129-.595.416-.763.77-.45 1.614.034 1.615.918l-.002.458h-.001zM43.686 4.728v1.606h3.233l-.009-2.047c.004-.852-.159-1.662-.604-2.396C45.569.672 44.392.193 43.056.024c-.443-.058-.89-.003-1.338.087-.703.142-1.363.356-1.96.758-1.229.826-1.844 2.018-1.869 3.46-.046 2.516-.009 5.033-.016 7.551-.001.465.029.923.131 1.377a4.127 4.127 0 0 0 2.807 3.079c.461.146.941.248 1.42.315a3.784 3.784 0 0 0 1.693-.16c.381-.122.771-.25 1.111-.452 1.257-.749 1.805-1.915 1.857-3.34.01-.235.024-2.314.024-2.314h-3.233s.005 1.942.004 2.11c-.004.403-.166.728-.551.893-.667.285-1.502-.036-1.484-.9.025-1.377.007-6.959.006-8.373 0-.332.129-.595.416-.763.77-.45 1.614.034 1.615.918l-.002.458h-.001zM20.502.388h3.68v15.941h-3.68zM32.605 7.446c0 .184.008.367.012.552v.209c-.006.038-.044.077-.067.116-.015-.015-.026-.03-.042-.043L29.623.387h-3.217v15.941h3.217v-7.72c.005-.046.049-.092.074-.138.043.036.106.064.125.111l2.939 7.747h3.074V.388h-3.219l-.011 7.058z"/></g></svg>