<svg xmlns="http://www.w3.org/2000/svg" width="68" height="21.322" viewBox="0 0 68 21.322"><g fill="#FFF"><path d="M2.766 11.896v9.427H0V0h5.47c1.397 0 2.562 1.16 2.562 2.557v6.779c0 1.398-1.164 2.56-2.562 2.56H2.766zm0-9.224v6.551h1.832a.66.66 0 0 0 .668-.67v-5.21a.658.658 0 0 0-.668-.67H2.766zM17.516 0h3.406l2.735 21.322h-2.823l-.553-4.713H18.07l-.522 4.713h-2.766L17.516 0zm.845 14.051h1.629l-.785-7.071h-.059l-.785 7.071zM33.521 11.896v9.427h-2.765V0h5.471c1.397 0 2.561 1.16 2.561 2.557v6.779a2.581 2.581 0 0 1-2.561 2.56h-2.706zm0-9.224v6.551h1.833a.66.66 0 0 0 .668-.67v-5.21a.658.658 0 0 0-.668-.67h-1.833zM46.702 0h6.983v2.672h-4.219v6.664h3.928v2.682h-3.928v6.633h4.219v2.672h-6.983V0zM61.311 0h2.762v18.65H68v2.672h-6.689V0z"/></g></svg>