<svg xmlns="http://www.w3.org/2000/svg" width="92" height="9.265" viewBox="0 0 92 9.265"><g fill="#FFF"><path d="M83.064 7.804l-.887-2.229-1.479-3.711L79.99.093h-3.652v.95l.723.128c.18.014.219.144.145.304l-.16.389-1.598 3.711-.951 2.229c-.075.178-.137.274-.35.301l-.627.15v.915h3.051v-.915l-.484-.097c-.137-.036-.232-.066-.232-.177 0-.068.017-.099.058-.195l.491-1.225h4.738l.463 1.189a.66.66 0 0 1 .052.23c0 .11-.097.123-.216.158l-.491.115v.917h3.122v-.915l-.572-.133c-.241-.044-.329-.079-.436-.318zm-6.212-2.369l1.44-3.57.169-.421c.088-.207.127-.321.331-.321.206 0 .245.114.331.321l.163.421 1.418 3.57h-3.852zM39.307 5.575V1.41c0-.097.021-.211.193-.239l.689-.148v-.93h-3.2v.931l.708.148c.16.028.191.142.191.239v6.457c0 .097-.031.211-.191.237l-.708.15v.915h6.847V7.946h-4.529V5.575zM91.918 5.57c-.361-1.678-1.844-1.627-3.575-1.708-1.258-.07-2.184.004-2.184-1.341 0-.272.052-.487.142-.655l-1.471-.002a4.02 4.02 0 0 0-.082.837c0 2.461 1.645 2.423 3.688 2.558.889.048 1.473.045 1.797.316h.002c.223.18.333.503.333 1.079 0 1.389-1.231 1.389-2.276 1.389-1.426 0-3.184-.336-3.184-.336l-.166 1.19s1.611.367 3.51.367C90.607 9.265 92 8.897 92 6.434c0-.326-.025-.62-.08-.863h-.002zM10.325 1.864c.087-.213.2-.373.334-.514.435-.439 1.198-.519 2.292-.519 1.132 0 2.963.326 2.963.326l.121-.792C14.995.141 13.822 0 12.867 0c-1.42 0-2.387.158-2.961.751-.267.269-.461.628-.595 1.113-.19.657-.266 1.556-.266 2.769 0 .326.008.646.018.939l.387.001-.388.002c.072 1.479.332 2.384.854 2.936.587.593 1.558.754 3.007.754 1.555 0 3.111-.354 3.111-.354l-.121-.735s-1.488.284-2.881.284c-1.135 0-1.9-.098-2.352-.546-.41-.405-.604-1.096-.66-2.343h-.001A17.838 17.838 0 0 1 10 4.65c.002-1.344.081-2.221.325-2.786zM6.514 1.864h.85C7.035.384 6.139 0 3.783 0 1.48 0 .551.293.195 1.864h.988C1.495.907 2.204.768 3.783.768c1.641 0 2.324.231 2.609 1.096.198.583.199 1.467.199 2.785 0 .328-.001.643-.003.926-.043 2.48-.376 2.918-2.793 2.918-2.357 0-2.773-.41-2.83-2.918a38.387 38.387 0 0 1-.009-.926c0-1.322.042-2.213.228-2.778l-.989-.007C.045 2.522 0 3.427 0 4.649c0 .322.003.639.014.927.072 2.962.646 3.689 3.781 3.689 3.129 0 3.676-.676 3.741-3.688l-.827-.002h.827c.009-.285.011-.604.011-.926 0-1.207-.031-2.113-.184-2.777l-.849-.008zM34.395 1.864h.851C34.923.384 34.025 0 31.665 0c-2.303 0-3.231.293-3.582 1.864h.989C29.381.907 30.086.768 31.665.768c1.644 0 2.325.231 2.612 1.096.197.583.199 1.466.199 2.785 0 .328 0 .643-.002.926-.041 2.479-.379 2.918-2.793 2.918-2.361 0-2.775-.41-2.83-2.918a37.957 37.957 0 0 1-.011-.926c0-1.322.04-2.213.231-2.778l-.989-.006c-.156.658-.2 1.562-.2 2.785 0 .322.004.639.012.927.074 2.962.65 3.688 3.787 3.688 3.125 0 3.67-.676 3.742-3.688l-.827-.001h.827c.004-.285.006-.604.006-.926 0-1.207-.029-2.113-.185-2.777l-.849-.009zM60.1 5.575v2.211c-.336.081-1.254.257-2.509.257-1.911 0-2.505-.229-2.618-2.469a22.164 22.164 0 0 1-.014-.925c0-1.501.15-2.321.551-2.785h.003c.425-.493 1.113-.564 2.175-.564 1.49 0 3.412.372 3.412.372l.176-1.219s-1.734-.447-3.48-.447c-2.199 0-3.414.36-3.952 1.859-.237.666-.349 1.57-.349 2.785 0 .324.008.642.025.927h.001c.143 3.054 1.141 3.688 3.973 3.688.388 0 1.015-.064 1.015-.064l1.125-.741c.13-.08.225-.16.369-.16.259 0 .291.193.313.308l.098.562h1.118V4.228H60.1v1.347zM69.602 1.023l.709.148c.158.028.191.142.191.239v6.343s-1.207.325-2.761.325c-1.884 0-2.196-.354-2.196-2.249V1.41c0-.097.023-.211.195-.239l.689-.148v-.93h-3.205v.931l.711.148c.16.028.188.142.188.239v4.595c0 2.506.657 3.26 3.499 3.26.375 0 1.133-.064 1.133-.064l1.125-.741c.132-.081.224-.161.372-.161.258 0 .291.193.312.308l.098.562h2.141v-.915l-.691-.15c-.17-.026-.194-.141-.194-.237V1.41c0-.097.024-.211.194-.239l.691-.148v-.93h-3.201v.93zM88.531 1.203c1.193 0 2.785.325 2.785.325l.193-1.192S89.997 0 88.296 0c-2.062 0-3.189.409-3.467 1.862l1.471.002c.37-.693 1.376-.661 2.231-.661zM44.815 1.025l.712.146c.168.032.19.146.19.243V7.867c0 .097-.022.211-.19.237l-.712.15v.916h7.331V7.964h-5.004V5.116h4.846V3.924h-4.846V1.317h5.004V.093h-7.331v.932zM24.045.725l.49.087c.159.035.193.166.193.263v3.089h-5.666v-3.09c0-.097.023-.228.188-.263l.491-.087V.093H17.45v.632l.49.087c.164.035.189.166.189.263v7.129c0 .097-.025.229-.189.248l-.49.089v.63h2.291V8.54l-.491-.089c-.165-.019-.188-.151-.188-.248V4.938h5.666v3.265c0 .097-.034.229-.193.248l-.49.089v.63h2.292v-.63l-.489-.089c-.172-.019-.195-.151-.195-.248V1.074c0-.097.023-.228.195-.263l.489-.087V.093h-2.292v.632z"/></g></svg>