<svg xmlns="http://www.w3.org/2000/svg" width="96" height="40" viewBox="0 0 96 40"><g fill="#FFF"><path d="M59.542 19.986c0-6.023-1.001-9.551-2.828-11.221-1.165-1.025-2.562-1.32-4.325-1.32-1.729 0-3.192.295-4.291 1.32-1.896 1.67-2.83 5.197-2.83 11.248 0 6.893.935 9.619 2.83 11.283 1.099.963 2.562 1.332 4.291 1.332 1.764 0 3.16-.369 4.325-1.332 1.827-1.664 2.828-4.391 2.828-11.283m4.424-.027c.034 7.049-5.157 12.807-11.577 12.807-6.388 0-11.578-5.758-11.578-12.779 0-7.084 5.19-12.807 11.578-12.807C58.809 7.207 64 12.93 64 20.014l-.034-.028"/><path d="M35.537 32.793a2.095 2.095 0 0 1-1.434-.58 2.08 2.08 0 0 1-.581-1.434c0-.533.208-1.068.581-1.438.391-.369.902-.602 1.434-.602s1.066.232 1.437.602.6.904.6 1.438l-.021.092.322-.738 2.963-7.871-6.785-14.684c-.043-.068-.113-.092-.277-.092h-1.689c-.114 0-.114-.279 0-.279h8.012c.094 0 .094.279 0 .279h-1.875c-.16 0-.207.023-.16.092l4.326 10.418 3.383-9.072c.531-1.346.488-1.438.254-1.438h-1.898c-.07 0-.07-.279 0-.279h4.654c.115 0 .115.279 0 .279h-1.896c-.236 0-.349.092-.836 1.408L38.2 30.058c-.396 1.018-.763 1.693-1.225 2.154a1.785 1.785 0 0 1-.558.369c-.139.096-.324.145-.488.188h-.068c-.116.024-.209.024-.324.024M48.726 18.924h.174v2.113h-.175v-.273h-.007a.611.611 0 0 1-.527.313c-.49 0-.686-.348-.686-.799 0-.422.212-.803.676-.803.215 0 .432.102.544.289v-.84zm-.517.713c-.36 0-.531.303-.516.688.004.377.223.6.516.6.333 0 .517-.285.517-.66 0-.341-.195-.628-.517-.628zM50.359 20.273c0-.441.235-.799.705-.799.476 0 .703.352.703.799 0 .486-.277.803-.703.803-.386-.006-.705-.269-.705-.803zm.705-.636c-.368 0-.517.311-.517.637 0 .381.18.65.517.65.367 0 .516-.322.516-.65-.004-.356-.144-.637-.516-.637zM53.382 21.037h-.178v-1.523h.178v.217c.14-.154.278-.256.489-.256.184 0 .354.063.463.217.074.107.076.223.076.35v.996h-.176v-.988c0-.279-.113-.412-.394-.412a.442.442 0 0 0-.423.293.801.801 0 0 0-.036.285v.821zM56.646 20.148c.064-.01.175-.02.234-.047.057-.025.065-.109.065-.162 0-.176-.107-.303-.378-.303-.247 0-.412.074-.445.34h-.177c.026-.361.29-.502.625-.502.306 0 .548.119.548.473v.826c0 .139.037.17.186.115v.143c-.025.006-.088.029-.139.029a.277.277 0 0 1-.08-.012c-.115-.014-.135-.119-.14-.223a.75.75 0 0 1-.563.25c-.269 0-.511-.143-.511-.438 0-.25.178-.402.531-.457l.244-.032zm.3.088a1.44 1.44 0 0 1-.456.088c-.267.018-.429.113-.429.314 0 .188.162.285.33.285.278 0 .555-.139.555-.447v-.24z"/></g></svg>