<svg xmlns="http://www.w3.org/2000/svg" width="96" height="40" viewBox="0 0 96 40"><g fill="#FFF"><path d="M27.806 23.162a9.591 9.591 0 0 0 .979-3.84h-9.342v3.895h8.322c.001 0-.004.029.041-.055zM18.383 14.021h-8.17c-.693 1.41-1.12 2.822-1.207 4.24h9.377v-4.24zM19.443 14.021v4.24h9.337c-.088-1.418-.518-2.83-1.209-4.24h-8.128zM18.383 19.322H9c.062 1.412.425 2.83 1.015 3.895h8.368v-3.895zM18.383 24.275h-7.768c1.692 2.469 4.583 4.072 7.768 4.223v-4.223zM19.443 12.955h7.466c-1.696-2.471-4.283-4.057-7.466-4.234v4.234zM19.443 24.275v4.219c3.183-.188 6.055-1.75 7.727-4.219h-7.727zM18.383 12.955V8.713c-3.185.137-5.788 1.771-7.504 4.242h7.504z"/><text transform="translate(34.59 25.53)" font-family="'Georgia'" font-size="18.988">Motor</text></g></svg>