<svg xmlns="http://www.w3.org/2000/svg" width="96" height="40" viewBox="0 0 96 40"><g fill="#000333"><path d="M20.09 25.218v-2.615h-1.178V17.38h1.178v-2.617h-5.602c-.363.777-.639 1.672-.969 2.492-.346.92-.688 1.859-1.033 2.789-.643-1.805-1.43-3.527-2.165-5.281H4v2.617h1.141v5.223H4v2.615h5.076v-2.615H7.703v-4.012c0-.18 0-.352.014-.539.43 1.133.902 2.254 1.332 3.43.472 1.227.922 2.516 1.448 3.736h2.396c.411-1.1.768-2.24 1.187-3.357.458-1.215.874-2.494 1.337-3.707v.602c0 1.283-.008 2.566-.008 3.848h-1.162v2.615h5.843v-.001z"/><path d="M29.712 25.218v-4.643h-2.357c-.021.672-.021 1.359-.034 2.027H24.03v-1.443h2.424v-2.135H24.03V17.8c0-.148 0-.291.033-.42h2.947c.008.773.036 1.5.045 2.277h2.293v-.395c0-1.521-.021-3-.021-4.5H19.323v2.617h1.132v5.223h-1.132v2.615h10.389v.001z"/><path d="M39.527 19.657v-4.895h-11.24v4.895h2.107c-.016-.795 0-1.676.011-2.475h1.765v5.42h-1.199v2.615h5.873v-2.615h-1.146v-5.42h1.738c0 .799 0 1.697.031 2.475h2.06z"/><path fill-rule="evenodd" clip-rule="evenodd" d="M50.385 22.544c0-.143 0-.285-.008-.438h-.783c-.014.459.049 1.143-.445 1.143-.78 0-.193-1.48-1.216-2.432-.554-.512-1.118-.545-1.76-.707.116-.039.231-.039.345-.039 1.333-.027 2.598-.594 2.598-2.58 0-2.348-2.026-2.729-3.457-2.729h-7.205v2.617h1.145v5.223h-1.145v2.615h5.602v-2.615h-.93c-.012-.152-.012-.291-.012-.432v-1.445l.78-.039c.323-.02.814.053 1.077.363.746.828-.484 4.406 3.007 4.406 1.489.001 2.407-.923 2.407-2.911zm-4.621-4.238c0 .684-.396.971-.882.971h-1.757v-1.968h1.171c.62-.001 1.468-.101 1.468.997z"/><path fill-rule="evenodd" clip-rule="evenodd" d="M59.391 20.093c0-4.002-2.561-5.549-5.318-5.549-2.68 0-5.275 1.646-5.275 5.508 0 1.521.488 2.744 1.336 3.773 1.051 1.25 2.553 1.594 3.939 1.594 1.383 0 2.941-.307 4.004-1.572.851-1.012 1.314-2.256 1.314-3.754zm-3.589-.131c0 1.543-.21 3.236-1.696 3.236-1.534 0-1.699-1.664-1.699-3.24 0-1.439.279-3.18 1.674-3.18 1.526 0 1.721 1.618 1.721 3.184z"/><path fill-rule="evenodd" clip-rule="evenodd" d="M68.818 18.015c0-.92-.304-1.697-.842-2.311-.672-.779-1.69-.941-2.572-.941h-7.021v2.617h1.146v5.223h-1.146v2.615h6.127v-2.615h-1.361V21.23c.533 0 1.059 0 1.589-.02 1.075-.018 2.577.164 3.399-.904.478-.606.681-1.426.681-2.291zm-3.205.381c0 1.189-.815 1.047-1.486 1.047h-1.006V17.38h1.549c.545 0 .943.219.943 1.016z"/><path fill-rule="evenodd" clip-rule="evenodd" d="M78.029 20.093c0-4.002-2.557-5.549-5.318-5.549-2.68 0-5.271 1.646-5.271 5.508 0 1.521.483 2.744 1.335 3.773 1.047 1.25 2.549 1.594 3.936 1.594s2.941-.307 4.006-1.572c.847-1.012 1.312-2.256 1.312-3.754zm-3.583-.131c0 1.543-.212 3.236-1.702 3.236-1.533 0-1.695-1.664-1.695-3.24 0-1.439.275-3.18 1.677-3.18 1.518 0 1.72 1.618 1.72 3.184z"/><path d="M87.12 25.218v-5.197h-2.519v2.582h-2.826V17.38h1.351v-2.617h-5.981v2.617h1.023v5.223h-1.059v2.615H87.12z"/><path d="M92 25.218v-2.615h-1.084V17.38H92v-2.617h-5.775v2.617h1.084v5.223h-1.084v2.615H92z"/></g></svg>