<svg xmlns="http://www.w3.org/2000/svg" width="77.889" height="19.786" viewBox="0 0 77.889 19.786"><g fill="#FFF"><path d="M18.806 14.45a9.591 9.591 0 0 0 .979-3.84h-9.342v3.895h8.322c.001-.001-.004.029.041-.055zM9.383 5.309h-8.17C.52 6.719.093 8.131.006 9.549h9.377v-4.24zM10.443 5.309v4.24h9.337c-.089-1.418-.518-2.83-1.209-4.24h-8.128zM9.383 10.609H0c.061 1.413.425 2.831 1.015 3.895h8.368v-3.895zM9.383 15.563H1.615c1.691 2.469 4.583 4.072 7.768 4.223v-4.223zM10.443 4.242h7.466C16.213 1.772 13.626.185 10.443.008v4.234zM10.443 15.563v4.219c3.183-.188 6.055-1.75 7.727-4.219h-7.727zM9.383 4.242V0C6.198.137 3.595 1.772 1.879 4.242h7.504z"/><g><path d="M42.334 16.818h-5.813v-.658c.21-.006.48-.028.811-.065.331-.036.558-.089.682-.157.191-.117.332-.252.422-.403a1.11 1.11 0 0 0 .134-.57V5.396h-.139l-4.487 11.209h-.464L29.206 5.164h-.121v7.854c0 .76.048 1.338.144 1.733.096.396.242.68.44.853.136.13.417.254.844.371.427.117.705.18.834.186v.658h-5.312v-.659c.278-.024.57-.071.876-.139.306-.068.542-.17.709-.307.216-.173.365-.438.445-.797.08-.358.12-.958.12-1.799v-6.73c0-.39-.046-.708-.139-.955s-.226-.448-.399-.603a1.813 1.813 0 0 0-.705-.371 3.6 3.6 0 0 0-.825-.14v-.657h4.486l3.769 9.875 3.217-8.261c.117-.303.218-.62.301-.95.083-.331.128-.553.134-.664h4.29v.658a4.81 4.81 0 0 0-.663.084c-.269.05-.465.096-.588.139-.211.074-.354.198-.428.371s-.11.361-.11.565v9.484c0 .217.036.398.11.547s.217.278.428.39c.111.062.309.119.593.172s.51.082.677.088v.658zM52.783 12.155c0 .643-.103 1.274-.307 1.896-.205.621-.495 1.148-.873 1.581a4.085 4.085 0 0 1-1.484 1.104c-.562.24-1.194.361-1.894.361-.581 0-1.136-.11-1.661-.329a4.189 4.189 0 0 1-1.401-.96 4.564 4.564 0 0 1-.96-1.516c-.238-.597-.357-1.266-.357-2.007 0-1.428.416-2.597 1.248-3.505s1.922-1.363 3.271-1.363c1.28 0 2.337.432 3.169 1.294s1.249 2.009 1.249 3.444zm-1.92.018c0-.464-.047-.954-.139-1.47-.094-.517-.232-.953-.418-1.312a2.572 2.572 0 0 0-.781-.923c-.321-.231-.715-.348-1.18-.348-.477 0-.883.117-1.221.353a2.59 2.59 0 0 0-.822.964 4.31 4.31 0 0 0-.418 1.289 8.79 8.79 0 0 0 .024 3.045c.096.504.25.954.46 1.35s.476.706.794.932.714.338 1.184.338c.775 0 1.388-.374 1.84-1.121.451-.748.677-1.78.677-3.097zM59.745 16.419c-.401.167-.782.308-1.14.422-.359.114-.798.171-1.316.171-.768 0-1.307-.193-1.619-.579-.312-.386-.467-.932-.467-1.637V8.604h-1.65v-.891h1.688V4.868h1.687v2.846h2.624v.891h-2.605v5.108c0 .383.014.703.042.959.028.257.094.48.199.672.099.18.247.315.444.408.198.093.465.14.798.14.154 0 .382-.015.682-.042.3-.028.511-.063.635-.106v.675zM69.572 12.155c0 .643-.102 1.274-.306 1.896s-.495 1.148-.872 1.581a4.088 4.088 0 0 1-1.485 1.104c-.563.24-1.194.361-1.894.361-.582 0-1.135-.11-1.661-.329a4.179 4.179 0 0 1-1.401-.96c-.402-.414-.723-.919-.961-1.516s-.357-1.266-.357-2.007c0-1.428.416-2.597 1.249-3.505.832-.908 1.923-1.363 3.271-1.363 1.281 0 2.338.432 3.17 1.294s1.247 2.009 1.247 3.444zm-1.919.018c0-.464-.046-.954-.14-1.47-.092-.517-.231-.953-.418-1.312a2.557 2.557 0 0 0-.779-.923c-.322-.231-.715-.348-1.18-.348-.477 0-.885.117-1.222.353a2.588 2.588 0 0 0-.821.964 4.226 4.226 0 0 0-.418 1.289 8.794 8.794 0 0 0 .023 3.045c.097.504.249.954.46 1.35s.475.706.794.932.714.338 1.185.338c.773 0 1.387-.374 1.839-1.121.452-.748.677-1.78.677-3.097zM77.889 8.854c0 .315-.077.595-.231.839-.155.244-.393.366-.714.366-.346 0-.61-.09-.793-.269-.182-.18-.273-.377-.273-.594 0-.136.011-.26.033-.371l.06-.333c-.29 0-.63.117-1.02.352s-.72.569-.992 1.002v5.321c0 .217.042.393.125.528a.758.758 0 0 0 .394.307c.154.062.354.107.599.139s.456.053.635.064v.612h-4.821v-.612l.441-.037c.15-.012.282-.036.394-.073.173-.056.302-.153.385-.292s.125-.319.125-.542v-5.64a1.29 1.29 0 0 0-.134-.564 1.118 1.118 0 0 0-.376-.444 1.279 1.279 0 0 0-.417-.162 3.517 3.517 0 0 0-.52-.069v-.613l3.041-.204.13.13v1.289h.046c.384-.501.811-.881 1.279-1.141.471-.26.9-.39 1.289-.39.39 0 .706.127.95.381.243.253.365.593.365 1.02z"/></g></g></svg>