<svg xmlns="http://www.w3.org/2000/svg" width="59" height="16.389" viewBox="0 0 59 16.389"><path fill="#FFF" d="M12.549 11.363l-.329 4.643H0v-.776c.178-.018.432-.037.766-.081.334-.033.569-.078.699-.136.221-.105.381-.233.479-.425.1-.182.149-.421.149-.707V2.692c0-.248-.04-.47-.125-.666-.085-.194-.253-.339-.503-.462a3.886 3.886 0 0 0-.709-.254A4.302 4.302 0 0 0 0 1.16V.381h6.6v.779a4.66 4.66 0 0 0-.797.108 6.65 6.65 0 0 0-.715.175c-.247.093-.418.244-.51.452a1.704 1.704 0 0 0-.138.682v10.502c0 .488.022.86.07 1.135.05.264.162.467.339.619.168.131.418.218.754.255.334.048.803.061 1.405.061.27 0 .554-.008.845-.014.295-.02.575-.056.838-.093.258-.045.494-.103.713-.188.216-.069.375-.174.479-.29.3-.338.649-.848 1.05-1.532.402-.687.68-1.24.834-1.669h.782zM29.473 2.265c-.629 0-1.137.133-1.545.398a3.442 3.442 0 0 0-1.1 1.183c-.298.52-.525 1.158-.68 1.897-.158.77-.239 1.605-.239 2.469 0 .957.086 1.827.255 2.584.156.71.408 1.341.74 1.871.298.484.646.839 1.065 1.088.411.249.899.367 1.503.367.561 0 1.047-.125 1.483-.373.445-.262.8-.621 1.084-1.09a6.206 6.206 0 0 0 .748-1.897c.165-.753.249-1.613.249-2.55 0-.971-.096-1.87-.279-2.659-.176-.752-.427-1.389-.752-1.893a3.107 3.107 0 0 0-1.08-1.043c-.412-.236-.891-.352-1.452-.352z"/><path fill="#FFF" d="M36.402 4.828c-.388-1.011-.928-1.88-1.617-2.597A7.024 7.024 0 0 0 32.402.585 7.518 7.518 0 0 0 29.473 0c-.998 0-1.955.194-2.869.57a7.133 7.133 0 0 0-2.409 1.661 7.854 7.854 0 0 0-1.642 2.582c-.395.991-.593 2.128-.593 3.398 0 1.164.187 2.25.565 3.266.379 1.01.899 1.877 1.561 2.596a6.932 6.932 0 0 0 2.375 1.697 7.395 7.395 0 0 0 3.012.618 7.459 7.459 0 0 0 2.888-.572 7.25 7.25 0 0 0 2.379-1.636c.706-.715 1.256-1.578 1.653-2.588.396-1.01.594-2.145.594-3.381-.001-1.238-.196-2.357-.585-3.383zm-2.363 6.218a7.26 7.26 0 0 1-.896 2.264c-.398.669-.912 1.184-1.545 1.543a4.138 4.138 0 0 1-2.125.555c-.838 0-1.559-.185-2.16-.553-.602-.351-1.102-.867-1.497-1.504a7.4 7.4 0 0 1-.905-2.275c-.189-.85-.287-1.81-.287-2.863 0-.959.09-1.867.271-2.734.182-.87.452-1.626.818-2.268a4.744 4.744 0 0 1 1.512-1.618c.619-.403 1.369-.613 2.248-.613.787 0 1.483.177 2.093.524a4.478 4.478 0 0 1 1.521 1.465c.404.631.712 1.394.921 2.29.208.891.314 1.873.314 2.953 0 1.047-.095 1.982-.283 2.834zM52.768 16.389c-.93 0-1.822-.187-2.681-.56a6.808 6.808 0 0 1-2.274-1.579c-.65-.692-1.172-1.532-1.562-2.529-.389-1.002-.581-2.118-.581-3.378 0-1.245.188-2.374.572-3.4.381-1.012.906-1.893 1.585-2.624a6.993 6.993 0 0 1 2.367-1.69 7.201 7.201 0 0 1 2.913-.586c.773 0 1.471.089 2.095.283a7.491 7.491 0 0 1 1.783.806l.449-.75h.885l.095 5.574h-.9a12.958 12.958 0 0 0-.528-1.765c-.237-.638-.51-1.178-.825-1.615a3.952 3.952 0 0 0-1.255-1.182 3.296 3.296 0 0 0-1.662-.425c-.712 0-1.374.168-1.985.475a4.593 4.593 0 0 0-1.591 1.406c-.425.592-.762 1.344-1.002 2.265-.244.921-.364 1.952-.364 3.081 0 1.005.127 1.918.38 2.748.253.841.616 1.57 1.085 2.203a5.254 5.254 0 0 0 1.669 1.47c.64.349 1.358.522 2.149.522.593 0 1.141-.089 1.641-.283a4.102 4.102 0 0 0 1.299-.741c.365-.319.689-.688.967-1.1.281-.411.508-.862.686-1.34l.822.395c-.63 1.55-1.468 2.657-2.511 3.314-1.043.676-2.283 1.005-3.721 1.005z"/></svg>