<svg xmlns="http://www.w3.org/2000/svg" width="32" height="25.586" viewBox="0 0 32 25.586"><g fill="#FFF"><path d="M27.541 12.78c0-6.023-1-9.551-2.827-11.221C23.549.534 22.152.239 20.389.239c-1.729 0-3.192.295-4.291 1.32-1.896 1.67-2.83 5.197-2.83 11.248 0 6.893.935 9.619 2.83 11.283 1.099.964 2.562 1.332 4.291 1.332 1.764 0 3.16-.368 4.325-1.332 1.827-1.664 2.827-4.391 2.827-11.283m4.425-.027c.034 7.049-5.157 12.806-11.577 12.806-6.388 0-11.578-5.758-11.578-12.779C8.811 5.723 14.001 0 20.389 0 26.809 0 32 5.723 32 12.807l-.034-.027"/><path d="M3.537 25.586a2.095 2.095 0 0 1-1.434-.58 2.08 2.08 0 0 1-.582-1.434c0-.533.209-1.068.582-1.438.391-.369.902-.602 1.434-.602s1.066.232 1.437.602.6.904.6 1.438l-.021.092.321-.738 2.964-7.871L2.053.372C2.01.303 1.939.28 1.775.28H.086c-.114 0-.114-.28 0-.28h8.012c.094 0 .094.28 0 .28H6.223c-.16 0-.207.023-.16.092l4.326 10.418 3.383-9.072C14.303.372 14.26.28 14.026.28h-1.898c-.07 0-.07-.28 0-.28h4.654c.115 0 .115.28 0 .28h-1.896c-.236 0-.349.092-.836 1.408L6.198 22.852c-.396 1.018-.763 1.693-1.225 2.154a1.79 1.79 0 0 1-.559.369c-.138.096-.323.145-.487.188h-.068c-.114.023-.207.023-.322.023M16.725 11.718h.175v2.113h-.176v-.273h-.006a.61.61 0 0 1-.527.312c-.49 0-.686-.348-.686-.799 0-.421.212-.803.676-.803a.63.63 0 0 1 .543.289v-.839zm-.516.712c-.361 0-.531.303-.516.688.004.377.222.6.516.6.332 0 .516-.285.516-.661 0-.339-.194-.627-.516-.627zM18.359 13.067c0-.442.235-.799.705-.799.476 0 .703.353.703.799 0 .487-.277.802-.703.802-.386-.005-.705-.269-.705-.802zm.705-.637c-.368 0-.517.311-.517.637 0 .38.179.65.517.65.367 0 .516-.323.516-.65-.004-.356-.144-.637-.516-.637zM21.382 13.831h-.178v-1.523h.178v.217c.14-.154.278-.256.489-.256.184 0 .354.062.463.217.074.107.076.223.076.349v.997h-.176v-.988c0-.279-.113-.412-.394-.412a.441.441 0 0 0-.423.293.804.804 0 0 0-.036.285v.821zM24.646 12.942c.064-.009.175-.02.234-.047.057-.025.065-.109.065-.162 0-.176-.107-.303-.378-.303-.247 0-.412.074-.445.341h-.177c.026-.362.29-.503.625-.503.306 0 .548.119.548.473v.827c0 .138.037.169.186.115v.142c-.025.006-.088.029-.14.029a.276.276 0 0 1-.079-.012c-.115-.014-.135-.119-.14-.222a.754.754 0 0 1-.562.249c-.269 0-.511-.143-.511-.437 0-.25.178-.403.531-.458l.243-.032zm.3.088a1.468 1.468 0 0 1-.456.088c-.267.018-.43.113-.43.315 0 .188.163.285.33.285.279 0 .556-.139.556-.447v-.241z"/></g></svg>