<svg xmlns="http://www.w3.org/2000/svg" height="16.457" viewBox="0 0 86 16.457" width="86"><g fill="#fff"><path d="M1.304 11.498C.432 10.739.007 9.786.007 8.613c0-.976.301-1.857.872-2.594.735-.933 1.753-1.441 2.851-1.441.53 0 .955.104 1.277.218.166.052.301.114.425.155a.952.952 0 0 0 .301.073c.207 0 .404-.135.539-.374H6.5l.083 2.201h-.26c-.403-1.236-1.233-1.9-2.385-1.9-1.628 0-2.791 1.349-2.791 3.526 0 2.086 1.192 3.404 2.884 3.404 1.017 0 1.816-.488 2.531-1.452l.301.207c-.685 1.172-1.69 1.753-3.06 1.753-.975.001-1.825-.3-2.499-.891zM16.355 12.214h-3.02v-.24c.664-.031.944-.29.944-.913V5.905c0-.622-.28-.881-.944-.912v-.228h3.309c2.086 0 3.061.695 3.061 2.001 0 .861-.653 1.557-2.023 1.848l1.784 2.624c.312.457.561.705 1.1.736v.24h-1.66L16.52 8.728c-.188 0-.353.011-.498.011-.218 0-.436-.011-.726-.021v2.343c0 .665.332.913 1.059.924v.229zm-1.058-7.045v3.133h1.13c1.452 0 2.231-.487 2.231-1.566 0-1.12-.779-1.566-2.283-1.566h-1.078zM30.483 12.41c-.985 0-1.908-.373-2.583-1.068-.715-.727-1.109-1.742-1.109-2.854 0-1.11.394-2.116 1.109-2.843.685-.694 1.598-1.078 2.583-1.078s1.898.384 2.583 1.078c.716.727 1.121 1.732 1.121 2.843s-.405 2.127-1.121 2.854c-.674.695-1.598 1.068-2.583 1.068zm-2.552-3.922c0 2.222 1.018 3.549 2.552 3.549 1.536 0 2.563-1.327 2.563-3.549 0-2.22-1.027-3.547-2.563-3.547-1.535 0-2.552 1.328-2.552 3.547zM41.779 11.01V5.47c-.238-.291-.54-.436-.943-.477v-.228h1.897l4.639 5.727V5.978c0-.663-.321-.964-1.007-.985v-.228h2.47v.229c-.644.031-.944.352-.944.985v6.349h-.3l-5.292-6.546v5.229c0 .674.321.964.997.964v.24h-2.459v-.24c.641-.012.942-.322.942-.965zM55.202 11.974c.727-.021 1.038-.268 1.038-.913V5.905c0-.643-.312-.892-1.038-.912v-.228h3.123v.229c-.726.021-1.027.27-1.027.912v5.155c0 .646.302.893 1.027.913v.24h-3.123v-.24zM66.23 11.498c-.871-.759-1.298-1.712-1.298-2.885 0-.976.302-1.857.87-2.594.737-.934 1.755-1.442 2.854-1.442.528 0 .954.104 1.275.218.165.052.301.114.426.155a.958.958 0 0 0 .301.073c.207 0 .404-.135.539-.374h.229l.083 2.201h-.259c-.405-1.235-1.235-1.899-2.388-1.899-1.627 0-2.789 1.349-2.789 3.526 0 2.086 1.192 3.404 2.884 3.404 1.017 0 1.815-.488 2.532-1.452l.299.207c-.685 1.172-1.691 1.753-3.059 1.753-.975.001-1.825-.3-2.499-.891zM82.794 11.974c.572-.041.913-.196.913-.611 0-.177-.052-.384-.145-.602l-.467-1.047h-3.258l-.435 1.036c-.083.208-.137.384-.137.562 0 .424.302.55.872.651v.251H77.69v-.251c.518-.092.777-.414 1.027-.953l2.904-6.245h.363l2.791 6.203c.28.612.58.943 1.213 1.006v.24h-3.196v-.24zm-2.759-2.728h2.845L81.52 6.03l-1.485 3.216z"/></g><path d="M29 7.279h-.153l1.127-1.237c.162-.178.313-.254.416-.254a.28.28 0 0 1 .271.279c0 .144-.093.246-.338.398L29 7.279z" fill="#fff"/></svg>