<svg xmlns="http://www.w3.org/2000/svg" width="40" height="40" viewBox="0 0 40 40"><g fill="#2F6E9E"><path d="M20 0C9 0 0 9 0 20s9 20 20 20 20-9 20-20S31 0 20 0zm0 36.9c-9.3 0-16.9-7.6-16.9-16.9 0-9.3 7.6-16.9 16.9-16.9 9.3 0 16.9 7.6 16.9 16.9 0 9.3-7.6 16.9-16.9 16.9z"/><path d="M18.5 20.5c.3-.5.2-1.1-.3-1.4-.5-.3-1.1-.2-1.4.3-.6.9-1.5 1.4-2.5 1.4s-2-.5-2.5-1.4c-.3-.5-.9-.6-1.4-.3-.5.3-.6.9-.3 1.4.9 1.4 2.5 2.3 4.2 2.3s3.3-.8 4.2-2.3zM20 25.1c-2.6 0-5.1 1.3-6.5 3.6-.3.5-.2 1.1.3 1.4.2.1.4.2.5.2.3 0 .7-.2.8-.5 1.1-1.7 2.9-2.7 4.8-2.7 2 0 3.8 1 4.8 2.7.3.5.9.6 1.4.3s.6-.9.3-1.4c-1.3-2.2-3.8-3.6-6.4-3.6zM29.6 19.2c-.5-.3-1.1-.2-1.4.3-.6.9-1.5 1.4-2.5 1.4s-2-.5-2.5-1.4c-.3-.5-.9-.6-1.4-.3-.5.3-.6.9-.3 1.4.9 1.4 2.5 2.3 4.2 2.3 1.7 0 3.3-.9 4.2-2.3.3-.5.2-1.1-.3-1.4z"/></g></svg>