<svg xmlns="http://www.w3.org/2000/svg" height="40" width="96" viewBox="0 0 96 40"><g fill="#000333"><path d="M1.447 23.235c-.973-.845-1.448-1.909-1.448-3.219 0-1.089.336-2.073.973-2.896.822-1.041 1.957-1.609 3.185-1.609.59 0 1.066.116 1.424.244.185.058.336.126.475.174.127.046.244.08.336.08.231 0 .452-.15.603-.417h.254l.093 2.456h-.29c-.452-1.378-1.378-2.119-2.663-2.119-1.819 0-3.116 1.505-3.116 3.937 0 2.329 1.332 3.799 3.22 3.799 1.135 0 2.026-.544 2.827-1.62l.335.23c-.765 1.309-1.888 1.958-3.417 1.958-1.089 0-2.039-.337-2.791-.998zM18.251 24.035H14.88v-.267c.741-.033 1.053-.322 1.053-1.018v-5.757c0-.694-.313-.985-1.053-1.019v-.254h3.694c2.328 0 3.417.777 3.417 2.236 0 .962-.729 1.737-2.259 2.061l1.991 2.93c.348.512.626.789 1.228.822v.267h-1.853l-2.664-3.892c-.208 0-.394.013-.556.013-.244 0-.487-.013-.811-.023v2.618c0 .74.371 1.018 1.182 1.029v.254zm-1.182-7.863v3.499h1.263c1.621 0 2.49-.545 2.49-1.751 0-1.25-.869-1.748-2.548-1.748h-1.205zM34.023 24.257c-1.101 0-2.131-.418-2.884-1.194-.799-.811-1.239-1.946-1.239-3.185s.44-2.363 1.239-3.174c.765-.775 1.784-1.204 2.884-1.204s2.119.429 2.883 1.204c.8.811 1.251 1.936 1.251 3.174s-.452 2.374-1.251 3.185c-.753.776-1.783 1.194-2.883 1.194zm-2.849-4.379c0 2.478 1.135 3.961 2.849 3.961s2.86-1.483 2.86-3.961c0-2.479-1.146-3.961-2.86-3.961s-2.849 1.482-2.849 3.961zM46.633 22.693v-6.185c-.266-.325-.601-.488-1.053-.533v-.255h2.118l5.18 6.395v-5.039c0-.741-.361-1.078-1.125-1.1v-.256h2.758v.255c-.72.034-1.056.393-1.056 1.1v7.088h-.335l-5.907-7.308v5.838c0 .753.359 1.075 1.112 1.075v.267h-2.744v-.267c.717-.011 1.052-.356 1.052-1.075zM61.619 23.769c.81-.022 1.159-.3 1.159-1.018v-5.757c0-.718-.35-.997-1.159-1.019v-.255h3.486v.255c-.811.022-1.148.301-1.148 1.019v5.757c0 .718.338.995 1.148 1.018v.267h-3.486v-.267zM73.93 23.235c-.975-.845-1.448-1.909-1.448-3.219 0-1.089.335-2.073.973-2.896.823-1.041 1.958-1.609 3.186-1.609.59 0 1.066.116 1.424.244.184.058.335.126.476.174.126.046.243.08.335.08.231 0 .452-.15.603-.417h.255l.09 2.456h-.287c-.452-1.378-1.378-2.119-2.664-2.119-1.817 0-3.116 1.505-3.116 3.937 0 2.329 1.333 3.799 3.222 3.799 1.134 0 2.024-.544 2.824-1.62l.337.23c-.765 1.309-1.89 1.958-3.416 1.958-1.091 0-2.041-.337-2.794-.998zM92.422 23.769c.638-.046 1.021-.219 1.021-.683 0-.196-.058-.428-.163-.672l-.52-1.169h-3.638l-.486 1.156c-.092.233-.149.429-.149.627 0 .476.334.613.971.729v.278h-2.73v-.278c.577-.104.868-.462 1.146-1.063l3.242-6.974h.405l3.116 6.927c.313.683.647 1.054 1.354 1.122v.267h-3.568v-.267zm-3.079-3.046h3.174l-1.519-3.59-1.655 3.59z"/><path d="M32.366 18.527h-.169l1.257-1.381c.18-.198.35-.283.463-.283.161 0 .302.141.302.311 0 .161-.103.275-.378.446l-1.475.907z"/></g></svg>