<svg xmlns="http://www.w3.org/2000/svg" width="96" height="40" viewBox="0 0 96 40"><g fill="#000333"><path d="M85.064 23.172l-.887-2.229-1.479-3.711-.709-1.771h-3.651v.95l.723.128c.179.015.218.145.145.305l-.16.389-1.598 3.711-.952 2.229c-.075.178-.137.274-.349.301l-.627.151v.914h3.051v-.914l-.484-.099c-.137-.035-.232-.065-.232-.176 0-.069.016-.099.057-.195l.491-1.225h4.74l.462 1.189a.612.612 0 0 1 .052.23c0 .11-.096.123-.216.158l-.491.116v.914h3.122v-.914l-.572-.134c-.241-.043-.329-.078-.436-.317zm-6.212-2.369l1.44-3.57.168-.421c.088-.207.128-.321.332-.321.206 0 .246.114.331.321l.164.421 1.418 3.57h-3.853zM41.306 20.943v-4.165c0-.097.022-.211.194-.239l.689-.147v-.931h-3.201v.931l.708.147c.16.028.191.143.191.239v6.457c0 .097-.031.211-.191.237l-.708.151v.914h6.847v-1.224h-4.53v-2.37zM93.918 20.938c-.36-1.678-1.844-1.627-3.575-1.708-1.258-.07-2.184.004-2.184-1.341 0-.272.051-.487.141-.655l-1.47-.002a4.025 4.025 0 0 0-.081.837c0 2.461 1.643 2.423 3.686 2.558.89.048 1.474.045 1.797.316h.002c.224.181.333.503.333 1.079 0 1.389-1.232 1.389-2.276 1.389-1.426 0-3.183-.336-3.183-.336l-.167 1.19s1.61.366 3.509.366c2.157 0 3.549-.366 3.549-2.83 0-.326-.025-.62-.08-.863h-.001zM12.325 17.232c.087-.213.2-.373.334-.514.434-.439 1.198-.519 2.292-.519 1.132 0 2.963.325 2.963.325l.121-.792c-1.04-.225-2.212-.365-3.168-.365-1.42 0-2.386.158-2.961.751-.267.269-.46.628-.595 1.113-.189.657-.267 1.556-.267 2.769 0 .326.009.646.019.939l.385.001-.385.002c.072 1.479.332 2.383.854 2.936.587.593 1.557.753 3.006.753 1.555 0 3.111-.354 3.111-.354l-.121-.735s-1.489.283-2.881.283c-1.135 0-1.9-.097-2.351-.546-.411-.404-.605-1.096-.661-2.342h-.001a16.796 16.796 0 0 1-.019-.922c.002-1.341.082-2.218.325-2.783zM8.513 17.232h.85c-.329-1.48-1.224-1.864-3.58-1.864-2.303 0-3.232.293-3.587 1.864h.988c.313-.957 1.021-1.096 2.599-1.096 1.64 0 2.325.231 2.609 1.096.197.583.198 1.466.198 2.784 0 .328 0 .644-.002.927-.043 2.479-.376 2.918-2.794 2.918-2.357 0-2.772-.411-2.83-2.918a44.785 44.785 0 0 1-.008-.927c0-1.321.042-2.213.228-2.778l-.988-.006C2.044 17.891 2 18.795 2 20.017c0 .322.003.64.013.928.073 2.962.646 3.688 3.781 3.688 3.129 0 3.676-.674 3.742-3.688l-.827-.001h.827c.009-.285.011-.604.011-.927 0-1.206-.031-2.112-.184-2.776l-.85-.009zM36.396 17.232h.85c-.323-1.48-1.22-1.864-3.58-1.864-2.303 0-3.232.293-3.582 1.864h.989c.309-.957 1.014-1.096 2.593-1.096 1.643 0 2.325.231 2.612 1.096.197.583.198 1.466.198 2.784l-.001.927c-.042 2.479-.378 2.918-2.792 2.918-2.362 0-2.776-.411-2.83-2.918a33.341 33.341 0 0 1-.012-.927c0-1.321.041-2.213.232-2.778l-.989-.006c-.157.658-.201 1.563-.201 2.784 0 .322.004.64.013.928.073 2.962.65 3.688 3.787 3.688 3.125 0 3.67-.674 3.742-3.688l-.827-.001h.827c.003-.285.006-.604.006-.927 0-1.206-.03-2.112-.185-2.776l-.85-.008zM62.101 20.943v2.211c-.336.081-1.255.257-2.51.257-1.912 0-2.505-.229-2.618-2.47a22.136 22.136 0 0 1-.014-.925c0-1.501.151-2.32.551-2.784h.003c.425-.493 1.114-.564 2.175-.564 1.49 0 3.412.371 3.412.371l.176-1.219s-1.734-.446-3.48-.446c-2.2 0-3.414.359-3.952 1.858-.238.666-.348 1.57-.348 2.784 0 .324.008.642.025.928h.001c.143 3.055 1.141 3.688 3.973 3.688.388 0 1.015-.063 1.015-.063l1.125-.742c.131-.079.227-.158.37-.158.258 0 .291.193.314.308l.097.563h1.119V19.597h-1.432v1.346zM71.601 16.392l.709.147c.158.028.192.143.192.239v6.343s-1.207.325-2.761.325c-1.883 0-2.196-.354-2.196-2.249v-4.419c0-.097.023-.211.195-.239l.689-.147v-.931h-3.204v.931l.711.147c.16.028.188.143.188.239v4.595c0 2.506.657 3.259 3.498 3.259.376 0 1.133-.063 1.133-.063l1.125-.742c.131-.079.223-.158.372-.158.257 0 .291.193.313.308l.098.563h2.14v-.914l-.69-.151c-.171-.026-.194-.141-.194-.237v-6.457c0-.097.023-.211.194-.239l.69-.147v-.931h-3.201v.928zM90.532 16.571c1.192 0 2.784.325 2.784.325l.193-1.192s-1.511-.336-3.212-.336c-2.063 0-3.189.409-3.467 1.862l1.47.002c.369-.693 1.376-.661 2.232-.661zM46.815 16.394l.711.146c.168.032.191.146.191.243V23.236c0 .097-.023.211-.191.237l-.711.151v.914h7.332v-1.206h-5.004v-2.848h4.845v-1.192h-4.845v-2.607h5.004V15.46h-7.332v.934zM26.044 16.093l.491.087c.159.034.194.166.194.263v3.089h-5.666v-3.089c0-.097.023-.229.188-.263l.49-.087v-.632H19.45v.632l.491.087c.165.034.19.166.19.263v7.129c0 .097-.025.229-.19.248l-.491.089v.63h2.291v-.63l-.49-.089c-.165-.02-.188-.151-.188-.248v-3.265h5.666v3.265c0 .097-.035.229-.194.248l-.491.089v.63h2.293v-.63l-.49-.089c-.171-.02-.194-.151-.194-.248V16.443c0-.097.023-.229.194-.263l.49-.087v-.632h-2.293v.632z"/></g></svg>