<svg xmlns="http://www.w3.org/2000/svg" width="96" height="40" viewBox="0 0 96 40"><g fill="#000333"><path d="M16.766 21.233v9.428H14V9.339h5.47c1.397 0 2.562 1.16 2.562 2.557v6.779c0 1.398-1.164 2.559-2.562 2.559h-2.704zm0-9.222v6.551h1.833a.66.66 0 0 0 .667-.67v-5.211a.658.658 0 0 0-.667-.67h-1.833zM31.516 9.339h3.406l2.735 21.322h-2.823l-.553-4.713H32.07l-.522 4.713h-2.766l2.734-21.322zm.845 14.051h1.629l-.785-7.072h-.059l-.785 7.072zM47.521 21.233v9.428h-2.765V9.339h5.472c1.397 0 2.56 1.16 2.56 2.557v6.779a2.58 2.58 0 0 1-2.56 2.559h-2.707zm0-9.222v6.551h1.834a.66.66 0 0 0 .668-.67v-5.211c0-.377-.29-.67-.668-.67h-1.834zM60.702 9.339h6.983v2.672h-4.219v6.664h3.928v2.682h-3.928v6.633h4.219v2.672h-6.983V9.339zM75.311 9.339h2.762v18.65H82v2.672h-6.689V9.339z"/></g></svg>