<svg xmlns="http://www.w3.org/2000/svg" width="20" height="19.992" viewBox="-0.16 0 20 19.992"><path fill="#FFF" d="M9.91-.004C4.525-.004.142 4.373.142 9.759c0 1.848.512 3.619 1.48 5.171L.034 19.173a.612.612 0 0 0 .577.824c.07 0 .147-.008.215-.037l4.377-1.634a9.811 9.811 0 0 0 4.709 1.206c5.387 0 9.772-4.377 9.772-9.772-.002-5.387-4.387-9.764-9.774-9.764zm4.709 12.837c-.272.965-1.294 1.669-2.425 1.669-.109 0-.223-.006-.331-.014-1.376-.201-2.99-1.147-4.312-2.53-1.394-1.333-2.34-2.946-2.527-4.314-.186-1.376.432-2.406 1.654-2.751a.614.614 0 0 1 .202-.03c.715 0 1.568 1.017 1.867 1.745.192.469.177.828-.042 1.055-.556.54-.763.864-.736 1.173.024.345.341.734.879 1.297.068.072.156.17.263.273.096.09.187.182.27.258.601.568.989.88 1.342.88.293 0 .609-.207 1.13-.737a.644.644 0 0 1 .47-.178c.648 0 1.562.631 2.006 1.226.271.353.368.697.29.978z"/></svg>