<svg baseProfile="tiny" xmlns="http://www.w3.org/2000/svg" width="36" height="36" viewBox="0 0 36 36"><path fill-rule="evenodd" fill="#333" d="M18 0C8.1 0 0 8.1 0 18c0 3.9 1.3 7.6 3.4 10.6l-2.3 6.7 7-2.3c2.8 1.9 6.2 3 9.9 3 9.9 0 18-8.1 18-18S27.9 0 18 0zm11.1 25.4c-.4 1.2-2.6 2.4-3.5 2.5-1 .1-1 .8-6.3-1.3s-8.7-7.6-9-7.9c-.3-.4-2.1-2.8-2.1-5.4 0-2.6 1.4-3.9 1.8-4.4.5-.5 1-.7 1.4-.7h1c.3 0 .7-.2 1.2.9.4 1.1 1.5 3.6 1.6 3.9.1.3.2.6 0 .9-.2.4-.3.6-.5.9s-.6.7-.8.9c-.3.3-.5.5-.2 1.1.3.5 1.4 2.2 2.9 3.6 2 1.8 3.7 2.3 4.2 2.6.5.3.8.2 1.1-.1.3-.4 1.3-1.5 1.7-2.1.4-.5.7-.4 1.2-.3.5.2 3.1 1.4 3.6 1.7.5.3.9.4 1 .6.2.4.2 1.4-.3 2.6z"/></svg>