<svg xmlns="http://www.w3.org/2000/svg" width="14.937" height="19.201" viewBox="0 0 14.937 19.201"><path fill="#FFF" d="M8.718 13.928c-1.17-.094-1.66-.672-2.576-1.229-.504 2.643-1.119 5.178-2.943 6.502-.563-3.992.826-6.994 1.471-10.18-1.099-1.855.132-5.582 2.452-4.662 2.855 1.131-2.473 6.883 1.105 7.604 3.732.75 5.258-6.48 2.941-8.832-3.346-3.397-9.737-.078-8.952 4.783.191 1.189 1.419 1.547.49 3.191C.563 10.632-.075 8.939.007 6.687.138 3.001 3.319.423 6.509.064c4.033-.451 7.816 1.48 8.34 5.273.589 4.282-1.821 8.925-6.131 8.591z"/></svg>