<svg baseProfile="tiny" xmlns="http://www.w3.org/2000/svg" width="42.2" height="26.8" viewBox="0 0 42.2 26.8"><path fill-rule="evenodd" d="M0 0v26.8h6.5V15.9h4.4v-5s-4.3 0-4.4-.1V5.1c0-.1 6.4-.1 6.4-.1V0H0z"/><path fill-rule="evenodd" fill="#E67E22" d="M42.2 5.9c0-.6 0-1.2-.2-1.8-.5-1.8-1.6-3-3.3-3.7-.8-.3-1.6-.3-2.4-.3H21.1c-1.6 0-3 .5-4.1 1.7-1 1-1.4 2.3-1.4 3.7v15.8c0 .8.2 1.5.5 2.3.8 1.8 2.7 3.1 4.7 3.1h16c.8 0 1.6-.1 2.4-.5 1.1-.5 2-1.3 2.5-2.4.4-.9.6-1.9.6-2.9-.1-5-.1-10-.1-15z"/><path fill-rule="evenodd" fill="#FFF" d="M32.3 15.5h-1.5c-.4 0-.5.1-.5.5v1.1c0 .4.1.5.5.5h.7c.2 0 .4.1.3.4v.9c0 .2-.1.3-.3.3h-.8c-.4 0-.5.1-.5.5v3c0 .2-.1.3-.4.3h-1.3c-.3 0-.4-.1-.4-.4v-4.2-4.3c0-.2.1-.3.3-.3h3.7c.2 0 .3.1.3.3v1c.2.3.1.4-.1.4zM39.1 21.2c0 1.1-1 2-2 2-.5 0-1 .1-1.6-.2-.8-.4-1.1-1.1-1.2-1.9v-.4c0-.3.1-.4.4-.4h.9c.3 0 .4.1.4.4 0 .2 0 .4.1.5.1.3.3.4.6.3.3 0 .5-.2.5-.5v-2.2c0-.3-.2-.5-.4-.5-.1 0-.3.1-.5.2-.2.2-.4.2-.6.2-.3-.1-.6-.1-.9-.2-.2 0-.3-.1-.3-.3.1-1.3.1-2.6.2-3.9 0-.4 0-.4.4-.4h3.5c.3 0 .4.1.3.4-.1.4-.1.8-.5 1.1-.2.1-.4.2-.6.2h-1.3c-.3 0-.5.1-.5.5v1c0 .1 0 .2.1.4.1 0 .2-.1.3-.1.7-.5 1.5-.5 2.1.1.3.3.4.7.4 1.1.2.8.2 1.7.2 2.6z"/></svg>