<svg baseProfile="tiny" xmlns="http://www.w3.org/2000/svg" width="145.8" height="32" viewBox="0 0 145.8 32"><g fill-rule="evenodd"><path fill="#FF8F00" d="M145.7 7.4c0-.7 0-1.3-.2-2-.6-2.1-1.8-3.5-3.8-4.3-.9-.3-1.8-.4-2.8-.4h-17.4c-1.8 0-3.4.6-4.7 2-1.1 1.2-1.6 2.6-1.6 4.2V25c0 .9.2 1.8.5 2.6.9 2.1 3.1 3.5 5.3 3.5h18.3c1 0 1.9-.1 2.8-.5 1.3-.6 2.2-1.5 2.9-2.8.5-1 .7-2.1.7-3.3V7.4z"/><path d="M110.8 6.1c-.5-2.1-1.8-3.6-3.6-4.7-1.3-.8-2.8-1.1-4.4-1.3-.6-.1-1.3.1-2 .1-1.3.1-2.5.5-3.6 1.2-2.5 1.5-3.8 3.7-3.8 6.6-.1 5.1 0 10.3 0 15.4 0 .6 0 1.2.1 1.8.2 1.6.9 3 2.1 4.2.8.8 1.8 1.5 2.9 1.9.9.3 1.9.5 2.8.7.9.2 1.8 0 2.7-.1 1.3-.3 2.5-.7 3.7-1.4 2.2-1.5 3.3-3.6 3.4-6.2.1-2.7 0-13.3 0-15.8 0-.9-.1-1.7-.3-2.4zm-6.9 18.1c0 .8-.4 1.4-1.1 1.6-.7.2-1.5 0-1.9-.6-.2-.3-.2-.6-.2-.9v-16-.6c-.1-1 .8-1.6 1.6-1.6.9 0 1.6.7 1.6 1.6v16.5z"/><path fill="#FF8F00" d="M0 .7v30.6h7.4V18.8h5v-5.7s-4.9 0-5-.1V6.5c.1 0 7.4-.1 7.4-.1V.7H0z"/><path d="M29.4 9.1v3.1h6.2V8.3c0-1.6-.3-3.2-1.2-4.6C33 1.3 30.7.4 28.2 0c-.9-.1-1.7 0-2.6.2-1.3.3-2.6.7-3.8 1.5-2.4 1.6-3.5 3.9-3.6 6.6-.1 4.8 0 9.7 0 14.5 0 .9.1 1.8.2 2.6.3 1.2.8 2.3 1.6 3.3 1 1.2 2.3 2.1 3.8 2.6.9.3 1.8.5 2.7.6 1.1.2 2.2 0 3.2-.3.7-.2 1.5-.5 2.1-.9 2.4-1.4 3.5-3.7 3.6-6.4v-4.4h-6.2v4c0 .8-.3 1.4-1.1 1.7-1.3.5-2.9-.1-2.8-1.7V7.8c0-.6.2-1.1.8-1.5 1.5-.9 3.1.1 3.1 1.8.2.4.2.7.2 1zM83.8 9.1v3.1H90V8.3c0-1.6-.3-3.2-1.2-4.6C87.4 1.4 85.1.4 82.6.1c-.9-.1-1.7 0-2.6.2-1.3.3-2.6.7-3.8 1.5-2.4 1.6-3.5 3.9-3.6 6.6-.1 4.8 0 9.7 0 14.5 0 .9.1 1.8.3 2.6.3 1.2.8 2.3 1.6 3.3 1 1.2 2.3 2.1 3.8 2.6.9.3 1.8.5 2.7.6 1.1.2 2.2 0 3.2-.3.7-.2 1.5-.5 2.1-.9 2.4-1.4 3.5-3.7 3.6-6.4V20h-6.2v4c0 .8-.3 1.4-1.1 1.7-1.3.5-2.9-.1-2.8-1.7V7.9c0-.6.2-1.1.8-1.5 1.5-.9 3.1.1 3.1 1.8.1.3.1.6.1.9zM39.3.7h7.1v30.6h-7.1zM62.5 14.3v1.5c0 .1-.1.1-.1.2l-.1-.1L56.8.7h-6.2v30.6h6.2V16.5c0-.1.1-.2.1-.3.1.1.2.1.2.2l5.6 14.9h5.9V.7h-6.2c.2 0 .1 13.4.1 13.6zM134.5 18.4h-1.7c-.4 0-.6.2-.6.6v1.3c0 .5.1.6.6.6h.8c.3 0 .4.1.4.4v1.1c0 .3-.1.4-.4.4h-.9c-.5 0-.6.2-.6.6v3.4c0 .3-.2.4-.4.4h-1.4c-.3 0-.5-.1-.5-.4V22v-4.9c0-.2.1-.4.3-.4h4.2c.2 0 .3.1.3.3v1.2c.2.1.1.2-.1.2zM142.2 24.9c0 1.2-1.1 2.3-2.3 2.3-.6 0-1.2.1-1.8-.2-.9-.5-1.3-1.2-1.3-2.2v-.5c0-.4.1-.4.4-.4h1.1c.4 0 .4.1.4.5 0 .2 0 .4.1.6.1.3.4.4.7.4.3 0 .5-.3.5-.6v-2.5c0-.3-.2-.5-.5-.6-.2 0-.4.1-.5.2-.2.2-.4.3-.7.2-.3-.1-.7-.1-1-.2-.2 0-.3-.1-.3-.4.1-1.5.2-3 .2-4.5 0-.4 0-.5.5-.5h4.1c.4 0 .4.1.3.5-.1.4-.1 1-.6 1.2-.2.1-.4.2-.7.2h-1.4c-.4 0-.5.1-.5.5v1.2c0 .1.1.3.1.4.1 0 .3-.1.4-.2.8-.5 1.7-.5 2.4.2.3.3.5.7.5 1.2-.1 1.1-.1 2.1-.1 3.2z"/></g></svg>