<svg xmlns="http://www.w3.org/2000/svg" width="36" height="32" viewBox="0 0 36 32"><g fill="#fff"><path d="M7.502 29.671H4.873L2.041 2.329h2.586l1.561 20.773L8.199 2.329h2.34L7.502 29.671zM16.824 30c-2.217 0-3.817-1.684-3.817-4.311v-6.898h2.381v7.145c0 .943.37 1.561 1.354 1.561.985 0 1.355-.617 1.355-1.561V2.329h2.463v23.36C20.561 28.316 19.041 30 16.824 30zM29.896 30c-2.545 0-4.063-1.889-4.063-4.639v-3.695h2.381v3.818c0 1.354.656 2.381 1.601 2.381 1.272 0 1.766-.862 1.766-2.381 0-2.752-.944-5.297-2.422-8.376-1.313-2.71-3.12-6.856-3.12-9.688 0-3.162 1.23-5.42 4.146-5.42 2.258 0 3.695 1.889 3.695 4.682v3.982h-2.341v-3.9c0-1.643-.493-2.424-1.396-2.424-1.068 0-1.725.698-1.725 2.176 0 3.203.985 5.338 2.668 8.869 1.561 3.325 2.873 6.486 2.873 9.36 0 4.27-2.421 5.255-4.063 5.255z"/></g></svg>