<svg xmlns="http://www.w3.org/2000/svg" width="32" height="32" viewBox="0 0 32 32"><path opacity=".5" fill="none" d="M0 0h32v32H0z"/><g fill="#333"><path d="M16 16a4 4 0 1 0 0-8 4 4 0 0 0 0 8zm0-6a2 2 0 1 1-.001 4.001A2 2 0 0 1 16 10zM24.816 23.292A9.99 9.99 0 0 0 16 18c-3.818 0-7.132 2.145-8.816 5.292a.5.5 0 0 0-.053.208.5.5 0 0 0 .5.5H8.79a.572.572 0 0 0 .456-.266A7.98 7.98 0 0 1 16 20c2.848 0 5.338 1.494 6.756 3.734a.569.569 0 0 0 .455.266h1.16c.274 0 .5-.224.5-.5a.46.46 0 0 0-.055-.208z"/></g></svg>