<svg xmlns="http://www.w3.org/2000/svg" width="150px" height="26px" viewBox="0 0 500 90">
<path fill="#FF8F00" d="M20.349,20.461v19.577h18.407v14.159H20.349v33.98H4V6.18h41.616v14.282H20.349z"/>
<path d="M76.598,90.271c-16.121,0-25.496-11.204-25.496-25.362V29.45c0-14.159,9.375-25.363,25.496-25.363
	c15.892,0,24.009,10.219,24.009,23.886v8.003H85.973v-7.634c0-5.664-3.087-9.357-9.146-9.357c-6.059,0-9.146,3.816-9.146,9.111
	v38.291c0,5.171,3.087,8.988,9.146,8.988c6.06,0,9.146-3.694,9.146-9.357v-7.633h14.634v8.002
	C100.607,80.053,92.49,90.271,76.598,90.271z"/>
<path d="M108.838,88.178V6.18h16.349v81.998H108.838z"/>
<path d="M173.891,88.178l-16.807-32.873l-6.517-13.42v46.293H135.59V6.18h13.605l16.35,33.612l6.174,13.42V6.18h14.749v81.998
	H173.891z"/>
<path d="M221.565,90.271c-16.121,0-25.496-11.204-25.496-25.362V29.45c0-14.159,9.375-25.363,25.496-25.363
	c15.892,0,24.01,10.219,24.01,23.886v8.003H230.94v-7.634c0-5.664-3.087-9.357-9.146-9.357s-9.146,3.816-9.146,9.111v38.291
	c0,5.171,3.087,8.988,9.146,8.988s9.146-3.694,9.146-9.357v-7.633h14.635v8.002C245.575,80.053,237.457,90.271,221.565,90.271z"/>
<path d="M278.044,90.271c-15.663,0-25.038-10.466-25.038-25.117V29.203c0-14.528,9.375-24.993,25.038-24.993
	c15.777,0,25.038,10.465,25.038,24.993v35.951C303.082,79.806,293.821,90.271,278.044,90.271z M286.619,28.218
	c0-5.541-3.088-9.234-8.575-9.234c-5.373,0-8.461,3.693-8.461,9.234V66.14c0,5.54,3.088,9.234,8.461,9.234
	c5.487,0,8.575-3.694,8.575-9.234V28.218z"/>
<path fill-rule="evenodd" clip-rule="evenodd" fill="#FF8F00" d="M394.633,76.114c0,6.1-4.944,11.044-11.043,11.044h-59.145
	c-6.099,0-11.043-4.944-11.043-11.044V16.971c0-6.099,4.944-11.043,11.043-11.043h59.145c6.099,0,11.043,4.944,11.043,11.043V76.114
	z"/>
<path d="M358.235,51.613v7.15h6.722v5.171h-6.722v12.41h-5.971V46.398h15.198v5.215H358.235z"/>
<path d="M381.784,51.613h-6.805l-0.501,7.105c1.086-1.665,3.006-2.743,5.511-2.743c3.466,0,5.637,2.563,5.637,6.295v6.654
	c0,4.992-3.257,8.185-8.56,8.185c-5.26,0-7.891-3.957-7.891-7.869v-2.068h4.969v1.259c0,2.203,1.044,3.597,3.048,3.597
	s3.048-1.168,3.048-3.462V63.26c0-1.709-1.044-2.833-2.505-2.833c-1.754,0-2.923,1.305-3.341,2.653l-4.718-0.81l0.877-15.872h14.947
	C385.167,49.905,384.374,51.613,381.784,51.613z"/>
</svg>
