<svg xmlns="http://www.w3.org/2000/svg" width="100" height="35" viewBox="0 0 600 200">
<g>
	<path fill="#FFFFFF" d="M225.777,198.004c0-65.545,0-130.864,0-196.156c-6.062,0-11.963,0-18.012,0c0,39.678,0,79.219,0,118.759
		c-0.921-3.449-1.618-6.911-2.286-10.378c-6.854-35.661-13.713-71.322-20.521-106.992c-0.259-1.359-0.878-1.557-2.053-1.547
		c-5.801,0.044-11.6,0.017-17.4,0.027c-0.451,0.001-0.902,0.096-1.355,0.147c0,65.399,0,130.67,0,195.986c6.058,0,12.014,0,18.19,0
		c0-39.007,0-77.844,0-116.682c0.546,0.508,0.742,1.059,0.87,1.625c5.912,25.972,11.815,51.946,17.729,77.918
		c2.692,11.822,5.392,23.644,8.138,35.453c0.155,0.668,0.756,1.751,1.171,1.761C215.414,198.046,220.587,198.004,225.777,198.004z"
		/>
	<path fill="#FFFFFF" d="M13.796,197.838c16.991,0,33.919,0,50.792,0c0-6.895,0-13.605,0-20.479c-10.189,0-20.198,0-30.276,0
		c0.055-0.508,0.066-0.845,0.13-1.173c5.234-26.875,10.479-53.749,15.709-80.625c5.204-26.743,10.369-53.494,15.609-80.229
		c0.885-4.516,0.636-9.006,0.553-13.501c-17.22,0-34.175,0-51.159,0c0,7.108,0,14.094,0,21.299c10.11,0,20.097,0,30.27,0
		c-0.152,0.902-0.25,1.565-0.377,2.222c-4.976,25.676-9.944,51.354-14.934,77.027c-4.833,24.871-9.655,49.745-14.554,74.604
		C14.209,183.819,12.942,190.637,13.796,197.838z"/>
	<path fill="#FFFFFF" d="M90.786,197.835c16,0,31.779,0,47.512,0c0-6.971,0-13.756,0-20.805c-8.779,0-17.396,0-25.999,0
		c0-23.345,0-46.422,0-69.688c6.217,0,12.262,0,18.368,0c0-6.956,0-13.724,0-20.732c-6.11,0-12.074,0-18.074,0
		c0-21.555,0-42.867,0-64.364c8.628,0,17.13,0,25.75,0c0-6.908,0-13.63,0-20.42c-15.894,0-31.681,0-47.558,0
		C90.786,67.206,90.786,132.467,90.786,197.835z"/>
	<path fill-rule="evenodd" clip-rule="evenodd" d="M225.777,198.004c-5.19,0-10.363,0.042-15.53-0.079
		c-0.415-0.01-1.016-1.093-1.171-1.761c-2.746-11.81-5.445-23.631-8.138-35.453c-5.913-25.972-11.816-51.946-17.729-77.918
		c-0.128-0.566-0.324-1.117-0.87-1.625c0,38.838,0,77.675,0,116.682c-6.177,0-12.133,0-18.19,0c0-65.316,0-130.587,0-195.986
		c0.453-0.051,0.904-0.146,1.355-0.147c5.801-0.01,11.6,0.018,17.4-0.027c1.175-0.009,1.794,0.188,2.053,1.547
		c6.809,35.67,13.667,71.331,20.521,106.992c0.668,3.467,1.365,6.929,2.286,10.378c0-39.54,0-79.081,0-118.759
		c6.049,0,11.95,0,18.012,0C225.777,67.14,225.777,132.459,225.777,198.004z"/>
	<path fill-rule="evenodd" clip-rule="evenodd" d="M13.796,197.838c-0.854-7.201,0.414-14.019,1.762-20.856
		c4.899-24.858,9.721-49.732,14.554-74.604c4.989-25.673,9.958-51.351,14.934-77.027c0.127-0.657,0.225-1.32,0.377-2.222
		c-10.173,0-20.159,0-30.27,0c0-7.205,0-14.191,0-21.299c16.984,0,33.939,0,51.159,0c0.083,4.496,0.332,8.986-0.553,13.501
		C60.52,42.066,55.354,68.817,50.15,95.561c-5.229,26.876-10.475,53.75-15.709,80.625c-0.064,0.328-0.075,0.665-0.13,1.173
		c10.079,0,20.087,0,30.276,0c0,6.874,0,13.585,0,20.479C47.715,197.838,30.787,197.838,13.796,197.838z"/>
	<path fill-rule="evenodd" clip-rule="evenodd" d="M90.786,197.835c0-65.368,0-130.629,0-196.008c15.877,0,31.665,0,47.558,0
		c0,6.79,0,13.512,0,20.42c-8.62,0-17.122,0-25.75,0c0,21.497,0,42.809,0,64.364c6,0,11.963,0,18.074,0c0,7.008,0,13.776,0,20.732
		c-6.105,0-12.15,0-18.368,0c0,23.266,0,46.343,0,69.688c8.602,0,17.219,0,25.999,0c0,7.049,0,13.834,0,20.805
		C122.564,197.835,106.786,197.835,90.786,197.835z M100.823,123.916c4.668-0.751,4.668-0.751,4.609-1.733c-3.17,0-6.341,0-9.524,0
		c0,0.813,0,1.515,0,2.219c1.941,0.364,3.731,0.701,5.521,1.037c0,0.078,0,0.157,0,0.235c-1.848,0.333-3.695,0.666-5.528,0.996
		c0,0.848,0,1.544,0,2.254c3.326,0,6.499,0,10.018,0c-1.153-2.288-3.314-0.896-4.828-1.804c1.236-0.217,2.315-0.321,3.338-0.62
		c0.474-0.139,0.838-0.653,1.253-0.996c-0.442-0.317-0.841-0.783-1.333-0.923C103.328,124.29,102.258,124.174,100.823,123.916z
		 M105.767,74.071c-0.289-1.873,0.686-4.029-1.465-4.859c-1.135-0.438-2.652,0.115-4.501,0.262c-0.65,0-2.394-0.471-2.858,0.1
		c-0.896,1.1-1.07,2.789-1.629,4.497C99.126,74.071,102.288,74.071,105.767,74.071z M105.577,8.705
		c-0.426,0.135-0.672,0.222-0.922,0.291c-1.745,0.479-3.299,1.352-5.296,0.092c-1.609-1.015-3.229,0.165-3.52,2.101
		c-0.136,0.909-0.023,1.855-0.023,2.897c3.325,0,6.486,0,9.648,0c0.149-0.152,0.297-0.305,0.447-0.458
		c-0.433-0.493-0.78-1.237-1.318-1.419c-0.729-0.246-1.603-0.061-2.658-0.061C103.146,10.624,106.196,11.985,105.577,8.705z
		 M99.722,107.261c0.006,0.147,0.012,0.296,0.019,0.444c-1.118,0.476-2.264,0.898-3.335,1.462c-0.313,0.165-0.511,0.724-0.558,1.126
		c-0.015,0.135,0.6,0.489,0.931,0.495c2.579,0.044,5.162,0.068,7.74-0.016c0.397-0.014,0.775-0.617,1.162-0.947
		c-0.383-0.262-0.747-0.703-1.154-0.748c-0.993-0.109-2.005-0.036-3.01-0.036c1.129-0.876,2.274-1.288,3.36-1.821
		c0.349-0.172,0.54-0.667,0.802-1.013c-0.34-0.237-0.677-0.674-1.022-0.682c-2.647-0.055-5.297-0.061-7.943,0.02
		c-0.324,0.011-0.629,0.625-0.944,0.959c0.322,0.252,0.626,0.688,0.97,0.722C97.724,107.324,98.726,107.261,99.722,107.261z
		 M105.62,161.324c-0.507,0.087-0.842,0.106-1.151,0.205c-1.668,0.537-3.13,1.358-5.044,0.041c-1.538-1.059-3.248,0.121-3.554,2.05
		c-0.153,0.962-0.027,1.969-0.027,2.955c3.367,0,6.529,0,9.845,0c-0.042-0.702-0.077-1.272-0.123-2.025c-1.429,0-2.699,0-3.847,0
		C102.616,163.019,105.941,164.75,105.62,161.324z M99.779,49.812c-1.208,1.665-3.788,0.989-4.083,3.544
		c3.093,0,6.01,0.049,8.921-0.054c0.418-0.015,0.812-0.76,1.217-1.168c-0.14-0.202-0.279-0.404-0.419-0.605
		c-1.333,0-2.666,0-3.998,0c1.138-0.746,2.3-1.149,3.382-1.705c0.385-0.198,0.58-0.767,0.861-1.167
		c-0.366-0.205-0.729-0.581-1.099-0.588c-2.585-0.05-5.174-0.059-7.758,0.017c-0.354,0.01-0.693,0.562-1.039,0.864
		c0.365,0.288,0.702,0.765,1.101,0.824C97.72,49.9,98.607,49.812,99.779,49.812z M95.75,176.893
		c0.048,1.833,0.047,1.851,1.442,1.884c1.835,0.042,3.674-0.007,5.502,0.116c0.545,0.036,1.06,0.519,1.588,0.796
		c-0.581,0.31-1.15,0.857-1.745,0.886c-2.224,0.106-4.456,0.043-6.742,0.043c0,0.761,0,1.326,0,1.953
		c2.545,0,4.985,0.101,7.413-0.034c1.746-0.098,2.714-1.217,2.607-3.01c-0.101-1.688-1.107-2.594-2.787-2.623
		C100.66,176.861,98.289,176.893,95.75,176.893z M100.719,150.776c0,0.007,0,0.013,0,0.018c0.682,0,1.363,0.001,2.045,0
		c1.759-0.004,2.858-0.819,3.053-2.611c0.181-1.675-0.895-2.946-2.803-3.092c-1.689-0.129-3.417-0.129-5.096,0.074
		c-1.667,0.202-2.417,1.366-2.292,3.062c0.122,1.646,1.065,2.44,2.64,2.54C99.08,150.819,99.901,150.776,100.719,150.776z
		 M97.058,188.373c0.26-1.539,3.669,0.087,2.43-2.689c-2.568-0.258-3.737,0.47-3.861,2.382c-0.133,2.072,0.998,3.077,3.549,3.126
		c1.087,0.021,2.226,0.206,3.248-0.053c1.092-0.275,2.414-0.75,2.995-1.583c0.446-0.64,0.263-2.314-0.298-2.911
		c-0.726-0.773-2.105-0.934-3.229-1.366c-0.52,1.76-0.121,2.316,1.2,2.285c0.381-0.009,0.797,0.357,1.133,0.631
		c0.049,0.04-0.188,0.612-0.411,0.776C102.94,189.612,98.038,189.162,97.058,188.373z M105.914,17.595
		c-0.153-0.177-0.306-0.354-0.458-0.531c-1.707,0.348-3.415,0.688-5.119,1.045c-1.262,0.265-2.542,0.481-3.765,0.871
		c-0.357,0.114-0.708,0.733-0.756,1.157c-0.03,0.264,0.461,0.767,0.802,0.864c1.435,0.407,2.896,0.721,4.356,1.031
		c1.532,0.325,3.072,0.606,4.609,0.907c0.13-0.212,0.261-0.423,0.392-0.635c-0.447-0.47-0.884-0.95-1.344-1.407
		c-0.346-0.344-0.721-0.657-1.083-0.984c0.348-0.241,0.743-0.437,1.033-0.734C105.06,18.685,105.473,18.126,105.914,17.595z
		 M96.006,158.33c3.138,0,6.297,0,9.547,0c0-0.678,0-1.242,0-1.946c-1.353,0-2.563,0-3.717,0c-0.996-2.579-2.157-3.295-4.266-2.738
		C95.898,154.087,95.453,155.372,96.006,158.33z M98.228,32.925c-0.238-0.152-0.476-0.304-0.713-0.457
		c-0.654,0.791-1.711,1.518-1.848,2.389c-0.137,0.869,0.402,2.339,1.095,2.714c0.81,0.438,2.188,0.194,3.165-0.169
		c0.744-0.276,1.165-1.326,1.882-1.799c0.662-0.437,1.527-0.564,2.302-0.828c0.071,0.235,0.142,0.469,0.212,0.704
		c-0.564,0.295-1.129,0.591-1.807,0.945c0.153,0.53,0.31,1.078,0.468,1.626c1.658-0.171,2.713-0.954,2.757-2.407
		c0.024-0.819-0.508-2.231-1.048-2.37c-1.107-0.284-2.468-0.109-3.57,0.296c-0.812,0.298-1.304,1.376-2.081,1.892
		c-0.53,0.351-1.305,0.333-1.971,0.48c-0.044-0.228-0.088-0.456-0.133-0.684c0.512-0.241,1.023-0.482,1.604-0.756
		C98.434,33.961,98.331,33.443,98.228,32.925z M104.146,92.211c-1.179-0.38-2.636,0.702-2.962-1.229
		c-0.009-0.049-1.198-0.033-1.218,0.074c-0.361,1.845-1.624,0.833-2.541,0.978c-0.073-0.313-0.082-0.527-0.172-0.699
		c-0.241-0.459-0.517-0.9-0.778-1.349c-0.243,0.464-0.631,0.907-0.698,1.395c-0.116,0.843-0.032,1.714-0.032,2.678
		c3.408,0,6.56,0,9.689,0c0.633-3.116,0.438-3.826-1.076-3.879C104.298,90.762,104.236,91.35,104.146,92.211z M105.427,118.207
		c0.654-3.053,0.454-3.804-1.016-3.886c-0.109,0.628-0.219,1.26-0.351,2.015c-1.072-0.366-2.528,0.761-2.865-1.185
		c-0.011-0.061-1.205-0.052-1.224,0.045c-0.352,1.824-1.609,0.869-2.537,0.991c-0.076-0.301-0.091-0.511-0.179-0.684
		c-0.238-0.463-0.508-0.91-0.765-1.363c-0.249,0.457-0.645,0.896-0.712,1.379c-0.118,0.845-0.033,1.717-0.033,2.688
		C99.141,118.207,102.293,118.207,105.427,118.207z M105.469,173.507c0.531-3.226,0.402-3.722-1.074-4.024
		c-0.08,0.646-0.16,1.286-0.271,2.192c-1.092-0.487-2.596,0.697-2.978-1.325c-0.013-0.069-1.107-0.065-1.124,0.018
		c-0.373,1.864-1.604,1.083-2.635,1.023c-0.058-0.314-0.046-0.541-0.142-0.704c-0.256-0.439-0.56-0.853-0.844-1.275
		c-0.218,0.42-0.578,0.824-0.625,1.263c-0.098,0.908-0.03,1.835-0.03,2.833C99.162,173.507,102.268,173.507,105.469,173.507z
		 M97.513,43.279c-0.187-1.043-0.172-1.267-0.265-1.426c-0.258-0.44-0.56-0.853-0.845-1.276c-0.219,0.417-0.58,0.82-0.626,1.256
		c-0.098,0.908-0.03,1.835-0.03,2.731c3.474,0,6.632,0,9.77,0c0.462-3.449,0.397-3.673-1.105-3.877
		c-0.105,0.636-0.211,1.273-0.33,1.993c-1.168-0.224-2.608,0.642-3.013-1.233c-0.012-0.057-0.762-0.092-1.046,0.074
		C99.268,41.96,98.581,42.517,97.513,43.279z M95.747,60.164c3.481,0,6.642,0,9.777,0c0.447-3.535,0.394-3.712-1.104-3.844
		c-0.116,0.634-0.231,1.271-0.466,2.566c-1.13-0.696-1.929-1.264-2.799-1.686c-0.317-0.154-0.849-0.065-1.202,0.093
		c-0.8,0.358-1.549,0.829-2.489,1.348c-0.14-0.805-0.123-1.031-0.217-1.191c-0.257-0.437-0.562-0.845-0.848-1.265
		c-0.218,0.415-0.574,0.813-0.624,1.248C95.677,58.291,95.747,59.17,95.747,60.164z M105.602,98.737
		c-2.48,0-4.718,0.016-6.957-0.014c-0.434-0.005-0.918-0.097-1.285-0.311c-0.428-0.249-0.754-0.675-1.124-1.024
		c-0.164,0.602-0.404,1.196-0.471,1.808c-0.081,0.738-0.129,1.522,0.05,2.223c0.068,0.265,0.814,0.354,1.25,0.524
		c0.295-1.779,1.693-1.09,2.688-1.137c1.762-0.084,3.529-0.027,5.294-0.049c0.179-0.002,0.356-0.14,0.553-0.223
		C105.602,99.985,105.602,99.469,105.602,98.737z M105.553,26.749c-2.306,0-4.474,0.018-6.642-0.013
		c-0.517-0.007-1.076-0.077-1.535-0.292c-0.448-0.209-0.791-0.64-1.179-0.974c-0.15,0.545-0.385,1.083-0.432,1.637
		c-0.069,0.812-0.05,1.639,0.029,2.45c0.025,0.25,0.341,0.62,0.573,0.662c0.24,0.043,0.763-0.223,0.779-0.391
		c0.141-1.439,1.219-1.004,2.009-1.02c2.1-0.04,4.201-0.013,6.397-0.013C105.553,28.049,105.553,27.485,105.553,26.749z
		 M105.475,65.673c0.469-1.328,0.26-2.005-1.265-1.962c-2.311,0.066-4.624,0.062-6.935,0.002c-1.462-0.038-1.824,0.558-1.296,1.96
		C99.125,65.673,102.29,65.673,105.475,65.673z"/>
	<path fill-rule="evenodd" clip-rule="evenodd" fill="#FFFFFF" d="M100.823,123.916c1.436,0.258,2.505,0.374,3.526,0.665
		c0.492,0.14,0.891,0.605,1.333,0.923c-0.415,0.343-0.779,0.857-1.253,0.996c-1.023,0.299-2.103,0.403-3.338,0.62
		c1.514,0.907,3.675-0.484,4.828,1.804c-3.519,0-6.692,0-10.018,0c0-0.71,0-1.406,0-2.254c1.833-0.33,3.68-0.663,5.528-0.996
		c0-0.078,0-0.157,0-0.235c-1.79-0.336-3.579-0.673-5.521-1.037c0-0.704,0-1.405,0-2.219c3.183,0,6.354,0,9.524,0
		C105.491,123.165,105.491,123.165,100.823,123.916z"/>
	<path fill-rule="evenodd" clip-rule="evenodd" fill="#FFFFFF" d="M105.767,74.071c-3.479,0-6.64,0-10.454,0
		c0.559-1.708,0.732-3.397,1.629-4.497c0.465-0.571,2.208-0.1,2.858-0.1c1.849-0.146,3.366-0.699,4.501-0.262
		C106.453,70.042,105.478,72.198,105.767,74.071z"/>
	<path fill-rule="evenodd" clip-rule="evenodd" fill="#FFFFFF" d="M105.577,8.705c0.619,3.281-2.432,1.919-3.643,3.443
		c1.055,0,1.93-0.185,2.658,0.061c0.538,0.182,0.886,0.926,1.318,1.419c-0.149,0.153-0.298,0.306-0.447,0.458
		c-3.162,0-6.323,0-9.648,0c0-1.042-0.112-1.988,0.023-2.897c0.291-1.937,1.911-3.116,3.52-2.101
		c1.997,1.26,3.551,0.388,5.296-0.092C104.905,8.926,105.151,8.839,105.577,8.705z"/>
	<path fill-rule="evenodd" clip-rule="evenodd" fill="#FFFFFF" d="M99.722,107.261c-0.996,0-1.998,0.063-2.983-0.035
		c-0.344-0.034-0.648-0.47-0.97-0.722c0.314-0.334,0.62-0.948,0.944-0.959c2.646-0.08,5.295-0.074,7.943-0.02
		c0.345,0.008,0.682,0.444,1.022,0.682c-0.262,0.346-0.453,0.841-0.802,1.013c-1.085,0.533-2.23,0.945-3.36,1.821
		c1.004,0,2.017-0.073,3.01,0.036c0.407,0.045,0.771,0.486,1.154,0.748c-0.387,0.33-0.765,0.934-1.162,0.947
		c-2.578,0.084-5.161,0.06-7.74,0.016c-0.331-0.006-0.946-0.36-0.931-0.495c0.047-0.402,0.245-0.961,0.558-1.126
		c1.071-0.563,2.217-0.986,3.335-1.462C99.734,107.557,99.728,107.408,99.722,107.261z"/>
	<path fill-rule="evenodd" clip-rule="evenodd" fill="#FFFFFF" d="M105.62,161.324c0.321,3.426-3.003,1.694-3.9,3.226
		c1.147,0,2.418,0,3.847,0c0.045,0.753,0.08,1.323,0.123,2.025c-3.316,0-6.479,0-9.845,0c0-0.986-0.126-1.993,0.027-2.955
		c0.306-1.929,2.016-3.108,3.554-2.05c1.915,1.317,3.376,0.496,5.044-0.041C104.778,161.431,105.113,161.411,105.62,161.324z"/>
	<path fill-rule="evenodd" clip-rule="evenodd" fill="#FFFFFF" d="M99.779,49.812c-1.171,0-2.059,0.089-2.916-0.039
		c-0.399-0.059-0.735-0.537-1.101-0.824c0.346-0.301,0.684-0.854,1.039-0.864c2.584-0.076,5.173-0.067,7.758-0.017
		c0.37,0.007,0.733,0.383,1.099,0.588c-0.281,0.4-0.476,0.969-0.861,1.167c-1.083,0.556-2.244,0.959-3.382,1.705
		c1.333,0,2.666,0,3.998,0c0.14,0.202,0.28,0.404,0.419,0.605c-0.405,0.408-0.798,1.153-1.217,1.168
		c-2.911,0.103-5.828,0.054-8.921,0.054C95.991,50.8,98.57,51.476,99.779,49.812z"/>
	<path fill-rule="evenodd" clip-rule="evenodd" fill="#FFFFFF" d="M95.75,176.893c2.539,0,4.91-0.031,7.279,0.011
		c1.68,0.029,2.686,0.935,2.787,2.623c0.107,1.793-0.861,2.912-2.607,3.01c-2.427,0.135-4.868,0.034-7.413,0.034
		c0-0.627,0-1.192,0-1.953c2.286,0,4.518,0.063,6.742-0.043c0.595-0.028,1.164-0.576,1.745-0.886
		c-0.528-0.277-1.043-0.76-1.588-0.796c-1.828-0.123-3.667-0.074-5.502-0.116C95.797,178.743,95.798,178.726,95.75,176.893z"/>
	<path fill-rule="evenodd" clip-rule="evenodd" fill="#FFFFFF" d="M100.719,150.776c-0.817,0-1.639,0.043-2.453-0.009
		c-1.575-0.1-2.518-0.895-2.64-2.54c-0.125-1.696,0.625-2.86,2.292-3.062c1.679-0.203,3.406-0.203,5.096-0.074
		c1.908,0.146,2.984,1.417,2.803,3.092c-0.194,1.792-1.294,2.607-3.053,2.611c-0.682,0.001-1.363,0-2.045,0
		C100.719,150.789,100.719,150.783,100.719,150.776z M100.587,147.096c-0.88,0-1.774-0.086-2.635,0.044
		c-0.336,0.05-0.598,0.586-0.894,0.901c0.293,0.237,0.578,0.669,0.879,0.682c1.822,0.07,3.648,0.076,5.471,0.02
		c0.296-0.009,0.579-0.439,0.867-0.675c-0.281-0.324-0.53-0.886-0.85-0.928C102.496,147.014,101.536,147.095,100.587,147.096z"/>
	<path fill-rule="evenodd" clip-rule="evenodd" fill="#FFFFFF" d="M97.058,188.373c0.98,0.789,5.882,1.239,6.758,0.598
		c0.223-0.164,0.46-0.736,0.411-0.776c-0.336-0.273-0.752-0.64-1.133-0.631c-1.321,0.031-1.72-0.525-1.2-2.285
		c1.123,0.433,2.502,0.593,3.229,1.366c0.561,0.597,0.744,2.271,0.298,2.911c-0.581,0.833-1.902,1.308-2.995,1.583
		c-1.022,0.259-2.161,0.073-3.248,0.053c-2.551-0.049-3.683-1.054-3.549-3.126c0.124-1.912,1.292-2.64,3.861-2.382
		C100.727,188.46,97.318,186.834,97.058,188.373z"/>
	<path fill-rule="evenodd" clip-rule="evenodd" fill="#FFFFFF" d="M105.914,17.595c-0.441,0.531-0.854,1.089-1.334,1.583
		c-0.29,0.298-0.685,0.493-1.033,0.734c0.362,0.327,0.737,0.641,1.083,0.984c0.46,0.457,0.897,0.937,1.344,1.407
		c-0.131,0.212-0.261,0.423-0.392,0.635c-1.537-0.3-3.077-0.582-4.609-0.907c-1.46-0.31-2.921-0.624-4.356-1.031
		c-0.341-0.097-0.832-0.6-0.802-0.864c0.049-0.423,0.399-1.042,0.756-1.157c1.223-0.39,2.502-0.606,3.765-0.871
		c1.704-0.357,3.412-0.698,5.119-1.045C105.608,17.241,105.761,17.418,105.914,17.595z"/>
	<path fill-rule="evenodd" clip-rule="evenodd" fill="#FFFFFF" d="M96.006,158.33c-0.554-2.958-0.108-4.243,1.564-4.685
		c2.109-0.557,3.271,0.159,4.266,2.738c1.154,0,2.364,0,3.717,0c0,0.704,0,1.269,0,1.946
		C102.303,158.33,99.144,158.33,96.006,158.33z"/>
	<path fill-rule="evenodd" clip-rule="evenodd" fill="#FFFFFF" d="M98.228,32.925c0.104,0.518,0.207,1.036,0.315,1.578
		c-0.582,0.273-1.093,0.515-1.604,0.756c0.044,0.228,0.089,0.456,0.133,0.684c0.666-0.147,1.441-0.129,1.971-0.48
		c0.777-0.516,1.269-1.594,2.081-1.892c1.102-0.406,2.463-0.581,3.57-0.296c0.54,0.139,1.072,1.551,1.048,2.37
		c-0.044,1.453-1.1,2.235-2.757,2.407c-0.158-0.549-0.315-1.096-0.468-1.626c0.678-0.354,1.243-0.649,1.807-0.945
		c-0.07-0.235-0.141-0.469-0.212-0.704c-0.775,0.264-1.641,0.392-2.302,0.828c-0.717,0.473-1.138,1.523-1.882,1.799
		c-0.977,0.363-2.355,0.607-3.165,0.169c-0.693-0.375-1.232-1.845-1.095-2.714c0.137-0.871,1.194-1.598,1.848-2.389
		C97.751,32.621,97.99,32.772,98.228,32.925z"/>
	<path fill-rule="evenodd" clip-rule="evenodd" fill="#FFFFFF" d="M104.146,92.211c0.089-0.861,0.151-1.449,0.212-2.032
		c1.515,0.053,1.709,0.764,1.076,3.879c-3.13,0-6.282,0-9.689,0c0-0.964-0.083-1.834,0.032-2.678
		c0.067-0.488,0.455-0.931,0.698-1.395c0.262,0.449,0.538,0.89,0.778,1.349c0.09,0.172,0.099,0.386,0.172,0.699
		c0.917-0.145,2.18,0.867,2.541-0.978c0.021-0.107,1.209-0.123,1.218-0.074C101.511,92.913,102.968,91.831,104.146,92.211z"/>
	<path fill-rule="evenodd" clip-rule="evenodd" fill="#FFFFFF" d="M105.427,118.207c-3.134,0-6.286,0-9.682,0
		c0-0.971-0.084-1.843,0.033-2.688c0.067-0.483,0.464-0.922,0.712-1.379c0.257,0.453,0.527,0.9,0.765,1.363
		c0.088,0.173,0.103,0.383,0.179,0.684c0.928-0.122,2.185,0.833,2.537-0.991c0.019-0.097,1.213-0.105,1.224-0.045
		c0.337,1.945,1.793,0.818,2.865,1.185c0.132-0.755,0.242-1.387,0.351-2.015C105.881,114.403,106.081,115.154,105.427,118.207z"/>
	<path fill-rule="evenodd" clip-rule="evenodd" fill="#FFFFFF" d="M105.469,173.507c-3.201,0-6.308,0-9.723,0
		c0-0.998-0.068-1.925,0.03-2.833c0.047-0.438,0.407-0.843,0.625-1.263c0.285,0.423,0.588,0.836,0.844,1.275
		c0.096,0.163,0.083,0.39,0.142,0.704c1.031,0.06,2.262,0.841,2.635-1.023c0.017-0.083,1.111-0.087,1.124-0.018
		c0.382,2.022,1.886,0.838,2.978,1.325c0.112-0.906,0.191-1.547,0.271-2.192C105.872,169.785,106,170.281,105.469,173.507z"/>
	<path fill-rule="evenodd" clip-rule="evenodd" fill="#FFFFFF" d="M97.513,43.279c1.068-0.763,1.755-1.319,2.509-1.759
		c0.284-0.166,1.034-0.131,1.046-0.074c0.405,1.875,1.845,1.009,3.013,1.233c0.119-0.719,0.225-1.357,0.33-1.993
		c1.503,0.204,1.567,0.428,1.105,3.877c-3.137,0-6.295,0-9.77,0c0-0.896-0.068-1.823,0.03-2.731
		c0.046-0.436,0.407-0.839,0.626-1.256c0.285,0.423,0.587,0.836,0.845,1.276C97.341,42.013,97.327,42.236,97.513,43.279z"/>
	<path fill-rule="evenodd" clip-rule="evenodd" fill="#FFFFFF" d="M95.747,60.164c0-0.993-0.07-1.873,0.029-2.731
		c0.05-0.435,0.406-0.833,0.624-1.248c0.286,0.42,0.59,0.829,0.848,1.265c0.094,0.16,0.077,0.386,0.217,1.191
		c0.939-0.519,1.689-0.989,2.489-1.348c0.353-0.158,0.884-0.247,1.202-0.093c0.87,0.422,1.669,0.99,2.799,1.686
		c0.235-1.295,0.35-1.932,0.466-2.566c1.498,0.132,1.551,0.309,1.104,3.844C102.389,60.164,99.228,60.164,95.747,60.164z"/>
	<path fill-rule="evenodd" clip-rule="evenodd" fill="#FFFFFF" d="M105.602,98.737c0,0.732,0,1.248,0,1.798
		c-0.197,0.083-0.375,0.221-0.553,0.223c-1.765,0.021-3.533-0.035-5.294,0.049c-0.995,0.047-2.393-0.643-2.688,1.137
		c-0.437-0.17-1.182-0.26-1.25-0.524c-0.18-0.7-0.131-1.484-0.05-2.223c0.066-0.612,0.307-1.206,0.471-1.808
		c0.37,0.349,0.696,0.775,1.124,1.024c0.367,0.213,0.852,0.305,1.285,0.311C100.884,98.752,103.122,98.737,105.602,98.737z"/>
	<path fill-rule="evenodd" clip-rule="evenodd" fill="#FFFFFF" d="M105.553,26.749c0,0.736,0,1.3,0,2.046
		c-2.197,0-4.298-0.026-6.397,0.013c-0.79,0.015-1.868-0.42-2.009,1.02c-0.017,0.168-0.539,0.434-0.779,0.391
		c-0.232-0.042-0.548-0.411-0.573-0.662c-0.079-0.812-0.099-1.639-0.029-2.45c0.047-0.554,0.281-1.092,0.432-1.637
		c0.389,0.334,0.731,0.765,1.179,0.974c0.458,0.215,1.018,0.285,1.535,0.292C101.079,26.767,103.248,26.749,105.553,26.749z"/>
	<path fill-rule="evenodd" clip-rule="evenodd" fill="#FFFFFF" d="M105.475,65.673c-3.185,0-6.35,0-9.496,0
		c-0.528-1.402-0.167-1.998,1.296-1.96c2.311,0.06,4.624,0.064,6.935-0.002C105.735,63.668,105.943,64.346,105.475,65.673z"/>
	<path fill-rule="evenodd" clip-rule="evenodd" d="M100.587,147.096c0.949-0.001,1.908-0.082,2.839,0.044
		c0.319,0.042,0.569,0.604,0.85,0.928c-0.289,0.235-0.571,0.666-0.867,0.675c-1.822,0.057-3.649,0.051-5.471-0.02
		c-0.302-0.013-0.586-0.444-0.879-0.682c0.295-0.315,0.558-0.852,0.894-0.901C98.813,147.01,99.707,147.096,100.587,147.096z"/>
</g>
</svg>
