<svg xmlns="http://www.w3.org/2000/svg" width="90" height="35" viewBox="0 0 800 320">
<g>
	<path fill-rule="evenodd" clip-rule="evenodd" fill="#BA007C" d="M138.979,180.263c0-9.428,1.847-18.153,5.554-26.223
		c3.884-8.075,8.729-14.987,14.537-20.762c5.998-5.948,12.621-10.555,19.848-13.818c7.405-3.269,14.619-4.893,21.686-4.893
		c7.043,0,14.188,1.624,21.409,4.893c7.405,3.264,14.026,7.87,19.839,13.818c5.993,5.774,10.846,12.687,14.537,20.762
		c3.89,8.069,5.827,16.795,5.827,26.223c0,9.028-1.763,17.574-5.284,25.639c-3.529,7.875-8.202,14.798-14.021,20.751
		c-5.642,5.959-12.162,10.663-19.562,14.121c-7.412,3.453-14.996,5.175-22.745,5.175c-7.763,0-15.351-1.722-22.758-5.175
		c-7.397-3.458-14.012-8.162-19.826-14.121c-5.643-5.953-10.234-12.876-13.754-20.751
		C140.745,197.837,138.979,189.292,138.979,180.263z M165.432,180.263c0,13.64,0.967,24.486,2.91,32.556
		c1.922,8.075,4.488,14.315,7.66,18.737c3.17,4.223,6.882,6.999,11.106,8.357c4.238,1.347,8.729,2.014,13.497,2.014
		c4.757,0,9.252-0.667,13.487-2.014c4.228-1.358,7.922-4.135,11.105-8.357c3.178-4.422,5.724-10.662,7.673-18.737
		c1.935-8.069,2.91-18.916,2.91-32.556c0-11.533-0.715-21.13-2.12-28.815c-1.414-7.88-3.617-14.218-6.611-19.019
		c-2.82-5.006-6.449-8.546-10.849-10.667c-4.408-2.111-9.608-3.167-15.595-3.167c-5.998,0-11.201,1.055-15.613,3.167
		c-4.405,2.121-8.106,5.662-11.104,10.667c-2.822,4.801-4.935,11.139-6.342,19.019C166.131,159.133,165.432,168.73,165.432,180.263z
		"/>
	<path fill-rule="evenodd" clip-rule="evenodd" fill="#BA007C" d="M418.075,180.263c0-9.428,1.847-18.153,5.55-26.223
		c3.879-8.075,8.736-14.987,14.539-20.762c6.01-5.948,12.606-10.555,19.841-13.818c7.406-3.269,14.639-4.893,21.707-4.893
		c7.042,0,14.18,1.624,21.406,4.893c7.404,3.264,14.016,7.87,19.842,13.818c5.979,5.774,10.842,12.687,14.536,20.762
		c3.878,8.069,5.815,16.795,5.815,26.223c0,9.028-1.766,17.574-5.28,25.639c-3.527,7.875-8.2,14.798-14.028,20.751
		c-5.639,5.959-12.167,10.663-19.56,14.121c-7.404,3.453-14.995,5.175-22.731,5.175c-7.78,0-15.358-1.722-22.77-5.175
		c-7.399-3.458-14.004-8.162-19.824-14.121c-5.646-5.953-10.231-12.876-13.76-20.751
		C419.84,197.837,418.075,189.292,418.075,180.263z M444.512,180.263c0,13.64,0.974,24.486,2.921,32.556
		c1.937,8.075,4.49,14.315,7.662,18.737c3.172,4.223,6.881,6.999,11.116,8.357c4.225,1.347,8.726,2.014,13.501,2.014
		c4.744,0,9.237-0.667,13.473-2.014c4.222-1.358,7.934-4.135,11.093-8.357c3.189-4.422,5.738-10.662,7.686-18.737
		c1.937-8.069,2.91-18.916,2.91-32.556c0-11.533-0.715-21.13-2.121-28.815c-1.414-7.88-3.609-14.218-6.607-19.019
		c-2.828-5.006-6.433-8.546-10.847-10.667c-4.411-2.111-9.609-3.167-15.586-3.167c-6.011,0-11.208,1.055-15.625,3.167
		c-4.394,2.121-8.108,5.662-11.105,10.667c-2.82,4.801-4.935,11.139-6.343,19.019C445.219,159.133,444.512,168.73,444.512,180.263z
		 M352.75,34.167h43.115v203.728h20.35v4.033h-42.579v-25.07h-0.522c-0.699,2.306-1.768,5.093-3.175,8.356s-3.522,6.425-6.348,9.505
		c-2.644,3.084-6.082,5.672-10.317,7.777c-4.049,2.306-9.066,3.453-15.066,3.453c-7.761,0-15.166-1.809-22.229-5.462
		c-6.87-3.658-12.95-8.546-18.235-14.705c-5.298-6.148-9.52-13.152-12.696-21.032c-3-8.06-4.498-16.519-4.498-25.353
		c0-8.648,1.498-16.908,4.498-24.783c2.999-7.87,7.047-14.699,12.162-20.454c5.117-5.964,11.013-10.667,17.719-14.121
		c6.699-3.648,13.844-5.472,21.414-5.472c9.709,0,17.557,2.583,23.541,7.772c5.997,5.185,10.226,11.528,12.703,19.019h0.528V38.199
		H352.75V34.167z M306.994,175.939c0,9.986,0.267,19.116,0.794,27.376c0.524,8.064,1.847,14.986,3.975,20.751
		c2.107,5.754,5.286,10.176,9.512,13.25c4.228,3.074,9.96,4.611,17.188,4.611c7.405,0,13.313-1.728,17.719-5.19
		c4.592-3.459,8.107-7.87,10.584-13.261c2.463-5.569,4.151-11.713,5.022-18.439c0.885-6.718,1.324-13.25,1.324-19.594
		c0-7.49-0.17-13.921-0.528-19.295c-0.171-5.58-0.617-10.483-1.324-14.7c-0.706-4.232-1.674-7.88-2.91-10.96
		c-1.235-3.059-2.731-5.948-4.501-8.633c-2.641-3.848-6.081-7.019-10.309-9.515c-4.241-2.5-9.608-3.745-16.128-3.745
		c-6.176,0-11.291,1.347-15.347,4.032c-3.877,2.69-6.959,6.527-9.246,11.533c-2.127,4.975-3.624,11.046-4.507,18.148
		C307.44,159.22,306.994,167.1,306.994,175.939z M813.087,238.755c-2.29,1.921-5.017,3.551-8.2,4.893
		c-3.164,1.532-7.053,2.301-11.634,2.301c-8.462,0-14.633-1.916-18.517-5.749c-3.699-4.037-6.262-9.606-7.673-16.724h-0.522
		c-0.697,1.737-1.679,3.945-2.903,6.631c-1.239,2.505-3.171,4.99-5.825,7.485c-2.465,2.321-5.815,4.242-10.05,5.77
		c-4.232,1.716-9.62,2.587-16.119,2.587c-7.414,0-13.324-0.963-17.736-2.879c-4.398-1.728-7.844-3.92-10.298-6.62
		c-2.475-2.68-4.153-5.667-5.039-8.936c-0.702-3.448-1.054-6.62-1.054-9.505c0-6.728,1.243-12.107,3.699-16.135
		c2.478-4.037,5.642-7.198,9.535-9.509c4.041-2.501,8.452-4.52,13.212-6.052c4.937-1.531,9.868-3.177,14.805-4.903
		c5.826-2.11,10.588-3.939,14.295-5.472c3.871-1.542,6.868-3.371,8.984-5.473c2.119-2.3,3.521-5.093,4.235-8.356
		c0.871-3.458,1.324-8.069,1.324-13.839c0-4.611-0.276-8.736-0.805-12.394c-0.52-3.638-1.496-6.723-2.902-9.208
		c-1.411-2.705-3.433-4.719-6.087-6.051c-2.642-1.358-6.166-2.024-10.57-2.024c-5.828,0-10.673,1.158-14.557,3.458
		c-3.693,2.111-5.543,5.667-5.543,10.662c0,3.259,0.261,6.522,0.783,9.797c0.533,3.079,0.8,5.385,0.8,6.911
		c0,2.69-0.874,4.996-2.649,6.923c-1.763,1.731-4.324,2.587-7.667,2.587c-5.815,0-9.443-1.147-10.845-3.458
		c-1.411-2.301-2.113-5.283-2.113-8.926c0-4.227,0.886-8.274,2.646-12.102c1.772-3.838,4.313-7.209,7.67-10.083
		c3.53-3.079,7.839-5.477,12.958-7.214c5.282-1.732,11.282-2.583,17.977-2.583c8.11,0,14.909,1.137,20.361,3.448
		c5.475,2.111,9.884,5.093,13.229,8.936c3.354,3.658,5.728,7.875,7.14,12.671c1.406,4.621,2.121,9.515,2.121,14.705v71.757
		c0,5.554,0.789,9.31,2.375,11.231c1.594,1.921,3.884,2.884,6.873,2.884c1.947,0,3.977-0.384,6.085-1.157
		c2.123-0.774,4.152-1.927,6.081-3.459L813.087,238.755z M766.802,171.328h-0.52c-0.364,2.5-3.267,4.985-8.731,7.496l-19.825,8.648
		c-5.657,2.479-9.977,6.036-12.969,10.662c-3.005,4.412-4.501,9.986-4.501,16.698c0,2.875,0.274,5.867,0.8,8.946
		c0.54,3.069,1.503,5.841,2.907,8.347c1.411,2.311,3.349,4.231,5.815,5.769c2.646,1.532,5.997,2.306,10.061,2.306
		c5.817,0,10.473-1.353,14.013-4.037c3.699-2.689,6.431-6.056,8.195-10.078c1.95-4.037,3.169-8.377,3.713-12.974
		c0.701-4.795,1.042-9.12,1.042-12.968V171.328z M544.222,237.894h20.374V122.34h-20.374v-4.032h42.585v30.83h0.522
		c1.056-2.49,2.564-5.662,4.502-9.515c2.113-3.843,4.938-7.583,8.461-11.227c3.523-3.658,7.935-6.732,13.225-9.223
		c5.288-2.695,11.723-4.037,19.301-4.037c11.642,0,21.068,3.079,28.312,9.228c7.403,6.144,11.098,15.939,11.098,29.379v84.151
		h20.364v4.033h-63.468v-4.033h20.352v-93.082c0-7.49-1.673-13.639-5.016-18.424c-3.159-4.821-8.208-7.214-15.071-7.214
		c-5.645,0-11.019,1.353-16.132,4.033c-5.119,2.69-9.612,6.435-13.491,11.241c-3.884,4.791-6.968,10.467-9.259,17
		c-2.121,6.522-3.177,13.634-3.177,21.319v65.127h20.37v4.033h-63.478V237.894z"/>
	<path fill="#BA007C" d="M29.893,117.867c-1.453,0-1.453-3.546,0-3.546h0.364h59.008h0.164c1.446,0,1.446,3.546,0,3.546H76.771
		c-1.783,0-2.151,0.348-1.783,1.065l1.318,3.32l30.271,76.031l27.801-73.869c2.062-5.995,1.515-6.548-0.173-6.548h-12.257
		c-1.438,0-1.438-3.546,0-3.546h32.62c1.446,0,1.446,3.546,0,3.546h-11.339c-1.733,0-2.721,0.635-5.298,7.009L83.284,269.764
		l-8.117,21.806c-2.897,7.906-5.857,13.291-9.431,16.719c-1.272,1.261-2.699,2.275-4.254,3.038
		c-1.241,0.631-3.278,1.235-4.419,1.404c-0.807,0.118-1.642,0.185-2.476,0.185c-4.169,0-8.176-1.66-11.118-4.602
		c-2.947-2.956-4.615-6.942-4.615-11.123c0-4.176,1.668-8.172,4.615-11.129c2.942-2.94,6.949-4.591,11.118-4.591
		c4.177,0,8.17,1.65,11.117,4.591c2.381,2.372,3.91,5.426,4.426,8.705l23.949-63.518L45.595,118.933
		c-0.356-0.717-1.077-1.065-2.878-1.065H29.893z"/>
</g>
</svg>
