<?xml version="1.0" encoding="utf-8"?>
<!-- Generator: Adobe Illustrator 19.1.1, SVG Export Plug-In . SVG Version: 6.00 Build 0)  -->
<svg version="1.2" baseProfile="tiny" id="Capa_1" xmlns="http://www.w3.org/2000/svg" xmlns:xlink="http://www.w3.org/1999/xlink"
	 x="0px" y="0px" viewBox="0 0 225.5 30.5" xml:space="preserve">
<g>
	<path fill="#241F1C" d="M81,29h10v-1h-2.3c-0.1,0-0.3-0.2-0.5-0.3c-0.4-0.1-0.7-0.3-0.8-0.4C87.1,27,87,26.6,87,25.9V4.6L95.2,29
		h2.7L106,4.5v21.4v0.5c0,0.3,0,0.8-0.3,1c-0.2,0.2-0.7,0.6-1.2,0.6h-0.1H103v1h13v-1h-2.2c-1.2,0-1.8-1-1.8-2.1V5.7
		c0-0.8,0-1,0.4-1.3c0.2-0.2,0.7-0.4,1.3-0.4h0.1h2.2V3h-11.1l-6.4,18.6L92.4,3H81v1h2.3C84.4,4,85,4.6,85,5.7v19.4l0.1,0.9
		c0,1.1-0.7,1.9-1.8,1.9H81V29L81,29z"/>
	<path fill="#241F1C" d="M117,4h1.4c0.1,0,0.3,0,0.5,0.1c0.3,0.1,0.5,0.1,0.7,0.3c0.3,0.3,0.3,0.5,0.3,0.9v0.4v16.2
		c0,3,0.9,4.7,2.8,5.8c1.7,1.1,4.5,1.7,7.2,1.7c3,0,6-0.9,7.5-2.1c0.8-0.7,1.6-1.7,1.9-2.9c0.3-1,0.6-2.2,0.6-3.5V5.7
		c0-1.1,0.4-1.7,1.6-1.7h1.4V3h-9v1h2.1c1,0,1.9,0.6,1.9,1.7V21c0,4.2-1.8,5.9-6.1,5.9c-2.8,0-4.9-1-5.6-2.7
		c-0.2-0.5-0.3-1.3-0.3-2.8V5.7c0-1.1,0.6-1.7,1.7-1.7h2.3V3h-13V4L117,4z"/>
	<path fill="#241F1C" d="M144,29h10v-1h-2.3c0,0-0.3-0.2-0.5-0.2c-0.3-0.1-0.6-0.3-0.8-0.4c-0.3-0.3-0.4-0.7-0.4-1.4V8l13.2,21h4.8
		V5.7V5.2c0-0.5,0.1-0.9,0.9-1.2C169.1,4,169,4,169,4h2V3h-9v1h1.7c1.1,0,1.3,0.6,1.3,1.7V22L153.1,3H144v1h2.2
		c1.1,0,1.8,0.6,1.8,1.7v19.5v0.7v0c0,1.1-0.8,2.1-1.9,2.1H144V29L144,29z"/>
	<path fill-rule="evenodd" fill="#241F1C" d="M172,29h13.9c7.3,0,12.6-5.7,12.6-13.5c0-4.5-2.1-8.4-5.6-10.7
		c-2.1-1.4-4.4-1.8-7.4-1.8H172v1h1.8c1.1,0,2.2,0.6,2.2,1.7v18.2v2c0,0.7-0.3,1.2-0.6,1.5c-0.2,0.1-1,0.6-1.5,0.6h-0.1H172V29
		L172,29z M181,26.1V5.4c0-1.2,0.6-1.4,1.7-1.4h3.4c1.9,0,3.6,0.8,4.6,2.3c0.7,1.1,1.1,2.4,1.4,4.5c0.2,1.5,0.3,3.7,0.3,5.3
		c0,8.1-2.1,12-6.7,12h-2.9C181.7,28,181,27.4,181,26.1L181,26.1z"/>
	<path fill-rule="evenodd" fill="#241F1C" d="M201,15.8c0,8.1,4.9,13.5,12.3,13.5c7.3,0,12.3-5.4,12.3-13.5c0-3.8-1.1-7.1-3.3-9.7
		c-2.2-2.6-5.1-3.9-9-3.9c-3.9,0-6.7,1.2-9,3.9C202.1,8.6,201,12,201,15.8L201,15.8z M207.8,8.2c0.7-2.9,2.6-4.4,5.4-4.4
		c2.8,0,4.7,1.5,5.5,4.4c0.5,1.9,0.7,3.8,0.7,7.6c0,3.8-0.1,5.7-0.7,7.6c-0.8,2.8-2.6,4.4-5.5,4.4c-2.8,0-4.7-1.5-5.4-4.4
		c-0.5-1.9-0.7-3.8-0.7-7.6C207.1,12,207.3,10.1,207.8,8.2L207.8,8.2z"/>
	<path fill="#241F1C" d="M0,29h23.2l0.7-8h-1.4c-0.5,4-3.5,7-8.5,7h-3.6c-1,0-1.4-0.7-1.4-1.8V15h1.9c1.9,0,3.6,0.5,4.4,1.2
		c0.8,0.7,1.3,2.4,1.3,3.7c0,0.2,0,0.1,0,1.1H18V8.9l-1,0v0.3c0,3.2-2.4,4.8-6.1,4.8H9V5.1C9,4.1,9.3,4,10.2,4h3.6
		c2.9,0,4.4,0.3,5.9,1.7C21,6.6,21.9,7.7,22.1,9c0.1,0.3,0.1,1,0.1,1h1.5l-0.6-7H0v1h1.6C2.7,4,3,4.6,3,5.7v19.5v0.7v0
		C3,27,2.7,28,1.6,28H0V29L0,29z"/>
	<path fill="#241F1C" d="M24,4h2.3C27.5,4,28,4.6,28,5.7v19.4v0.7c0,0.7-0.1,1.2-0.3,1.5C27.4,27.6,27,28,26.4,28h-0.1H24v1h22.9
		l0.5-11H46c-0.9,6-3.7,10-7.8,10h-2.9c-1,0-1.2-0.7-1.2-1.8V5.7C34,4.6,34.5,4,35.6,4H38V3H24V4L24,4z"/>
	<g>
		<path fill="#5B7686" d="M78.3,21.9c0.9-1.8,1.4-3.9,1.5-5.9H66v6h12.3C78.3,22,78.3,22,78.3,21.9z"/>
		<path fill="#5B7686" d="M64,8H51.7c-1,2-1.7,5-1.8,7H64V8z"/>
		<path fill="#5B7686" d="M66,8v7h13.8c-0.1-2-0.8-5-1.8-7H66z"/>
		<path fill="#5B7686" d="M64,16H49.8c0.1,2,0.6,5,1.5,6H64V16z"/>
		<path fill="#5B7686" d="M64,24H52.3c2.6,4,6.7,6.3,11.7,6.5V24z"/>
		<path fill="#5B7686" d="M66,7h11c-2.6-4-7-6.2-11-6.5V7z"/>
		<path fill="#5B7686" d="M66,24v6.5c4-0.3,8.8-2.5,11.4-6.5H66z"/>
		<path fill="#5B7686" d="M64,7V0.5C59,0.7,55.3,3,52.7,7H64z"/>
	</g>
</g>
</svg>
