<svg xmlns="http://www.w3.org/2000/svg" width="88" height="10.912" viewBox="0 0 88 10.912"><g fill="#FFF"><path d="M16.09 10.674V8.059h-1.178V2.836h1.178V.219h-5.602c-.364.777-.638 1.672-.968 2.492-.346.92-.689 1.86-1.034 2.789-.643-1.805-1.43-3.527-2.165-5.281H0v2.618h1.141v5.222H0v2.615h5.076V8.059H3.703V4.047c0-.18 0-.352.014-.539.43 1.133.902 2.253 1.332 3.43.472 1.225.922 2.516 1.448 3.735h2.396c.411-1.099.768-2.24 1.187-3.357.458-1.215.874-2.494 1.336-3.707v.602c0 1.283-.007 2.566-.007 3.848h-1.162v2.615h5.843z"/><path d="M25.712 10.674V6.031h-2.358c-.02.673-.02 1.359-.033 2.027H20.03V6.615h2.424V4.48H20.03V3.256c0-.149 0-.292.033-.42h2.947c.008.773.036 1.5.045 2.277h2.293v-.395c0-1.521-.021-3-.021-4.5H15.323v2.618h1.132v5.222h-1.132v2.615h10.389v.001z"/><path d="M35.527 5.113V.219h-11.24v4.895h2.107c-.016-.795 0-1.675.011-2.475h1.765v5.42h-1.199v2.615h5.873V8.059h-1.146v-5.42h1.738c0 .799 0 1.698.031 2.475h2.06v-.001z"/><path fill-rule="evenodd" clip-rule="evenodd" d="M46.385 8c0-.142 0-.285-.008-.438h-.783c-.014.46.049 1.142-.445 1.142-.78 0-.193-1.479-1.217-2.43-.553-.513-1.117-.546-1.759-.708.116-.039.231-.039.345-.039 1.333-.027 2.598-.594 2.598-2.58 0-2.348-2.026-2.729-3.457-2.729h-7.205v2.618h1.145v5.222h-1.145v2.615h5.602V8.059h-.931c-.011-.151-.011-.291-.011-.432V6.182l.779-.039c.324-.02.814.053 1.078.363.746.828-.484 4.406 3.006 4.406 1.49 0 2.408-.924 2.408-2.912zm-4.621-4.238c0 .684-.396.971-.882.971h-1.758V2.764h1.172c.619 0 1.468-.1 1.468.998z"/><path fill-rule="evenodd" clip-rule="evenodd" d="M55.391 5.549C55.391 1.547 52.83 0 50.072 0c-2.68 0-5.275 1.646-5.275 5.508 0 1.521.488 2.744 1.336 3.773 1.051 1.25 2.553 1.594 3.939 1.594 1.383 0 2.941-.307 4.004-1.571.852-1.013 1.315-2.257 1.315-3.755zm-3.589-.131c0 1.543-.21 3.237-1.696 3.237-1.534 0-1.699-1.664-1.699-3.242 0-1.439.279-3.179 1.674-3.179 1.526 0 1.721 1.618 1.721 3.184z"/><path fill-rule="evenodd" clip-rule="evenodd" d="M64.818 3.471c0-.92-.304-1.696-.842-2.311-.672-.779-1.69-.941-2.572-.941h-7.021v2.618h1.146v5.222h-1.146v2.615h6.127V8.059h-1.361V6.686c.533 0 1.058 0 1.589-.02 1.075-.018 2.577.163 3.399-.904.478-.606.681-1.426.681-2.291zm-3.205.381c0 1.189-.815 1.047-1.486 1.047h-1.006V2.836h1.549c.545 0 .943.219.943 1.016z"/><path fill-rule="evenodd" clip-rule="evenodd" d="M74.029 5.549C74.029 1.547 71.473 0 68.711 0c-2.68 0-5.271 1.646-5.271 5.508 0 1.521.483 2.744 1.335 3.773 1.047 1.25 2.549 1.594 3.936 1.594s2.941-.307 4.006-1.571c.847-1.013 1.312-2.257 1.312-3.755zm-3.583-.131c0 1.543-.212 3.237-1.702 3.237-1.533 0-1.695-1.664-1.695-3.242 0-1.439.275-3.179 1.677-3.179 1.518 0 1.72 1.618 1.72 3.184z"/><path d="M83.12 10.674V5.477h-2.519v2.582h-2.826V2.836h1.351V.219h-5.981v2.618h1.023v5.222h-1.059v2.615H83.12z"/><path d="M88 10.674V8.059h-1.085V2.836H88V.219h-5.775v2.617h1.084v5.223h-1.084v2.615H88z"/></g></svg>