<svg xmlns="http://www.w3.org/2000/svg" width="92" height="13.648" viewBox="371.5 55.113 92 13.648"><path fill="#FFF" d="M404.908 63.152c.102.247.153.541.153.881 0 .414-.092.776-.276 1.084-.184.309-.43.563-.736.767-.307.201-.661.352-1.062.45s-.879.147-1.324.147c-.859 0-1.625-.148-2.287-.446V64.32c.771.526 1.453.79 2.256.79 1.074 0 1.638-.33 1.638-.989 0-.187-.032-.345-.124-.475a1.309 1.309 0 0 0-.365-.347 2.808 2.808 0 0 0-.549-.271c-.212-.08-.447-.17-.708-.271-.322-.134-.611-.274-.87-.423s-.473-.317-.644-.506a1.925 1.925 0 0 1-.387-.642 2.455 2.455 0 0 1-.13-.838c0-.393.089-.74.268-1.041.179-.3.419-.553.721-.758a3.4 3.4 0 0 1 1.028-.462 4.175 4.175 0 0 1 1.142-.155c.726 0 1.351.114 1.902.343v1.619a3.05 3.05 0 0 0-1.855-.59c-.225 0-.405.024-.586.072-.182.048-.325.114-.453.199s-.222.188-.293.307a.758.758 0 0 0-.104.395c0 .176.037.325.109.447a.99.99 0 0 0 .319.323c.141.093.31.178.507.255s.423.161.679.251c.338.144.641.29.909.439s.498.317.687.506c.187.19.332.407.435.654zm5.706-.331c0 .653-.106 1.183-.429 1.587-.323.404-.72.606-1.22.606-1.034 0-1.546-.734-1.546-2.202v-4.628h-1.763v4.821c0 2.317.927 3.485 2.689 3.485 1.034 0 1.856-.458 2.347-1.447l.014 1.295h1.671v-8.154h-1.763v4.637zm11.299-5.559c.302 0 .558-.103.768-.307a.997.997 0 0 0 .314-.738 1.01 1.01 0 0 0-.314-.757 1.066 1.066 0 0 0-.768-.303c-.291 0-.54.101-.748.303a1.016 1.016 0 0 0-.311.757c0 .303.104.553.311.75.208.197.457.295.748.295zm.82 6.595v-5.673h-1.763v6.432c0 .954.73 1.722 1.708 1.722h1.156v-1.392c-.88 0-1.101-.202-1.101-1.089zm9.341-6.595c.302 0 .558-.103.768-.307a.997.997 0 0 0 .314-.738 1.01 1.01 0 0 0-.314-.757 1.066 1.066 0 0 0-.768-.303c-.291 0-.541.101-.748.303s-.311.455-.311.757c0 .303.104.553.311.75s.457.295.748.295zm.796 6.595v-5.673h-1.763v6.432c0 .954.755 1.722 1.732 1.722h1.132v-1.392c-.88 0-1.101-.202-1.101-1.089zm7.191-4.848c.588.718.853 1.714.853 2.991v.701H435.4c.021.771.354 1.342.781 1.751.427.409 1.069.616 1.816.616.838 0 1.593-.259 2.254-.779v1.491c-.661.467-1.607.701-2.783.701-1.156 0-2.035-.371-2.692-1.112-.657-.742-.972-1.785-.972-3.13 0-1.27.368-2.306 1.092-3.106s1.612-1.2 2.686-1.2c1.074 0 1.891.359 2.479 1.076zm-.695 2.37c-.005-.661-.156-1.17-.452-1.54-.297-.37-.816-.549-1.338-.549-.512 0-1.055.186-1.41.574s-.685.964-.766 1.515h3.966zm6.37-3.433c-1.109 0-1.958.569-2.546 1.561h-.073v-1.322h-1.764v8.153h1.764v-4.704c0-.643.197-1.176.55-1.599.354-.422.78-.634 1.322-.634 1.038 0 1.543.763 1.543 2.289v4.648h1.763v-5.039c0-1.09-.188-1.917-.639-2.494-.45-.577-1.066-.859-1.92-.859zm8.839-2.627h1.763v11.019h-1.763v-.882h-.003c-.75.991-1.778 1.023-2.646 1.023-.967 0-1.74-.364-2.32-1.096-.581-.73-.871-1.726-.871-2.986 0-1.351.321-2.432.963-3.246.642-.813 1.497-1.213 2.565-1.213.807 0 1.725.245 2.31 1.126h.003v-3.745zm0 6.17c0-.579-.156-1.071-.52-1.476a1.758 1.758 0 0 0-1.376-.606c-.664 0-1.181.258-1.562.774-.382.516-.568 1.23-.568 2.145 0 .83.184 1.484.55 1.965.365.481.858.723 1.478.723.608 0 1.077-.233 1.455-.698.379-.466.543-1.052.543-1.759v-1.068zm8.925-.51v5.358h-1.652v-.991h.004c-.812.991-1.337 1.124-2.385 1.124-.772 0-1.377-.212-1.814-.648-.438-.436-.656-1.01-.656-1.728 0-1.541 1.179-2.914 4.894-2.914.067-.918-.583-1.869-1.646-1.869-.936 0-1.812.335-2.583 1.005v-1.619a5.485 5.485 0 0 1 2.866-.766c1.983.002 2.972 1.017 2.972 3.048zm-1.652 1.323s-1.628-.081-2.782.603c-.968.572-.593 1.747-.188 2.078.523.428 2.971.514 2.971-1.995v-.686zm-34.872 2.073l-2.233-6.191h-1.72l3.037 8.263h1.832l3.037-8.263h-1.72l-2.233 6.191zm-10.306 0l-2.233-6.191h-1.72l3.038 8.263h1.832l3.038-8.263h-1.72l-2.235 6.191zm-22.557-4.228l-5.643-4.765a1.12 1.12 0 0 0-1.487.026l-2.854 2.525-1.822-1.52a.958.958 0 0 0-1.248.021l-1.635 1.432-1.743-1.453a.958.958 0 0 0-1.248.021l-4.487 3.902c-.201.18-.446.437-.446.706v3.549l1.983 1.017v-4.143l3.502-3.073.946.769-1.364 1.175c-.201.18-.439.437-.439.706v3.549l1.983 1.017v-4.143l3.502-3.073 1.032.843-1.082.938c-.245.219-.478.533-.478.862v4.333l2.314 1.241v-5.058l4.189-3.752 4.515 3.776v7.186h2.314v-7.727c0-.342-.041-.667-.304-.887z"/></svg>